<mxfile host="app.diagrams.net" agent="Mozilla/5.0 (Macintosh; Intel Mac OS X 10_15_7) AppleWebKit/537.36 (KHTML, like Gecko) Chrome/129.0.0.0 Safari/537.36" version="24.7.17">
  <diagram name="Page-1" id="Ce8mvNCf3leXUMQClNuV">
    <mxGraphModel dx="1612" dy="-88" grid="1" gridSize="10" guides="1" tooltips="1" connect="1" arrows="1" fold="1" page="1" pageScale="1" pageWidth="850" pageHeight="1100" math="0" shadow="0">
      <root>
        <mxCell id="0" />
        <mxCell id="1" parent="0" />
        <mxCell id="aBF4gKf8o6EeW--I7lqI-1" value="" style="shape=image;verticalLabelPosition=bottom;labelBackgroundColor=default;verticalAlign=top;aspect=fixed;imageAspect=0;image=data:image/png,iVBORw0KGgoAAAANSUhEUgAABkoAAAgACAMAAABel59tAAAABGdBTUEAALGPC/xhBQAAACBjSFJNAAB6JgAAgIQAAPoAAACA6AAAdTAAAOpgAAA6mAAAF3CculE8AAAAB3RJTUUH5gsVBCcrba4negAAAwBQTFRFAAAAAAAAAAAAAAAAAAAAAAAAAAAAAAAAAAAAAAAAAAAAAAAAAAAAAAAAAAAAAAAAAAAAAAAAAAAAAAAAAAAAAAAAAAAAAAAAAAAAAAAAAAAAAAAAAAAAAAAAAAAAAAAAAAAAAAAAAAAAAAAAAAAAAAAAAAAAAAAAAAAAAAAAAAAAAAAAAAAAAAAAAAAAAAAAAAAAAAAAAAAAAAAAAAAAAAAAAAAAAAAAAAAAAAAAAAAAAAAAAAAAAAAAAAAAAAAAAAAAAAAAAAAAAAAAAAAAAAAAAAAAAAAAAAAAAAAAAAAAAAAAAAAAAAAAAAAAAAAAAAAAAAAAAAAAAAAAAAAAAAAAAAAAAAAAAAAAAAAAAAAAAAAAAAAAAAAAAAAAAAAAAAAAAAAAAAAAAAAAAAAAAAAAAAAAAAAAAAAAAAAAAAAAAAAAAAAAAAAAAAAAAAAAAAAAAAAAAAAAAAAAAAAAAAAAAAAAAAAAAAAAAAAAAAAAAAAAAAAAAAAAAAAAAAAAAAAAAAAAAAAAAAAAAAAAAAAAAAAAAAAAAAAAAAAAAAAAAAAAAAAAAAAAAAAAAAAAAAAAAAAAAAAAAAAAAAAAAAAAAAAAAAAAAAAAAAAAAAAAAAAAAAAAAAAAAAAAAAAAAAAAAAAAAAAAAAAAAAAAAAAAAAAAAAAAAAAAAAAAAAAAAAAAAAAAAAAAAAAAAAAAAAAAAAAAAAAAAAAAAAAAAAAAAAAAAAAAAAAAAAAAAAAAAAAAAAAAAAAAAAAAAAAAAAAAAAAAAAAAAAAAAAAAAAAAAAAAAAAAAAAAAAAAAAAAAAAAAAAAAAAAAAAAAAAAAAAAAAAAAAAAAAAAAAAAAAAAAAAAAAAAAAAAAAAAAAAAAAAAAAAAAAAAAAAAAAAAAAAAAAAAAAAAAAAAAAAAAAAAAAAAAAAAAAAAAAAAAAAAAAAAAAAAAAAAAAAAAAAAAAAAAAAAAAAAAAAAAAAAAAAAAAAAAAAAAAAAAAAAAAAAAAAAAAAAAAAAAAAAAAAAszD0iAAAAP90Uk5TAAECAwQFBgcICQoLDA0ODxAREhMUFRYXGBkaGxwdHh8gISIjJCUmJygpKissLS4vMDEyMzQ1Njc4OTo7PD0+P0BBQkNERUZHSElKS0xNTk9QUVJTVFVWV1hZWltcXV5fYGFiY2RlZmdoaWprbG1ub3BxcnN0dXZ3eHl6e3x9fn+AgYKDhIWGh4iJiouMjY6PkJGSk5SVlpeYmZqbnJ2en6ChoqOkpaanqKmqq6ytrq+wsbKztLW2t7i5uru8vb6/wMHCw8TFxsfIycrLzM3Oz9DR0tPU1dbX2Nna29zd3t/g4eLj5OXm5+jp6uvs7e7v8PHy8/T19vf4+fr7/P3+6wjZNQAAAAFiS0dE/6UH8sUAAMtlSURBVHja7N11fJTH2sbx3bi7EZIQSAgEd3e34sW9pTgUKFBa3IoUd4q7F3d3dwskJCQkxN1tX2jPOS9toUR2k0d+3//bz2Z3nvti5p6ZR6EAZEGprWdgZGJmYWVj51DQuVBht6LFPEtUqFq7QdOvOnTp2W/gsNE/Tpw+e8HSVeu37vr9yKnzV28+ePrqTVBYTLJKpcpMToyLiQwLeffW39fn5Yunjx7cu33t0tkTh/fv3rbxt+VL5s+ePvmnMd8P/a5z2xYNa1UpW8KzuEdR9yKFCzk7OthaWZgaG+hqK/kNAEBctPRNrOydXIuWLFe5Rt1Gzdt06PbNkB8mzJi/fP32/cfPX7///E1ITEqmSlNS4yND3r72enjj3OFd65fNmTxmcJ/O7Vo2qV+raoVSxYq4OFibGerwIwGAoOiaWDsWKVG+Wt0mbTr17D/0hwnT5y5es2nXgRMXbtx/9jooMiFdle9SooPfeD26denU4b1b1y6bP2vK2BED+nRp17xBzUol3Z1tzfT4GQEgL+lZuXhWqtuqc98hP0yes3Ttzn2Hjp++cO32/SdevgHBEbHJGSoRSImPCg30e/Xs4Z3rfyyW7dywYt7k0f07NatWwsmM9TAAUDctq8Jla7fsPmjczKVbDp6/+9TL2/fN23ehEVGx8Ukp6ZkqKchMT02Kj4kMDfL3ffXiyYX9a+eN79+hflkXY35+AMgWpba+sbmVnaNz4aKelZv2GD5l6baTd17HZKjkKzMp6OnlAxvmTxjcqXElz6KFXRztrEwN9Zi3AMDHdIytHQt7lqtap/FXX/cbOWXRhv1nbr8KTVbhn6ti4d53z+5dN+/nIV3bNq1btWwxFzszUgWATOlZmjm4lanWsE23/iMmzlr02/aDZ2888gmOzyAtsiop9PWja6f2bVo+Z+LwPh2aVPN0MtNmYAGQPm3rYnXa9x8/Z9XWfUcPn7p44/5z36CI+ExiIXcy4kLfvLh/9czhXWtm/dCvbZ0SDvqMNQBSY+BcuVW/HxfsOPvA6/XbkMi4pDTSQzNtlbTEmIjgt74vn1zZs+CHbvWLmTD4AIiTrqGZlV1BV3fPau0GTFy6+7JXVAbJkU/RkhH19MzmmUPaVfMs4uxgbWbAChgAgdOzdCpesU7zjgN/+nXd71eevqNtLiAJvreObvp1TJ+2TWqV83CyZAEMgMBoWRWp2LDjgHG/rNp15q5PZDp1W8CSQ17eOLFr9dzxg7q1rFnC0ZjNXwDyl9K4cNW2301YsuPohdvP/aNSqNMikhYT5P3w2umDm+YO71ijsAGjGUCe0y1Ut/eULZeeevsHR8al0AgR8+avpOiQAO+np3/7uXutAloMbQCanYLomlgXKFS0atfxq0++TMnMJD8k16LPzIx/fnzlmA5VPAo5WJlw7hGAWqcgls4lqjXuMGjGxlNPIkkQGUxUIp+eXD9zSMfG1UoVstLlAQCQO9o2Jep1HjFj1Z7zT4PphMiumxLy5OL+32aN7NqwlA0rXwBywqx0y4G/bDt+7enbBCYisl72Sgx6dv3Yll8GtSxhymMBIKv0Srb5YfX5577vIhO5Dwv/WfNKjHr3+smZlaOaF2bFC8DnA8TMzqVYwyGLjtJSx7+25hOeHvild00PFzszfRrzAP5LaeJSpk6boQsPPoolQpDFSIl48PvCkZ0aVy5qR6AAsk8R69JNeo1bvPfq60SqI7ItNfj+8Y1zRnaqWdiQhwmQZ4oUrN1r8oajN16EsDULuZIY8PD83sVDmxXlyDwgJ1pFWo/beM0rIDye27KgpgWvlKggn/v7JrcrqscDBkh7HmJgWaBI1UErr0Zn0FeHprrycfc3jmrq6WJrosMjB0iNnkOJWu1Grz4XwPZe5IHYR/t+6d+qRnE77rIHJELbrsJXg3/ZesE7iQqHvJyhxLw4s3HW4NZlrdjiBYh7Scu0XMefN5647RPDghbyRUbM65uHV43+qijLXYAo6bq1m37osW9IHK115LO0mHfeN9ePqGvGYwmIZiZiaO1cst3s8+H01iGwlnza8+1jm3gUtDRgxQsQMi3rYjXb/bj1bix1C0IVfmXd2I51PO3ZNAwIckHLuWa3n347/ZJj6xC85NfnNs0Y0LyEOdMTQEAMirWdsOXMw6A0ihRE05CPenX14PIRTV1oyAMCYFhh0IabPsFxHBiB+KRGB768vLSnB7MTIN9WtCwcPTrMvxpDex1i78envzs8sXFRBzMmKECe0itQtumA5Zd40TqkI+T0wm+blivA+XggT+gUrNt32tZrodQeSK5/Enpz24z+jd15USOgWY5NR6879TiMY4eQqvTIFxe2Tf66BHECaITSutnkoy8CY9imBcnPTuJDfG6t6FuSsyeAGjPEyM61TI8VjzMyaI1ATt34jIgzU1oWczTXpggAuWTgWq39pMO+3OoLmYq4uKRX/RLWWtQCIIe0HWr3nX3gaQLlBPJunwSc/21suzJmnD4Bss2owoCVJx6Fs6YFvJfid2P/nK4eNOOBbHDtufqmb2QqBQT4/+ZJUuirSws6OlAfgC/RMStYptdvL9LosAOfzJOMtCere5cpyMl44HMsitfrs/BaHOUC+Hfx1xf0ruNhSs0A/j4dcWk8dMVZfw6NAFmS6nti0YAGzkxOgP/RLfXdqjMvmI4A2RL97PSawRWMqCCAQmHUaNYFnwha7EAOpEX63lzemVY85EzbwqnqyMOxtNiBXLbi7y1oU8zeiIMnkOFkxK1Wj5X3eH0uoB4hJya1q+TIJSuQEaV11W/mHfGhxw6oU/yD7T+3KWZAhYEsuH49++A9jrEDGpDqe3nTyBq8PwtSb48U+W6fV3AiOQJoSnr0mxvzW1hQbSBNOhbO9eY9SqHJDmhcZkbcuZGVnbifHhKj51yr75qn7PgF8k7i3eW9a7gaUn4gEfolv560x5smO5DXMrx+n9m9HK0TiJ9BuYFbrgYwHwHyqXXy7ubm4ZWYm0DMlNWnnH8dmcHjDOTn3CTK9/L0SrzrBKLsstt4fL3OP50mOyAEmWlv1nUoaq1HaYKYuuwutfruekuMAIIStG1I/aKsdUEctFzaTtpHlx0QYufk7fG53coaU6Yg9Bxx7LTotB9ddkCwS13vbqzt5UqtgoBZtNn6LCSFhxUQtNQwry2dbClYECB9G8/vDkfSZgfEMTfJiD4+0N2GIycQVI64NxixL5LHExCV0L3D6xdhkzAEsl3Lo8PMY2/TeS4B0cnwPzyxTWHSBPnOscfKi284hAiItnHie25pV3tKGfKRcZOVz0PZrgWIW0rIo3VtuZYe+UHL1KnF+re02QFJyEyPPNjVndPwyFtmZdr/+pDHD5BU4yRw56DaDlrUN+TRfq2SPZZci+HBA6SXJt6bh9e2UFLloHGF+qy5GswjB0h0pSvu0Z4fSjI1gUaZtlznFUafHZD01CTm5f5eHIaHZmibObfe+o4+OyCHuUl69MGOhXg3PNTNpMzXi5/xgAHyke69smt5M4of1DchKdxxwbVYHi1AZhLuLOpZyoASCLVMSJrOOePPuhYgy75J6LXf6Jsg9wqPvPY2kSABZCs17MHyerx7ETmmZV6076lY7tcC5C4z3Xd5dQdDzpsg25SmpTusCOAZAvCHlIvj6jsRJsjehKRw1/lX43h6APxPht/uIZVNKI/IKrMmc84EsbAF4G9i72zo40iJRFY4jb8UQKMdwKekhT2dW5Gji/h3poW7HIlnPgLgXxa6ku78UNKSOMFn6BZqNO8pL9YF8EXhG7uWNaMJj38yqT16Hzf+AsiaxJsLu7kSJvgrh+7bH8bzdADI+kJX0KmZdY2pnvgv7VK/3A6lQwIgezIT35weZkUJxYd3tBfqcyWZHAGQozRJj97e2pl7VWROx6P1Qm9yBEAupN79uZY9L16UL8t6P56M4DkAkFs+6/uV0KWmyrPT/u32J8k8AgDUsdAVdmVBHcJEflx/ehjOGRIAapPkd6irJbVVRnQLNN0ZSYcEgJqnJulvFpWzZm4iC0rzCgMusrAFQCNid/Uuw2ET6QeJfbsFd9MY7gA0JeHG3Ja8w1faCg857EeQANCoDO99w93YHSxV2qXmPYhklAPQfJhEPVtZkRu6JMigQNtTibTaAeRVmiRd+cbdlDiRVIfEusaYGyxsAchTma8WNnJkoUsynDuvfkGQAMh7wdu+LaZDEZYAraKjjwQyoAHkz8wk/OLMcixziV7RxU+jaZEAyD8JL9dW59yiiOkVaLWfN7UDyG8ZSRe7FzSgJouSUdnBF5MYwwAE4c4PVS1Z6BId8wZTb3BdIwDBSH22tL0FtVlUDL/e+Ix7tgAIa53Lb2dn7g4WD9POp9+x+ReA8MIk+ExvU2q0GJiUmuKVlsmQBSBEmWmvhrsY0TQROMtqv3CIBICgpybPJlQ3p1oLudfefOFLNv8CELj0p4uamlCxBUq/1dZXqQxSACKYmXitb8vMRJBB0mhfALt/AYhEWtCRr7Sp3MKiY9/ufBK9dgAikpl2oZUNdz0Kh5571xMMSwCik3Coiyu30AuDVsnhx+MYkgDEKPJAbyfKuAC4jb8SzXAEIFahB/rZUcnzmf2Yu7EMRQAilhF2vqce1Twfm+2Og1+yaQuA2GWm3etqRwM+n4KkcI8rDEEAkpB0ursz16nkPaXjN4dotgOQjKg9nawo7XnMoMvhEIYeACkJ2NzciOqel2tb9fa940AiAIlJ899QhmMmecWs2r44ggSABGXELyvOFfR5waL68hjGGwCJyvSbXNGQSq9hhnXnveIaeQASlnpnQmkmJhpVZuFjXtkOQOISL42wp95rjOWPz5IYZACkv8oVdaK5PjVfIwdJbLs84Gg7AJmESdLecuwMVj/TBnsSGV0A5CNkUhkDar9a6VaaGcDAAiArKddHuNJ/V+PaVoExN2iSAJCdiBOduDNYbVpejuZIIgAZygzcVJaJiTpmJEYVdyUSJABkKiN0rocuUZBL2uWm+jOWAMjZw54FCINcKTjgWhrjCIC8xa5vyMbgnDNuuzeKQQRA9tKeTnWhZZLTKcnKQM4kAsCHicn1loRCTtrtFt39ubcRAP6UmbC5JCcWs722VXNTKmMHAP4/TF58X5gXY2VrSuL642PWtgDgLxJ+b8vEJBtaHI1m0ADA3/nMKUpCZJHtLD+6JADwqYnJpdZcpZKVtS2zNvdZ20LeyMxIT0tNSUlOSkpMTEx4Lz4+Pu692PdiYmKio6Oj/hAdExsXF5+QmJiUnJKampaekcEFDMi3URu/sogOUfEFOhVX8OZ2qElGSmJcdETouwA/n5cvnj159OD+nds3r1+9fPH82TMnjx89fHjvzi0bfluxeP7sWTOnT50yeeLPP/04bswPo0aOGD50yKCB3/X/pl+fXj279+j97cCh3/8wfuLUmXPmL1mxZv3mHXsOHD584tTZ85euXr915/6jJ8+9vH3fvA0KiUlI5kwtNO5hBxvC4l8V+PY2wwTZlhYXEeTn/ezR3RtXzp08emDP9k1rVy2dP2fmpPGjhw3s17Nzu1ZNGtatWa1S+dIlirm5OhWwszI3NtDO5fzZwNTKrqCru2eZClVr1WvUok2HLj36fT92wtTZ85esXLtpx96Dx05fvHb7wbNXfoFh0YlpzGOgPiGLK3At1+fp1tkaxgOHL0mNCfZ9eufy6UM7N6yYP+OnkYP6dv+6bYsmDerUqFKxbMliboUK2ltbmBjk2xqAtr6xubWDk6t78dLlK1ev3aBJi9btO3fv1X/YmAnT5y5evXHHvmMXbz99HRzHBAY5lXStvyGR8RmG419xlgSfkBL07OrhzcvmTBr1Xfe2jStVKFvK08OtsEtBB1srcxNDPW1xXCihpatvZGJmYW1rX8DJ1c3Ds1S5ijWbdug7bPysJRv3nrjy4HUoV2AjyzJDtzgSGp9iUP4K/0iTu4zUxLio8NB3b9+8fnR+/7pffx7QqXElN0tDA319PV0dHW1tLS2lpC4iUiq1tLV1dHT19PT1DQwMTR2LV6rfuvugMdMWrt19/MpD7zcBQcFhkdFxickskOHvT8vLPpYcWPzHv9gKDvfjWZGp9ITwtz5P7109e2zXimnf92pTv1wRa3ao/Lmf0alEtSad+o+esnD93mNnLt28//Sl37uIuBSeFbwXt6EaD8rfVpdrbOYOYLmtWsW8fXH34tGdaxdOH/tdl5a1y7la0Uj811aiRcFi5Ws1bddr0OhJs5eu3fb7iUt3nr4OjmUyL+NVrlu9uXv+Y3r97/A8yGZaHv780r7lU4d079C8XpXSbgXMCZCcbB8zt3fxKFO5dqNWHXsM+nnB1mM3vaOYqshQ0C8uPA7/vwV4WQhDQvriX53dMmd4h6plirk6WhkzMVffnN7Q3M7ZzbNsjfaDpq4+cicghbEmp8fqSHUaJn8y/uoux9ulOf9IiY8ODw7wvrprwaj2VR2NDfR1dbR5fY8G5yraOrp6+gYmzjU6DJ25/tQjv8DQqPgUbiGS+GP2brg1Y/899+lhjAaJLeAmhvu/uHvl1J5lP/VrWbGgNoM8n5LF1KNez3GLd5269tA7KIZ/r0lW+vrSTPL1Gx+kSyIh0T43j26aN37A1w3LOhszAREGk8KVm/f4fubKHSduvorgcZPixOTq12YyH+R2Pzxl+i0NsU9PbZgxsEPDim7WTEMEOUcxdvCo2KBtr1Fzt5x6GEyiSCtLfGc4y/lfbkrPnew6Eb+4p/t/Hdy0fDEXWxNCRPgPnZ6ZnUvR0lU6fD9/9/UgVr0k80+5MyXkO6jNur9lSiLWdkhqQlTI2+enlg9r7m5qoEc3XXS0tHX09A1tqvSYtveBf3BkfCr/qBP5I/mus4k8h7JO8aXcuCXGEZsU6vPg0uE1E3rWdOJEiDRSxbZyp/Frjlx56BfJIyliUXPc5LgsYND8DNvfRSbR/96p7Yt++qZVJUde4ya9J9K5crvB01btu/IyisUCcUr4vZ78dnIZDqffLqqV2MeHl43u3KxaMXtCRNKdFBPncvXbD5i26fyrBEa96GTc/0Zu8xLjVeH87mJJkTtbfm5f3sPJUp9KKxPaxnaFPCu0Gbf2rA8rXuISPNtCTiNVr9I59iIKvSWSHBv29sm+6V1LGxvo6dBUl+MMRVtX39Ci3rA5R18GRdCWF4mU41Xls3Bg0fs5v7iQZ8nR/o8v718wuIkrd/vgj3/7FW/zw+pjN72Ck8gT4XvSx1wm47LArCB+boFKD318ZuucER2rcdsJ/sbIo2GfCSsO3HqTxHMibOGznGQxIj130s8TZIoEXd8x69s2tTxtSRF8tslZqFLTHj+uPefL9ksBS9pWSQZjsSmv3RWeuLsbvq9fuoiDKSta+HIPxcCmUIkaveYd9+NRFmrD5Epjif+DUGkz5h2rrcJprafEhvrf+G1gJQsDPY6rI1u0dPUNHet/v/7Gm9BYWvKCe7QDvzGV9PArtTqZX1kY0sJf3jy2fEhdeyYiyFWk2NUZsuLYrVcRXOclKImTC0h30Ok2Os0vLAQxz85snjWgsQdvhYaaWvLFmg6as+38S9qgAlrkWlNWqisNRt88Zh6c78113zOrRneq48lF8FAzHbtS9bv+tP4yS9hCab6frC/Na1TMfghkjOWr2BtrhtUtWciaq0+gqWaooW3h0s3H73jGBi8hLGI/aSvFLCm4gisY8klGUmTQoy0jqpoa6NJch+bzREfP0KbB2B2PAiMSaKDka/M9fqTkmu9aJQ/xw+bLglbYi6v7Zn5dlOvgkee90SKtf958/lEQW23yT+rCItLaV6Pb+CL3AOf9/PbNlR1zvqvvQowg3/4NaVOl++T1p70SeRzzR+LeSlJqixp2us9EN28lex2c269pWQcdqhnyO04sitfvNmXng3gey3yQcq6OdLJEf8Ab5iR5KOnRxiE1PQuacWIEgumfGDt4VO674mYcj2eer3E/qyeVUWSxgO0cefQPkOgQ7yMTGhUw1GOrLwQ4PdE1sKr5w74XwdHJbObMQ+EdDCUxfDy2sbiVF2ui/vdOLOpbyZSCBYEzKttj/rHbPtHESV4JGWUj/mGjW/MYcxKNz0beXNrw89dljalSEAmD4i2HLz78iDjJoyz5xVH0SdLiOsdJNCoz5MyC/s1KW1KdIDL6hWt2+nHbYzZ35YHodQ4iHy1dabhrUsLFuR3KFzKnMwKxzk7si9UevMmLyYnG9+IcshPzODH9if1/GtqVkRDue2pqU0sDXbZpQdyU2npGRbotux0Yxet+NVkyrpQX7ckApeNitv5pYkkr6uW1XRMa21KEICFabp1nH7rtG0+caKpu3Gou0o1cStdVMfx+6h4OcU+OLBvWpBAH2CFBhsXbjFtz8gUvj9eMRz31RTksnLayuqVmgUemdKpdxJCSA+kud5l61Os566A3u3U04PVwMQ4Jq6Pc4qZOKbcWdyztzH5fyCFOCpZo8OPRUJ56dQsZLLreqpbHGQ4mqmlNKyUq4NykRjaGdNghozjR0bes/uPJwEh68eoUPsFMXONAtypJohYZYU9OL+5WiMoCeQZKgTYzD9/jmnr1iZouqv06OvUvkiS5l+R1dHH/6la8rQpyZlim+4wdN8OpB+oROVdMl6jUv8svlutf/MrCPvXdDKgkgI59pfY/7/biCiZ1iFsmno5rzRf8Xrnjt7l/1SIW9EaA/01OCng2nng+muKQawlLzMXxkxt09eXXyrH02KDLU6qb6HMXCvD3zomOgX3LRY9C41k+z93K+SYXMayamw7257fKoWT/Wzu+8+TFh8Dn6VYfs/v2W86d5ELq1mLCX/IwGhXAL5Wzfyq82DutY1GOsQNfole88+zfn3KlcM6zZLeH4H/kn0L4nXKSI7eWf1vPiVUtIGt0XOr0XniDS/5yupB+qIjAf+BxkfxK2ZZ4bUYddyvWtYDs0LJwrzP6CI34HGaJm6BXtyZH8Rtlb6IZ7b+zd2FDXc6OANmn1DGwarP8YWgCR+KznSUnygi3X2IxiTlJdqT5X1vTxZ56AOSKYfWJJ59F8ZK97Mk4WkGoK+rGEzmRmp0cOfFrx8J0RwA1MK01/LdrrHVlM0vKCLQPNoU5SZaFHxjbvKgeFQBQ26JI+a6zL8ZSW7KRJScF2S/RmcS/CbIo9sTwqgW5EgVQc+fErEjNH69z92PW+yWHBZglZjNJkqwsa8W8PdrHyYDdWoBG0kTHyH3QkYCYNGqNSHvv5hNZ3fqizIi7W75x5WYtQLNcvt106x23q2RljetIWWEVJKMxnEz8koS764eUYjoC5AHdYr2WXOOft1nIkn3ugvrhvn/Hb/Lv3qzrW9WS0yNAXjEs33X+be6l/+Ka+25rAf1oPZiT/Huf/dh35W3Z9wvkKS3zos3WcrvsF6SsEcw7enW78Gt9vj+SGHptaGEDcgTIB0p962ZrfaLpwv+LxFW2wlgvMWj3jF/jc4HvfWpqVY6PAPnJsueG28F04T8rfr6dEH4mnSb3+S0+3dAKPjWrmQ0PMpDvKyfFei++xgWBnxM1xUQAP1KZ6/wSn1zZuju3XTHePgIIg0H5bose8MKsTwsblv8/kMVFblH7VMz/3sXDnA1bgHBoWRRrsz2U4vQp71rk969j+ztLkP9okERcG17EgJOIgODSRL9Al33+8fzz9x+86ubv1iD7VbwU86/Sg64tasR+LUCwXL8/4MNK198X5G/UyM+yZT2DTtZfJNxb3oOL4wFhM26x6HIC5eqv/wg+Vjr/VuQNBnPI/eNcD9s7qLoxzykgeEZl+23wZZ3rLwvzux3y7edoR5J8JHhOLUd2bAHioG1XbvA53uP7keR1+dTg1a4Zw7f/30APPfuNnR47tgAxpYlh2bmPozgJ/78yNtMwX36GGk/57v9c2Iq8v6S2Pg8mID5W7dY/imZy8qfwEfmwQK+sfJ5twH90q/x2jyjLEwmIlLLSqN2vKWZ/8O6W9293df+d65vfy3g0vZkjR0gAMS90OTaZcJN69mGF5VHjvN6Aarkpie9dlXC6d0kTnkRA7Iw8OmyPoKKpMu555u0Xb7BE9r2qjHj/XysYcoYEkAQtA5eh9yNlX9cy7+XplmCjUXJfWkx9fXxEAR4/QEoMWm3xl3tpy9xfMO++cN1uwfL+thPv/NrKmgcPkBrzjpvDZZ4lcXOs8uzrrnNH1sdEY44OrcreX0CS7Lvtk/mBucB+eVXeCu+V811oSRuaufBeRECqtAt2PCPr7VyZj2vmzWlrywWyXU3MjPeaV0yfQ+2AlGkZt7wRI+OVl8wrRfIks4fLdU6S8e7UCGeeM0D6jHsfeyfjMNmYF6fem8j0NWTpPlt602oHZMKh185I+e5QHaz5m2lLX5HnfTVec5vZsrIFyEfBHntlGyY+bTVd7Ww3yLIh9WpSSd7UDsiLdsHW+2X6mtj08+U1+92aTImXX4sk6no/e15EAsiPlmGlAxGybA6nb3bS5Ber10t2jZI0/2OduGYLkCvduuteyHEpJmW6qQa/Vdm9oiTN67eO5jxNgIwZ1Z37WIZ3c0V019xXanNGbr2nmQ2seJIAmTOoM+Wh/MLEq7TGlreWyurbzPSZVMGMpwiA0rjUqOdyi5LMwzYaSpJxUTL6FuMfDXOk1w7gTzpm392KkddFH0lLNfJvad2O3vLZtBV68XsmJAA+ZtH9gJ+sjsCHDTfUwAyv3CXZfIHBe/s7cYoEwN/DpM16LznNTB7UVv/bxi1WyqVRErWzvTNvawfwqULYeNZT+YRJxk71t0u+lskd/nF7WzgyIwHwmfUZs5Lfv5JNliQOUff35xIki2Mk4dtrGDIjAfAvdGz6XJTLW+AjPdX73VnulsEljqk+m+vzmAD4IuMWW18ly2Iv6zFbdX5vuoMjpP+Vea9qzg0pALJWFBv/eitBBlkS/aM6d3HVuif5SUnIb4052A4gy4wqj7wkg73Bzxqr7ysrsE7qd2PGbmtky6MBIDsM3L67K/l/ZaftdFHX96U/JEnSX1V65O6ahuzaApBdOtadL0VJfGqSMk5dS1zV/SWduf57m5MjAHLGuP2xt9I+aRLWQD3flOkJKTfb327qwC3yAHLOosvG15IOkwuWavmevpfw9C16e2sHngQAuaG0bbZQyifv0ser47RdnRfSPUhytm0B1rYA5Jpl9SXB0s0S76a5/4acj0l1UpL0sLcFJ9sBqGVmol9ieaBUl7kyTxTO7fdjPEWip3BSns2yZvgDUF+aVNsVINF/eSfOzOWb3rVbSPPisozXK2rqMPQBqJNx512h0jxo8qph7pZw7I9L8mtJ3tySo+0A1E3LqcdhSa5yZW7OXckclCLFb+VuFwe67QA0QMel/zMpVs24trn5VhwkuCchxWuUgzYDHoCGwqTg+JcSvDX4RS66JQbLJbfsl/l6QTHGOgBN8pj3QnL3FmZMyHl7uUWg5I4kHmjLjASAhmk1WBsgtX+Iv6yc02/DcY/EXhSW/nCkKydJAGic0qbLCYmtciWvtshhrn4bJq1vIm1VOSOGOIC8oOM6KlxaFdS/Y85StexlSU3Qkh40N2DfFoC8ouu5K0ZKRxYzD7rl5Gswni6lIEl9Ps2RoQ0gLxl3uxAnpX+PD9PPwZcgqbeUxGxoqM+4BpC3lB6TpXQf7uNSOfgO9kpoXnbnOzsGNYC8p990W6x0SumK7H8BLRIl8+dHLSmvy4gGkB+0CvR9JJmOSXTF7P75Drcks7x3oRHtdgD5RsdpdrhU9jAdN8nmpGyKRJpFGX5zTBjKAPJV08vx0qiokYOzd8i75kNp/N3xx9vpMYwB5C9l0Xl+kpiYZF4qkZ2/22apNG4EDppenHtSAOQ/y44XJNExifvZMBsJ2kQal289bmzOCAYgBDru0vgX+s1yWf+brTdLYCqWEbHYkQu3AAiFcYcHEgiT9B+zPi1pJIGNwImXvzZg7AIQkGKr3on/n+kvs9wt0T4k/iQJXVCaHcAAhMWs3y3xZ8nUrP61NZJEv8vgdm+6JAAER1l9fYzY6+tbp6z9rTq7xR6b8WsrcLwdgBCzxGGQt9j/qT45a39q6yCR99tffmvC4hYAYdIpc0TkCz9eJbPyd1rtEffu56Qz5RmsAITLZKG4/72eOC8LF60rO74R9R8ZuNiFkQpAyAz73Rb1287vZuE17/br08W8uHW/nwXjFICw6dfeK+YjF/Fjv3whVQMxH3TPOFmVwyQABE/LebKYs+RE0S/9gWYLxLt9KzNmjjH9dgBioNfaW7yLXAldv3S7YQk/0f5xKfc6sQUYgEgoy+yJFm25/f1LL6YdJdo/LW5bNR1GJwDRcJ70RqyrQLF1/v1P038q1iQJH1eIkQlATEzb3xNrxV39739Zc7Fu33rR1phxCUBctCvsE2nNjfzXFS6dw+L8q5J/L8krrgCIjtJuWqQoF7kyx//bHqf6b0X5N4XOdWBIAhAjw4EvRZklj/+l6uotFOXVMG+GcQ0wALEucrW7Jca6G9H/839SmRti/Ivuf80eYADiVfuICC8+TN9u9tk/aEisCJPkZG32AAMQMa0Sm0T4pt4H1T/39zjvFuHu5jUuvMAdgKgpbWaFi674Jv7wmdqrbCC+O4EDf2IPMADR0xkovhdi7XH+9N9iMFp8ewi+YQgCkIJ2N8W2kcuvwaf3A9sfFVvb50wzGu4AJEG71pFUcVXgjLGGn/xLyseJ7FzirtI03AFIJUuKbxHZaYwzBT75h0wU118Rv9SSG+UBSIbS/Fdx/Xs+tdan/gydx6L6I8KnM/IASGtiMl1cG7mWf+qPKC2qno/vOEPGHQBpMRovqsur/I0+8TdME1OUvOhryqgDIDXmw3xFVIgzP7HCZSKma2C8WjMnASBBJn0CRFSKZ/zzD2gRJJ4taM/KcaU8AEnSbeIvnhWiOwb/+PxzRLMNLeVicYYbAKmq+1g0tzsG1P7HCp1oXnqVsKckm4ABSJZ2/ctpIinHceP//uGr3RfLcZK1RUkSAFJe46p1WiRZkrH77xug+oSKZHVraQEGGgBpz0vKnhPJGtftCn/95IZzxdHoSZrH1i0AUqcscCJdFCU5rN9fP3jRY6L42JFzjBhkAKTP7pg43oa16K/v+ajnJ4rLUn6xZYQBkMO8pMQhUWTJWc+PP7XON2Jo8kTPpU8CQB60yh8XQ1l+1+jjD22xXAwd9wV2DC8AMqFd4ZoIWtgZ33381iiXB8L/xMkL6bgDkNEaV9EHIsiSFRYffeQqwv+8UfPpuAOQlRL3hb8n+IbTRx94qOA/bsQ8VrcAyGyNq57wX/geXfqjD7xB6J82Zr4jwwqAzOg1vyf4LOny0ed9IvSO+xJ7BhUA2dFv+UroUbLk/z+tucDPVaZtpOMOQJZrXA0CBR4lD/7/VsSGwv6kqQd4ZSIAmWov8AsS06z/91HHCvuDnuBWeQCyXeP6MUrYWdL8fx91t5A/Zua1WrwzEYBs2S1LFHSUTP/vBzV6KOSP6d1cl7EEQLaUbvsF3c4+9d8PWvGNkDct92JOAkDWWeJ5WchHFZ9b/udz9g4XcKNkGeMIgMxVEvKWYP/K//mUc5KE+yFPcxkwANn7Nl64VTr0P4cU9XcL9zjlkwZaDCIAcme2RrhlOm7Cn5/R8bRgP2L4YAPGEADZU5a9JNg6nb7hz+Ma5W8J9RMmLzVnCAGAQru9cF91e9zmj4/Y9KVQT5RcLc4AAoD3DCbGCDVKbpX74xP2DBbo54vvx/ABgD8UOiXUHcGvWvzxAcckC/TzHTZh9ADAn1pHC7RUR/T/8PH05gh1UlKdsQMA/6G/Tqh998kfDpLbrhfmp8uYye4tAPifwkK9mOQ3q/efzv2oMD/c41KMHAD4H51v4oRZrQ8Vef/pKtwW5GdLmUynBAA+4rxfmFFypcz7D1dPmLuVH9Rk3ADAx9OSHiGCLNfParz/cO1SBHk6cT7v4AWAv05LDggySoIbKxS6AwT50Z5WY9QAwF8ovxHktCS9o0JhNFGInyx1KYMGAP7G+oQgzykO0lWYzRfiB4viTAkA/EMPQW7immKssBLksZJr+gwZAPg7i3tCrNirLBV2gtxdNpIRAwD/NEGIFfuAvcLxvAA/V6wLAwYA/qmIEN+neMtZUeiBAD/XZiMGDAD8k/FuAZbsAHeFmwBPKKZ10WbAAMA/aXcX4F3uyZ6KYgK8t9i3POMFAD6l1GMBTkuqKEoIcJfyQVolAPBJ9hsFGCXNFVWF96EypxkzXADgU3SGpwmvavdQNBTeh4rpzmgBgE9r6iO8qj1c0Vp4H+oeR90B4DM8TgnwuLuigwBbJc4MFgD4NMOVwutwL1Z0FuAZfF0GCwB8xvfC23e7RdFdcJ8paRpDBQA+p63w3vF+TNFbcJ8p7DuGCgB8ToUngivbNxTfCO+AYiuGCgB8jt11wZXtlwrhvUTxSQWGCgB8jvaRTMEtJimGCPGOSQDA5yxLFVrZTleMEFyUXLVkpADAZ41PElzdVowW3Ee6wBsUAeDzhiQIL0rGCe4jnWKgAMDn9RbeC94VPwvtE2X8zkABgM/rECu8KJksuPbNFgYKAHxesxjhRcl0oX2i1NUMFAD4vFpRwouSGUL7RGnrGSgA8Hn1o4mSLy9w7WKgAMDntYohSr4o8zADBQA+r3MsUfJlZxgoAPB5/eKJki+7Ys5IAYDPGpdIlHzZgxKMFAD4rDVpRMmXvWrISAGAz9E+lkmUfFlQD4YKAHyOrfDeVyLEKEmYwFABgM+p9JQoycpu4I1mjBUA+Iw+wURJVlwqzVgBgE/T+TWVKMkKv5YMFgD4NMf9KqIkK1JG6jFaAOCTaj0kSrJmd0FGCwB8ivaARKIka8KqM1wA4JPrWztUREkWTeH17gDwCcoaQURJlu9OsWXAAMA/6Y1TESVZldaNAQMA/1TgKVGSdTcMGTEA8A9DM4iSrIvrp2TIAMDfWHuriJJsXJ5yyZExAwB/pf1zElGSrf3Ag7UZNQDwF8XuqIiSbE1LjhRh1ADAx3TGxxAl2RPZm2kJAHys9IVMoiSbjjEtAYCP6I9KVhEl2T1bMopLHQHgf5TVnqiIkmwLqMDQAYD/Ml2vIkpyYI8RYwcA/qNrAlGSEzH9GDsA8CfHhyqiJEcbgu+WZfQAwAd6q1KJkhx23tdZM34AQKHQ7h6oIkpyKLAnu7gAQKEofjqTKMmxC8UZQQBgNiVeRZTkWMpCbpsHIHta9f1VREkuJLXmtnkAcmd7LZMoyZXXRRlFAORN9xeBF2rhR0nqenZxAZC35uFESW6FDtRlIAGQMfczGURJ7g8q1mQkAZAvwxnxKqIk19K3OjGWAMiVVvs3KqJEHYfeJ3KvIwCZUpa7rCJK1CLqa4YTAHmy3JBJlKjJY+51BCBPY5NVRIm62iV77RlQAGSoUYCKKFGb+F+MGVIA5EZZ9EomUaJGwf31GVUAZKbA1jQVUaJODxtoMawAyIrZT1EqokS9zrkxrgDIiU4nPxVRomYZe0wYWQBkpIKXiihRu6RFtEsAyIfj/UyiRBMnFScwLwEgF86H0lVEiSb49uadigDkwW5xvIoo0YwnzbQZYABkwHR0iIoo0diW4FKMMADSp9vzrYoo0ZjMuy686x2A1Gk1DVcRJZrcEny2OFkCQNp06gWriBKNStntzjgDIGXade9lEiUaFv+bIyMNgHQpq5xLUxElmha3muMlAKSbJCVOpKiIkjxY41ppwGgDINEkKXw9TUWU5IXUFXaMNwBSpFXytgiLsjijRBW72IkRB0CCSVLlXAZRkmeiFvKGXgDSS5Lqp1NUREneiV7EG3oBSIyy3IVUFVGSl5KW0HsHIK0k8bybriJK8rj3vsyBkQdAOrTLPRNrPRZxlKji1xblde8AJJMkta9lECX5IGFPKe7jAiCRJKlzKU1FlOTLWcVzxRh/ACSRJA1uijhJxB0lqoyHJVnjAiB+uu2DMlRESX7JfNaMjVwAxM5ubKKoS7HYo0SletqFAyYARE1ZdHmMiijJX14D9BmJAMRLq9yeeBVRkt+CftJhLAIQrcrXU1RESf6LXWXPpmAA4qTbzC9TRZQIQdrxqnoMSADio7QZEyaBIiyNKFGpbnYkSwCIL0kKL4xQESXC4T2C5jsAsSm+O0FFlAhJ2GxrhiUAUakr5rtSpBklqoQdxTn5DkA8i1vmo3wzVESJ4NxpbcToBCAOOpW3J0un/EopSlTBY3lNLwBRMO5+V0LFV1pRokpYU54RCkD4ikx7pyJKBCv5Sht2BQMQOO06h+NURImAZYSMs2CcAhAy029901VEicAd9NBlqAIQKh2PTRmSq7sSjJKMO11tGa0AhMms7RXpJYkUo0SVGbisFEdMAAiQ0mmyT6aKKBGHxBsdGLIAhKf28Wgp1lyJRokqM3yOHRMTAIKi7TAjOENFlIhJ+uUWpoxcAMJZ27LveV+iQSLhKFGp3kzxYPACEAjdBhtiJFtupRwlqqSj7QwYvwCEoMiPT1QqokScHZPXc1wZwQDynWHbkzEqokS8E5PbbbktGED+0nZdF5GuIkrELHVNMW7lApCPQeL0XaBK6iQfJarMO98UVDKaAeQLpWXb3xNVRIkEhG9rwcQEQL4kSb2VfioVUSIJad6LHRnSAPKc+y/PUlVEiWQkP+xpxul3AHlJ237ksySViiiRkpQjTcwZ2gDyLEgK9nyokg3ZRIlK9W5OOV5kAiBPKB067E1VESVSlH5pKC0TAHnA4KtNgZkqokSi+4LDD7diLxcATSu59nWaSkWUSHdiErmjKKtcADRIx3na61SViiiR+CmTmaUNGewANEPbfcRLlfzIL0pU6fdGF2e8A9AApUv3C+kqokQeEk71tWbMA1A3iy67I1QqokQ2/feQPU30GfYA1KruzoB0FVEiJ2mhG4vRfwegtqUt3SLLQtNUKqJEbmJmlDFh/ANQB9PKv7xTyZiMo0SV/mxSFY6ZAMg1kxqzvFUqokSukm9NKcZTACBXDGrPe5ipIkrkLOHKD1ymAiAXyq+Uzf2/RMnnN3PF3+1vyf3zAHJCqee59F2KCrKPkg8ed3TS4ZkAkF1WtVeFU0GJkv9KPNjTlZkJgGyxbLDsLeWTKPlY2KFB9jwZALLMpPlyr0xqJ1HyN+En+9vydADImgabvemRECWfkBF78zsrbZ4QAF+g1K+yJSyNokmUfM6L/m7cQA/gX9k12h5DtSRK/k3KtZHlOQEP4LMzEseWG9i1RZR8UcK1qeVY5gLwKVrO3+5g1xZRkrWtwXcXVuScCYB/sB13MSSDGkmUZFFy0NYq+hw0AfDRypZe0SnP49n+S5RkS/q+Vs680ATAf1a2bGuvCaMwEiXZF3t0QGlmJgAUCu1CHddGUhSJkpyJuzCuLE0TQPbchx0IYWWLKMlFmNxZWJUwAeQdJD/diCBIiJJcduBDDjU0YnMwIE9K/RILXyVQCIkSNUi7Oagkb4EH5EfHofaOeEogUaK27VyPZ9a3VfJgAbIKEo+e26Mpf0SJWnmt7+XEfi5APktbxcedjKDyESVqn5m8u/ATr4EH5EGv8pzrsZQ9okQTMhO8l1ahBQ9InbZh6wPvkti0RZRoTsqlbz3M6JoA0l3Ysig78j6ljijRuEezW7kwNQGkGSTO7Ra/SqfMESV5ICPg9zFlOLgISI5uqeF7gilxREmeib2zsrExDx4gqRlJvaV3ouiQECV5KjX8ylBLXbomgDToWLQ7EpZCZSNK8kHoymauBjyDgOjnI1aVJj7nlVZESb6JO/djHY7BA+LukBRptzSQakaU5KvMp5sGlqAHD4h2RlJl3GFukCdKBLChK/z26vqscwFiZFBvxSNOtRMlQunBh14Z5sLL4AFxzUd0rHqeDqHVTpQISsyhrp7WHF0EREKvYM1f6JAQJQKU7rW6TxVebAKIgHWdYQd5WTtRItgdXXeW9/XU4zkFhMy40uANz1jYIkoE3YQPub2+mwUPKyBUBQbtfsi72okSETTho14srWvGSXhAaJS6Fk03+sRyXSNRIprJycsFtQoZkyaAcHLEqFCdpb4UJ6JEZOLPTmzpzpYuQBC0irSYeDaBukSUiHFq8vbY5GbcqwLkO8sGPx3x55ItokS0kl6dmtVYnycZyMeVrVJjD79gQkKUiFtmUtjDebXpwgP5EiO6dp0PvItnQkKUSCNP3qxrWcyGWx+BPM0RM/d2W3grIlEiKWnPfutfx4G5CZBH9D3bzb7FdIQokWDj5Nn2cU1owwOap+329a9nQjmISJRIdKEr/uXZeQ15KzygUc69113zT6PgECWSnpuEPlrSyEKXK+kBTUxH9F16730bnUqlIUrkIHRrn/LOzE4AdVIaOVccez6O+kKUyGmtK/j41HblrOicAOphULrtpONRlBaiRH4irq4b3cSWGgDklmHZvgsv8op2okS2c5PYl2cXfe1I4wTIxcJWie933wth3y9RIm/JkX6HB7jr67DWBWQ7RXQMPUeffRvHvfFECT5Iuf9rCw8bXUoDkGU6Nu51pj5g0y9Rgo9lPFk3pHFR7n4EssKoaKPBv91LpHAQJfiHVN8Tv35by4bWCfCvzGsPXHzch1UtogSfkx765NzqviX1qBbAJ2kV7DDvxNMIcoQowZcmJ9GBd1d2LaCvw/QE+DhFdA3LfH/iTUQyu36JEmQ5UO4t7VzOxYw4Ad5TmjiV6bPxNZMRogTZF3Z6bu8GHobUEch8OuJQvcu0YyFUBKIEOZX06uSSoY1deW8W5ErPs+OkHQ9iqAVECXInM8rr6q6xDXnVCeS3rOXQ9Od9t/yTqQJECdQiIz7U5/ikOmZ6nIqHPEJER8+8/rTTvmG8mJ0ogdrFXJjdupSzBctdkDJtM6dSbeZeiuWBJ0qgOUGnFg5oXsZGm4oDKTIr3qjfvOOBPOhECTQuLfDypqm9athQdyApuiXa/LDqtC+tEaIEeSbl3eMza4bUMqP+QBK0nFpP3n/LN57jh0QJ8lpqTLDPkUktnQx0tenGQ7QhoqNn02TmJf/wBGKEKEE+SvfZNaZJqUJW3NwFsaWIWYGilXsvu53AU0yUQBhxEnR++bC2NdyMKU8QB32nCs36ztn/hBghSiAsGZEPjy4f+3Ula1a7IGhK89JfjVi493oA760iSiBMmQn+D86uH9mkIJuFIcw1rQINhq85eed1DI0RogQClxYb6n9jWa+SJhyOh5C668al+q646hcSm8ozSpRARDOU8PNzO1UoWsCMGQryN0VMCxSt1HvJpUhmIkQJRCru0f7Z37aq5sYBFORfd332/ie8hp0ogdilh9w/unpCr3pubBdGXnbXzT501/dcD+CFVUQJJCM5+Pm1g/P717GnfYK86K7XH76a7jpRAml2T5KjQ95cWz6gmoWeDgfkQXcdRAlyNUV5tOmHZmUK2xrx7niojYG1czG660QJ5DZFCbu+aWKv5pULm5MnyCVT14qNu4xbfeplEg8WUQIZSgm6c2jNtIGtylizYxg5Yl6ySd8JKw/eeEOKECWQt9QInztnts/sU92e+QmywaxSl583nLr1MiSFh4goAf6Qnhj1zu/2lnHNXA11dbToyePznXVtXT3bekOWX3gdFBHPNVogSvApmWFXVg9tUtrNwZR3yONvIWJsW8izxje/HnudwYMCogRflBF+d8/sQe3qlLTnWCP+SBFL9yrNe0/eeOENKQKiBNnKk6gX57fNH9OzUQlLmihyThG78q0GTF939F4Qx9ZBlCCH610J77xunt4xZ2BjDyOqqtzYl63Ze9rOc3d9IkgRECXI/QQlKSY0wOvcyqFNChlyUl7ilB/66iblu07efscvMDgqkRUtECVQu+i726Z0r17C1d5Ml6ortRAxtCroXqrBoIVHvNjfC6IEGpceeHXnvKGdGlV0t9OnAkshRIwdS9X+qtf4VUcfRjILAVGCvJToe/PYloXjv21Tw92UNS+xMixUpe3Ayct2XXgWxiERECXIL0lhvo+undg+b0SHSg4cRRHTzizb8q0Gztp87PID3whu8QVRAiHISIoND/J7fGz5iNalzfV0dbTZPyzMlSxtHV094xKthi34/ZFfYFh0IluzQJRAmNICzm+Y3Kt2KY9CDpZG3BMpDDomNk7upWp1nbj+3Gt66iBKIBpRLy7tWT7hu6+b1SztakN3Pt/mIaYFPas27TR4+rqTjzkeAqIE4pSZEPjk4sGNCycN7tyoQiFjSnue0bMtUfOr3iNnrNx95v7bREYiiBJIQGpkgNe9y8e2Lxzbq4EnN7Fosp1uUbxup+9nbzh09ubj18Gx7O0FUQLJyUiOiwx56/vwwvYFY3s1LWVr8KFFr82t9rk+oP6hm+7eqM+EVUcevg4IjohNSuO9uCBKIJvlL78b+1dOGdS+Rpnibs72lib6hEqWaRuYWhdwcfMsW7f72MUHbgeyoxdECeSeKXFv7p/duWL6yN7tm9WpVMLFxog1sM/1QCwKFi1TrUHrzv3HzV67/8LDAPogIEqAv2dK4ItbZ/dvXDprwoj+3do0ql7GzcGMWFEoDAsUq9KowzejJs//bdexyw98wtnSC6IE+GKmpMSGBfp6Pbp99fyJg9tWzvl5SM829Su62cpqW7GBvWf15l0H/Tx3ze6j5288ePEmNI7bTUCUADmTkZoUHxMZFhzo7+v9+PKBDQsmDOvZul55Nys9PV1dXZ0PnXstpbjbLEqllpa2jo6urp65a6XmPUZMW77n3ENvv4B3oRHR8TTRQZQAmpMe/ebxlWM718z7eWivNvXLly5RzM3VycHO2sLM2FBPyCfttXT1jcwsbewLOLm6FfUsVbZKs+7Dpi3bcequfxypAaIkl2sakdH8LMjFAIoP8Xl09cS+bWuXzpny44j+3bu0/6pZwzrVK5bxdC/kaGNupJtvMxelgZl1gUJFS5arUqtB0686dO075IdJc5at23Hw9LX7XgERyfx4yJK0t8K7skB4UZJ28McnXO0ANY6ouPDA1y8e3rp05uj+nRtXL/n1lyk/jx055Lu+3Tu3a9WkXrXyxV0dLAzUfNuVoZm1fUFXj9IVa9Rr2rpjt74DRoz5efovi1Zt2PH78XPX7j71CQyPp+OBHAlZOyaWKPmi1BXGtbayOx4alJ6SGBcdHhIU4Ofz8tnDuzcunzt59MC23xb/MnXST+NGjxgy8Nu+PTq3b9GwZsWS7s62prrv5xP6hiamFlY2dg6OTi6uRYp6eJYsVb5y9dr1Gzf/ql3HLj37fjtw6MgffpwwZf6y1Ru27T1w6NiJ0+cuXL5++96jZy9f+weGRMQkpLBoBTXIuN7FvkYUUZKFKFEorfq+46oH5PETmpacmJAQHxcbGxMdFRUZERYa/C7wrb+fr4/3q1evvL19fF6/9vX19fN788bfPyAg4G1gUNC74JDQ0LDwiMioqOiY2Li4+ITklNS0DDIDmpIZ/0tBXUU1oiRLUfL+H4FF1oYSJgDwcZBE/F7pwwEroiSrUaJQmPY4y/ErAPj/4nh1sPUf5ZEoyXqUKBQl54YwdgDgT8HzK/znzgeiJDtRojDveJY9LgDwoTKe7mD+39pIlGQrShQ6rjPC6GACkL3MwLFOOgqiJGdR8l6FEzGMIgDyDpKw3W4f10WiJNtRorAY/4hDJgBkLP7SN389Q0uUZD9KFPq1V4cxlgDIdUriPaP0366SI0pyECUKhX37SwwnALKUsa+e2d9rIlGSoyhRaDuPD6H9DkB+QeI30P6f948SJTmLkveKrX3L6XcA8gqSgGVFPlUPiZIcR4nCoP2xOEYWAPmIPtL20y8MJUpyHiUKhcuPdzmxCEAmki6PdPpMMSRKchMlCoOqCyMYXwBkINNnfGk9BVGiiShRKM3qXuetWAAkHyRJK4sZff7VakRJ7qLkPb1BDxMZZwAkLD1kd0Wtf6uDREmuo0ShVXLBM2YmACQr6mBXs39/4TNRkvsoUSiMGq4MZbQBkKSUK4NdvlADiRK1RIlCYd3+QAIjDoDkZL4cX1ZHQZTkTZQotG273GdjMACJBUn8klJGXy6ARIm6ouTDzuChz5iZAJCO9JCDpbJU/YgSNUaJQunxyyPe/g5AIjOSiENdTRVESZ5HiUJhWGeBPwMQgBSmJOcHFFIqiJL8iBKFwqLhjnjGIACxezm+pHbWKx9RouYoUSht2l5hlQuAmGVGrShjmI26R5SoPUo+LHP1uMfr3wGIVdq73eWyV/SIEk1EiUJRYPwVwgSAGKX7bW+vpyBKhBAlCp0So8+nMiYBiE3Qb22ts13xiBINRYlCoe855BGjEoCoRG1tapeDekeUaCxKFAo99x98eGUvALHIjNvXwFqpIEqEFSXv2Y56zNZgAGKQGrSzqjKntY4o0WiUKBRFZtwiTAAIXZrP5q90c17piBINR4lCr8LPN7jnEYCgBaz8yioXdY4o0XiUKBSGZcd6M1IBCFbEhkY2uapyREkeRMn7MCkxxY8GPAAhyozdUddSqSBKhB8lH96NNeROdCaDFoDAylvglgq5L3BESV5FiUJh9/3JEKYmAIRU3F6tb6atIErEFCUKrUJ9d4QzdgEIhd/S5uZqqW5ESR5GyfswcfpqZzTDF4AQ+C+tZ6Wm2kaU5GmUvA8Tm3rbY+iZAMhnGW+mlDFXKogScUbJB57LfBMZyADyTXr4re9M1FrWiJK8jxKFVsV5tzkCDyCfguT1nr426i1qREl+RIlCoV9x3JkkRjSAPJf5aklrW3WXNKIkf6JEodAr3udwLKMaQN7OSJ5PrWuh/oJGlORXlCgUOnYNN8fTgQeQZzK8hrkbKxVEiZSi5AOXuU+jObYIIA+kvTvVQ1dTtYwoydcoUWgVGXU0iDEOQMPSn29oZ66xSkaU5HOUKBRK526b/FjnAqBBKQ/mNzLRYB0jSvI9St6HiX2j2a9Y5gKgIWm3Rlcx1WgVI0oEECXvw8TEbaRPBlMTAGqXmXG3Z0EDDdcwokQQUfLHO02+2u3DuUUAahX/aktD/TwoYESJUKJEodCtOPViMAtdANQkI+Ti5HLaeVK+iBLhRIlCoXTvtfppOg8AgNxLf7m2j7syj4oXUSKkKHkfJtbVhl1N4SEAkMsZyf3xNW218qx0ESXCipIP93M5tdgRRQseQI5lJpzqUtgwL+sWUSK4KPnAYeTdkFSeBwA5mI9Ee80tmdc1iygRZJQoFJad191L4KEAkD3prw+McFUqiBKi5D+Mqo4+FsaDASDrUu7P/cpemQ/1iigRbJQoFNrubRa9ZncwgKyJPzG4snH+VCuiRMBRolBombn1u5hMDx7Al2SGLanpoJdftYooEXSU/Hl58A8XAnjlIoDPi/XZ28k0P+sUUSL4KPlwqUq9eef803hcAHxCyuvj48rq5G+RIkrEECUKhXahDr+cjeOZAfA3MWdmtLbP9xJFlIgjSj7s6PLsuOQ5UxMA/y/TZ1Xr4kYCqE9EiWiiRKHQMi/ccXciTXgAf+RI0pm+HhZKQVQnokREUfIH2/5HfVnpAuQuJfjWVBfhFCaiRGxRolDoVRp/wjuZRwmQr8iry9paCaksESXii5L37FtOPhTA4wTIUvKjdQNK6girJhEloowShcKgSP0xxyJ4qAC5Cd7Yu4qNltAqElEi0ij5kCb25YaeTaMLD8hGZtzpASWsdARYjogS8UbJHxwHHvaO5J4uQPIy4t6c619QqJWIKBF5lCgUOp4Dd94JJ00AKUt+emB8VT3h1iGiRPRR8uFilUrfLLnM200AiUrz3Te+vrWgixBRIoUoec+8dMf5d7n0EZCe+EPf13PREXgFIkokEiUfLqR3bjDXL5M2PCAdman3J1W01xd+/SFKJBMlf9CtNPN6QCIPICCBGEkIvDuhlJY4Sg9RIq0oec+47qzjL2icAOKW9OzI9MYmoqk7RInkokSh0LJvPGbrKy4RBsQq5fmOcQ3slCKqOkSJBKPkPe0Ctfuv9yJNABEKWP9NjYLa4io5RIk0o+RD28TKtcnyl+k8l4CIZIbv7lrMSld09YYokWyU/Hl+scSok76RzE4AMSxrhT7f3NxEnKWGKJF2lLynLD1w3WU/ZieAoKUFnF/W2VEp1jpDlEg+St7T82g37fdXKTytgDAl3t8zo1MRbREXGaJEDlHyoXPiWrvf6pfc1AUITsKthR0rO+uLu8IQJTKJkg99E0u35ote0DcBhLSudX5cdWczpejLC1Einyj5s3PiMebU6wjyBMh3Se8eb+5mK5HKQpTILEo+rHV5frv2ij+dEyD/ZMY8OTa3pZ10ygpRIr8o+XAevvjXk3c+TOaBBvJD5PUVg+vZKqVUU4gSWUbJh11dBat0nnshmqcayOMcOT6xTVkLqRUUokSuUfJhbmJasHS/fSE820BeiTg0yNPBSCm9akKUyDhK/qRfafzp1+G0TgCNyoh7e39eQxOp1hGiRPZR8mFbl2fvpSefxvK0AxqqIYE3dv9Uz1jCRYQoIUr+XOwqUH/4ivPvOMMIqFvs3e1TupQ2kXYFIUqIkv/NTcxLNB62w4fbugD1LWsFHZ3SupKjruTLB1FClPxlX5eNe9PZt5mbAOrIkacL2xZzMJZF6SBKiJJ/su++4cHbuExKAZAz6TFv7//WraBSPkWDKCFKPsmy3oQ9132TqAlAdiV5X9r8Q11jeVUMooQo+Ryjkm3HrLscTO8EyPqaVtjV9WNbuuvLrlwQJUTJv3XibUo3GbT6PpMTIAvSvHd+36yMrZYcawVRQpR8ga5loSpDdgXSOQH+TeSh8fXdbPXlWieIEqIka/OTkoN3Pn4by2oX8Pf6EBXwcMugsjryrhBECVGSZVZ1xmy9+DKO2gH8R3rIg+MrBtcwojoQJURJts6duDUbtvyMXyo1BLKXGXZj+/Re1ey0qAtECVGSA+bF6/ddcCWGUgIZi7u9bniz8gV0qQdECVGSczpmTuX6rrjPqXjIUZrX+l5lXaz0KARECVGiFhbNp530ehdHLx4yWdJKCPW9OqeNA0taRAlRou6dXQVajN9y/lkke4UhbekRXld2z/i6mDYPPVFClGiGbqH6A+buvRdNnECaUgIub57ev4mHPg87UUKUaJaBS+WWozffT6DsQFqSn+6a0r1haXs6I0QJUZJXcWJTqFz3ZbfjKT+QhoTLi3tVLGxrTG+EKCFK8r57Ylxp4Mb7fqHxrHdBpNJig19fX9m/vJ6S55koIUrydYJS8uvJOy8+C2VzF0QmKfD+yfXjWrsxEyFKiBKBdOOL1O87ZdOlNymUJ4hD7JPDy8d24fw6UUKUCI22XekG3SZuuxdNmYKgJb84vHBom+pFzIgRooQoESYtI5tCpVpN+N2Pw/EQogyf/dM6lS/iYE5rhCghSkTQjteybTBq2wPfkNg0qhcEkCAJ4W9fXlz6XQ1zJRFClBAlIqNfvPWYdSduv45hfxfyTWa0790z26b2rGFDiBAlRIl45yc25VsPmbPzCg155H2KxDw/s3nm4DaVCtAUIUqIEilMTwqWqd/55623uL0LeSXh6aGFg76q6Wmvw/NHlBAlUpqeGNm4eDb7aZ83r9KCZqW82DelfanCDua8YIQoIUqkGihKLeva32+58zo4hoY81LqalRwd8ub52cX9Kxsr6a0TJUSJPFa83FqM/u3olSdvE1jyQq4lh766c3rn/OFty5jzbBElRIncJihmHnW6jJq76eSjMK5cQc5khD09v3PhuD7NKxTg3SJECVEi5/mJnUe15j1/WnP6dRKFEdmQ+OLU2ok9mtcoUdCIx4goIUrwnpahlaNb+XY/br7LpSv4clck8NyqUa1KFXG0MmKTL1FClOCfPXmlrkvjEWsuevmHxqbQRcHH0uLDA30e7J3Rq5qlFn11ooQowZcjxbJcuzHL9p9/8CaaLgpUGbFvHl0+vG5Cj9ouHBIhSogSZI+hS7X2g6etOXTnbTLVVK4zkfCXVw+tmTGsQ013E+YhRAlRgpzSsSxSqdHXQ2ZtOv2Eo/Iykh784MTGWUM7t6hTtoglUxGihCiBOha8dE1sHAsXr9btp9UnX3KXl7QXs0Jv7f51eNvyxVwdrU24CJ4oIUqgmb68lp5rvT5Tt1554RsUHpvMREUK6ZEUExbo++LqzjkDmpUw1aKnTpQQJcizUDEpWrfH2EU7T1x75BtGL0WknZCYty/uXDiyec73Xeq6mzCoiRKiBPlE26p4rTbfjPt1w6GrLyLY7SWaTkj4q5tHNy+cNLRzowqFTBnGRAlRAkHQtylctlbLbiPnbb34MpZFL8EmSKT39SObF00c2LlFnfJu9kasYxElRAkEuOilb2br5FaiRvvhs9Yff8DFXsKZgzw6vXX+2B6NKxR3cylgY27E3e9ECVECMWSKUqmlpWVYqGrboTPXHbv3yvdtSERcEtGSR8mRFBcVGvjG+/nlvcsnfteqsrOB1h+tdOYgRAlRAjGzcK/Wqs+4eRv2n7xy9/mb0IQMyr36ZaZEv/N5cvvSyX3r543/rl2dkg7MPYgSogRSpGdTtFLD9n1HTV24ft/Z2y9Donj5Vm4nIHHBPo+vnzm4Y+2imeOH9PiqTrki1tz1TpQQJUSJLGgZ2rh4VqzTrFXHXiOnLNr0+/l7PpGkSpYlBr24dWb/+oVTR/fv1KZpverlPAs7WhmRIEQJUUKUyDZU9I3NbRycXN09y9Rs3Xfc3LW/X3oeyrvnP/FUhHpdObxp4cRBnRtXLFnMrVBBe2tzY30uNCFKiBKiBH+j/LNbr6Vt5VGjeZcBY2Yt23Lo/P0Xr16/eRsUEh4VG5+UKu0uS2ZackJsVHjou7d+r1+9uHtm77r5k4b1/KpOWWczba3/tM7pnYMoIUqQfTqWzsWrNGjdtf+oSXNWbNl/+OT5q7cfPvP2D46MF/sbVTJT4qNCA31fPn1w++qF08cO7Fq7aPrYgT3aNqxS3MmcGQeIEqIEmloRM7Zx8ihXvUHLjr0Gfj9+6q/L123bd/TslduPX/mHxiQLPjqig994Pbxx8eTBXZtWL5k7bfzIQX27tm1Wr1pZDxc7Mz1+XhAlRAnygb6pdQEXd88yFavXadS8dYeu3w4bN/XXFRt3HTh+9vLN+3/MXRLyoaGfnhD5zu/Fw1uXzxzZt2Pj6sVzp08YM3xAn64dvmrWsHa18qWKFXaytTBmsy6IEqIEQqStZ2BsZmlj5+Do5FzItYi7RzHPkqVKV67TtE2nnv2HjZk44/00ZuveI2eu3Hn8KiAsLneHJjPjw4N8nz+4efH0kT3b1q9cOHvqT6OHdPqqUa2ypUt6FivqVriQc8EC9rY2VhZmJkYGejq8Bh1ECVECcVP+l9Z/af9B18Tcytbe0dm1SNHiJUqXq1C5Wo3a9Ro2adaydbuOnbr26N332wGDhg4d+E2vrh3btGhcr0aV8qX+vH1E/8///n//O63//P/5qkGUECUAQJQQJQBAlBAlRAkAECVECQAQJUQJABAlRAkAECVECQCAKCFKAIAoIUoAgCghSgCAKCFKAABECVECAEQJUQIARAlRAgBECVECACBKiBIAIEqIEgAgSogSACBKiBL8H3v3GV5FtTZgeHZ676QQQu8t9N4DoQlIlSYCIk1AiiBVAQEBFZEqIAhIRxAQpffeCS0QQmhJSCO9Z2fPF9TzHT0SSdltZp77h3/1kjXvw5o1MxsASAkpAQBSQkoAgJSQEgAgJaQEAEgJKSElAEBKSAkAkBJSAgCkhJQAACkhJaQEAEgJKQEAUkJKAICUkBIAICWkhJQAACkhJQBASkgJAJASUgIApISUkBIAICWkBABICSkBAFJCSgCAlJASUgIApISUAAApISUAQEpICQCQElJCSgCAlJASACAlpAQASAkpAQBSQkpYKABASkgJAJASUgIApISUAAApISUAAFJCSgCAlJASACAlpAQASAkpAQCQElICAKSElAAAKSElAEBKSAkAgJSQEgAgJaQEAEgJKQEAUkJKAACkhJQAACkhJQBASkgJAJASUgIApISUkBIAICWkBABICSkBAFJCSgCAlJCS3FOykoUCALlrREreLGs9CwUActcqnpS8UfYuFgoA5K5zAil5I81BFgoA5K5PEil5sxNmrBQAyNX7yaTkzc7Ys1IAIFdjUkjJm10uxkoBgFx9lkZK3iywISsFAHK1PouUvNnznqwUAMiN+VGRlLxZ/DiWCgDkxvMiKcnLO4pfslQAIDc1bpOSvNjgwFoBgFy0CyEleXqxpAprBQByMeolKcnTuXsn1goAvJ7F8mxSkqfDkgkWrBYAeK0Sv4ikJE9+8GC1AMBrNb1FSvLmRmVWCwC8Vv9EUpLHjwN3N2G5AMBr2Brj0DbOlIhbbFkvAPAapY+QkryKKs16AYB/UrWMJSV5NoIFAwD/ZDlTJCV5dp4FAwD/5HiTlORdXDNWDAD8Q3MNKcm7zDXWLBkA+B+qNSIpyYcHbEsA4H+VfU5K8iNtEc8DA8D/mJVOSvL3xnsjFg0A/E25SxpSkr833ufZs2wA4C9MpyaKpCR/AhuoWDgA8F+VT4ikJL++4yEuAPgvm4+TSEm+xfuzcgDg/1W/IZKS/Dttw9IBgD9Zzc8iJQWQOsWMxQMAf6idIpKSgrjfmMUDAL+z3SeSkoJ9PmVTMZYPAORQvZtMSgoodjzvvAPAq9tbxvp2ogRSIj5uwsslACC4rc4QSUmBXSzKEgKgeFbjk0RSUgiLrFhEABTOpM0jkZQU6kXFPqYsIwDK5nNIJCWF+6zjLV56B6Bs1qvUpKSQsg5XZyEBUPLtrRlJIikprOxtpXiMC4BiWYyIEEmJFixzZTEBUCjzt+6JpEQbMqaZs5wAKPPuVv2TGlKiHVFD+bAjAEUqfzxbJCVaeowrZACPBANQoKLHpFASiaRE1Dzrb8GaAqC0u1uVTkiiJFJJiSiGvMM9LgDKYlrzoFokJVoV3Il1BUBRe5Ia+7NEUqJlt9uwsgAoSLnDUimJlFKSfZEfVQSgHEWPqUVSooOz93ONeY4LgELubknlxF1yKRHFkw1MWGAAFEA6J+4STIl4pBorDIAC9iQ1JXPiLsWUiAdLssYAyJ6ETtwlmRL1vrIsMgAyV/qkWiQlOn2O61gdzt4ByJl5s+vZIinRsTN+vPcOQL5sugdIbi5LMCXitbdYawDkymr4A5GU6MOdbqw2APJk9nG4SEr0867i/b6clwCQI8tPo0VSoq+WhI+0Y8kBkBuV19IkkZToz8uJjqw6APJiUn5tukhK9CnxMwfWHQBZqbozUyQlem7JXDcWHgAZqX4oWyQl+pawzJulB0AuVK3PqkVSYoCPqBzkxXcAMuEw/KlGJCUGca+DBQsQgAx4z0uU8jCWdkrEJ4PsWYIAJK/K2iyRlBjuBZOw6R4sQgDSZtLmgLRLIvWUiGLcKg7fAUiaRa/bEi+J9FMiqs9W51d6AUiX6+Q4jUhKDC6ojTWLEYA0qcquzpb+GJZDSjTBQ51ZjwCkyKzxPrVISoxD2Gx3ViQA6bHqdjFTJCXGIn6nD2sSgNRYT3iSLZIS45Ed1JIDEwCSYurzc6Y8JrBsUiKKUVOK8SQXAOlweOuKRiQlxiZxcwM+yQVAIlTe00JkUxI5pUTMutyP5QlAGipvjZPP9JVVSkQxdBa/hwVACtpdyxRJibFK31vLnDUKwLiZuM+M0oikxIjd6c+PvgMwamYNtqbLbPLKLiVi7BfFWakAjJdl/ysakZQY/U2u7Y1ZqwCMlceMUNmNXTmmRMwMGGLHcgVgjEzq/pQgkhJJ0KT/VInTdwDGp8hHYdkiKZGMJ/09VaxaAEbFss7ObHmOXLmmRIxbVd+ChQvAiHiNuKURSYm0ZFwewYkJAKNhWndDlFznrYxTIorRW4uyegEYB9X7dzNEUiJF6vv9HTkxAWB45uU3p8p42Mo7JaKYuKqOGYsYgIF3JG4DA7JFUiJd2Rfft2cdAzCo2iti5D1pZZ8SUYxaWoufxAJgOHbvncsSSYnUpd8Y48RiBmCgm1vV1kdoRFIifZqM0y1tWdAADBASzwnP1fKfsopISY7kBdWtWNQA9MzZ76giRqxSUiJmXhrlw3PBAPTJrMaCUJGUyEvMz2/REgD6Yz/ibKpISmT3XPCTr3j7HYC+lN8TrRFJiQxl3RlYhAeDAeieadEpodkKmq6KSokopu9uzYPBAHTNudvxLEXNVoWlRBTDvmzGg8EAdMm8/jdRCpusikuJmHlrfjVT1joAHVGVnX5ZLZIS2Uu5O43vcgHQDesh5xM1IilRgoy773vwxWAAWt+R2De9kK5R4FBVZkpyYnKirw/LHoBWQ+LQbE2iMkeqUlMiionbu7iy9AForyT15z/UiKREYTRP1/lbs/oBaEfxjy9nKnaeKjglopj5eF0t1j8ALbDpczJewdNU0SkRRXXixsYOvAAPoFBMHNsfT9OIpETB4jZ34tNcAArO1KvTDrXCBykpEcWYLT2K8tFgAAXj9s6P0Yofo6Tk1QF82M5BRbggAOSfTaftzzVMUVLyx5lJ5IlBFlwUAPLHosW2p9lMUFLy351J2rX3vKgJgDxT2TfanaBmepKSv8u6+lFNGy4PAHlh4tZqdRpzk5S8RvbNz1ryeyYA3szl7ZWhnJGQklxk3l3bw4GrBMC/su+y5TFnJKTk32ISdrQnt7kA5M6m855nhISUvOkEPuXmhyX5OheA1zF36XE2hZCQkjwJmlXbmdcWAfwPqwqDT3JEQkryvjW5v6ijKzEB8BcmdSadSmE8kpJ8PRv8aEs/O64dAH8yqz37UiqjkZTk+9ngFwd78yvwAF4x9V12lx0JKSnYba7U68OK8Q48oPiOONTZHp/FSCQlBXdvdDXucwGKvrNVstv2ZGYhKSmczKszm/JsMKBUJuVH/BLLICQlhZcesLyRGVcUoMQdSdUpRxIZgqRESzuT+6vqEhNAcaosupXIeySkRIvPBr/c2sCOF00ABW1InJptSOCsnZRo/T7XGj93E64vQBkhqdD3lyTGHinRxbPB4d93c+USA+TPus5HJ3gdkZToSvbTrR15mguQe0jafsN77aREtzF5srmpOZcaIOOQdPnlcTqzjpTomDpuRwNbDuABOVLZlh17M5lvyJMSvUhb1sSFmAByY1q02bJQBhwp0d9trseL2/Ir8ICsmFcZsjmS6UZK9CrrwZZ3i3HxAXJh0XDBKb6PQkr0TxNxYV51U65AQAbsOm+9n8ZUIyWGiUlmwuGu7lacmgBSZmLrPTkgRc1EIyWGfJ7r3qwWxYgJIFVmJdp+G84kIyWGF77jfV/eWwSkyLLGmD3RDDFSYhwSzi3u7MhVCUiMc6dF53irnZQYkfRnp4YX5coEJMRz0vGnvNVOSoztDD7t+ffN3PimCiAFVu5tN0ak80skpMQoZZ0dVtOF79ADxs3Uo970a/wQCSkx5pjcXdqnHA90AcbLpu4H658wq0iJsd/oijgysyVn8IBRUvn0+f5yAnOKlEhByqPDkyty0QLGxrL54kvhfPaXlEhna5KecHBQKXs+qwIYC3PHih/fSsrkpJ2USM2Lzf2qOXMIDxjBfS3XOkP2xjOUSIk0ZV9b8q6vFdcxYFA2vgNW3OcbW6REyne6Ys5918ubR7oAg3Hru+LcS+5rkRKpU4ddXNySrQlgCBZ1vzj/IpMxREpksTXJTAqc4etkweYE0OP5iJVz1dlXEzloJyWyknxsbOOiZlzfgH7OR8q1nn6WL2yREjkK3TzarygPCAO6ZlWp2+zj/LouKZGt1MC989q7c6UDOlRywLLjYbyISErkLe3J+aWdHLjcAZ1w67H2WgTn7KRECafwWckv1ncr5sDBCaBNpnaeb28L5UfaSYmievJix5C6xSy5/AGtMHGv1W99KE9rkRIFerxj8lvlOIYHCsusuN/w7+/zCySkRKkynxz5uldJagIU4r5W6V5f7w9MYZyQEkXLCLu+8T035gFQEKrKo7bfCMtgkJASiOrUqL1DyjtZMBeAfNzVsvNo9vmVhDQe+yUl+K+EI2Oblueb9ECeWBev8+6GR1SElOAfNC9PLR3Rqrg5YwL4VzZVe366+zEP/ZIS5Cb13v7F79fhGWEgN3aNx6w5/YL9CCnBv8uMCjzyub8zIwP4xyG719tfnQ6KpSOkBHm61ZWRFP7rqGoutjwmDPwREUsH91bzzkYn800UUoL8SQ9Y0a9uCVt+5QRKZ+FRte3kPS94lZ2UoICe7P28f8Mi1ATK5Viz28QfrqUyDEgJCnWz6+X1HbO7l+BWFxTIrGTnaT+eD+OLKKQE2qhJ6vMb20ZU5hVGKIp1vfG7bzxN4rYWKYH2qFPjH/08rWURR2v2J5D7EbuFvWvlEdtDEnmRnZRAN/uTmKML3qlf1oWfOoFcM2Lr49t24tYHvH9ISqBjoUeXj+1a05VvrEBubMr7vz/3p7vpXOSkBHqRGXp++/xBDfhdX8iGeaWuU9ceCeJohJRAv9Ij75/7fngda4YQpM60VM8Fh289T+JohJTAILJSE0L3fNzEy9GK212Q6AF71YFr7sYlZ7AbISUwME3k4c+71i3jQk4gpYzY+fi2mbD9IV9CISUwov3JsyNLR3Wp680n6iGFjDhV8R/8xe67vMNOSmB8Mp9f3rNiXMfyVowqGC+TIg0Hzd9yMiiZK5aUwGhlxz8JOLZiSC07RhaMcDfi1WHGzksPInncl5RAAmcnWakJYce/7FHaxd6SL0HCKJ7RsnZwqzVi3c2YpHQe0yIlkJaM+zumd6pTrggf74IhdyJWHhUb9p5/IIxntEgJpHvD6+nxNZP7NC1jw/YEBmBXruWA6evPRXElkhJI/4ZXzK2DP3zWp5YTkw165Fin38z1h+/FsxshJZBPTlLC753bNrNnRUtGHHR/U6tk5ymbzt57kUpGSAnkR52eHP/8xJL3a7s72VrwQiO0zsTS3qX4W9N/CopNSufbvqQEct+ixF5cP6lT/Ure9pygQFsbEduilRr2+GzHHd5eJyVQ1BYl4tKO+SO6NS5rzxhE4Vh41+40bO7Wi9FcVqQEipQZfvPwxrlD/StwhIKCbUaca/acsnLPxadpXE2kBMqWHh0ScOr7CR1K81u/yA97335zdpy/G8rH4UFK8KestKS4p4eWjvIv4epoa8mZPHJlamXv4tNi7LpLL+KTM6gISAleR/3k+JopPRvXKOtpx6E8/s6ySJkazQd8sSeQ21kgJciDxMCjG+eN7OXn680pCn4/Wvep02Hg1DWHHyTzrghICfJ10ysq8OyeNZ8P71TTlQ2KgpmVajXws1W/XAqhIiAlKCBNWszTuxd/Wzb2bV++vKI8js0mrD52PTgyhYqAlKDwQclMS4qPeXhk1cfdaxV1cbC1NGOfIueTdUtbR1fvtyZtvBadkJZFRUBKoH1pj46smznYv361Ml4OZoxdmd3McvKuUKtpvxnrTj7l4SyQEuhcdkTA4U1fjh/YpVk1bz5hLwMmTuUadBww4ZvtZx7xk+sgJdDvja/k57dP7/nhq0nv+lUtwiuO0qSyL+83YPK3mw9fe5zIVgSkBAaTlfgi+Palwz/MGNiqDE8PS4hVmdYjv9p19mZwRBJf8gUpgXFsUbLSUxJjIwN++37mB22reLo62dtYmvHivNHdyTK3snVw8ajWbfKGC6GxiamZ7ERASmC00p9f/nnlZ0M7N6lTtYy3iw1JMfyRup17yUq1Gnf5cN6Go0HJrFCQEkhIyrMbR7cvm/XRwO5+9SoW5SdSDMDctXQtv26Dxn+xbv+lkCSWJEgJpHv3K+XF/SvHft645LNRffxrFrclKfp4P8TLt3WfMfNWbTtwPjCctwxBSiAb2amx4SF3rp797bOBnRqUdWTc6+I0xLlCk24jZ6346cSVO4/CY9NpCEgJ5LpLSU9Jio+NeXr5l+/njurZrIKHq5ODnTXH9AU8SLexc3RxK1Gv88jZq/ddfh4Tm5CUms55OkgJlCYj9MaRLUumDn27RaM61SuW8fFwtrPgJti/H4HYuXqXrlyzYaseoz//bveZ4ATSAVIC/EGd8OzuxSO71y+dN2XU4N5d/JvWqlTS3Z7XH/94m9DC0bNUpVqN23TqNWDYpHkrtx26+iiWN0JASoB/uQmW+jL0YcCF47/u3Pjdos8njx7Ys0PzOhV9XCwVtV1R2XqU8W3SvuegUVPnLVmzaddvxy/cePAsKimLBQJSAuRzs5KWGBsZ+jjo3s2rF04f2bn2m1kT3u/ZtkFlb1v5HX3YupesXK9Fx54Dx8785ofdJ89eun7nQUhoZCy/fwtSkte/hybw8zp48zLJzspMT0tJSoyPexn94lHA2UO7Nq5Y8On4Yf26+NWvUtLdzdXF2dHB3s7W2srSwtzUxIh2MSamZuYWVtY2tnb2jk7OLq5unqWrN/Lv9u6ISbO++m7T3qMXbj+OjI55GRefkJiUnJqemUU98HcZUca3JowvJZnr+57jd6NRONlJkSF3Lh3fv/2HZQs+/Xjkez3at2zaqEHd2jWqVa5YrkxJH29Pd1cnB1src1MtN8Y0pxI2dg6Ozq5FPLyKFiteslTZchUqValWvUatOvUaNGrctHmrzr3fH/3J51+v3PjTwdNXA5+9TOOvTsjX9vzpoh5xpOTNKVkhVFkUynqBlrcxGYkx4U+C7ly7eOrIr7u3//j9isUL53z6ybhRw98f0Ldn1y5dOnd6q2OH9u3atvVv09qvVcsWzZs1bdK4caOGDerXq/ta9Rs1adbSz79dx05vd+vxTp/+Awa9/8HIcROnzJg1b+GipSvXrN+07ac9+w8eO33+8vVbgQ+fhEbEJKRk0A0UTvq+brYNSEmeUiLY9TzKiSL09He89KS4qPDQ58+ePnnyOORR8MOgB/fvB967e+f2rYCbN29cv3b1yuXXuno94Pa9+0GPHj8LfREZHRuflJKeyf9O6Njz6eUEgZTkMSWCScXPI1k0APBXGfv9Xz1lQkrymhJBZdXsSAoLBwD+fwcdPNrt949BkJI8pySHzSdB3OUCgD9Eb6v453AkJflJiWDabHM0ywcARDHj4ih7gZQUJCWCynvYDZ6pB4CoJXUtBFJSsJQIgmWV71lDAJQuoLPbX16BIiX5TYkg2Pe6lcE6AqBc6uhFXn/7nCkpyX9KBKH4F/e5ywVAoTQxu1uY/30okpKCpEQwb7XlJesJgBJlnR3h9r8zkZQUKCWC4DH0DHe5ACjP0wW1/vmdOFJSwJQIFpVnRbGoAChL2p42jq8ZiKSkoCkRBKvqv6TwJTwAypHxoL+DiUBKtJoSQTB/71wSiwuAMmSFfOORyzAkJYVJiWBS/vO7PMsFQAE00Vv8rQRSoouUCIJ1y7VsTADI39n3vHOfhKSkkCkRBI++V1hkAOQtZk5lM4GU6DAlgpnPZ0/5YDAA2dLE/9zQ6l/HICkpfEpyVFn7TM1yAyBLccd7WL5hBpISraREMHt76wseDAYgPylnJ3m8cQSSEu2kRFB59d/Hz2gDkJnsezN8zQVSoq+U5GxMSgx5yLoDICfJ39ayy8v8IyVaS0lOTErOfMzOBIBcdiQJPze0ydv0IyVaTEmOysuCeWURgBzEHnjbOq+jj5RoNyWCWbst4SxBAFKXcuajInmffKREyykRVO599/D+OwBJU9+a5msikBLDpSRnY1K8/11WIgDpiltQyzZfY4+UaD8lOTFxn/QgnddMAEhRVuyWqtYqgZQYPCU5ik65lMySBCA16sc/NjbP98QjJTpKiSBUnHE5jWUJQFJCN3a0LcC8IyU6S4lgWnfadV4zASAd0T/2dCnQuCMlukuJINhUnfyMxQlAGjJ+7uRlIpASo0uJIFh6LXiewQoFYOyyU863tTct6KgjJbpNyavf7F14izMTAEZNE3Wwr10hBh0p0XVKBMG0zpe3+WksAMYr4dchXoUac6RE9ykRBMvWP8SwWAEYp8QDI0oXcsiREn2kRDDxemsLd7kAGKHMQ31LmwukRAopyYmJff1dcdzmAmBU1EknOjiaFX7CkRI9pSSHeYM193maC4DxhOTJzg5WWhlvpER/KREEyybf3OalRQBGITtk7Vv2WhpupESfKREEq+azbxITAEYQkqWdHLQ22kiJflMiCHa+Ex+wigEYVtSXjV1UAimRbEoEwdLz47tpfIIegIFoMsK+LWOt0uZYIyX6T0mOIiNPRLOeARhC0rW5ZVVanmmkxCApEQSvofvC2JkA0Le40zOqqLQ+0UiJgVIiqIr1Wvk4m3UNQI9e7hhazUQHA42UGColgmDiVn8236AHoDeJa9oUM9PJOCMlhkvJq2eDS4y5lszWBIDOadIefVnFTqWjWUZKDJqSHPbd9z7jTRMAOpUdeWp0UR0OMlJi6JQIgnWXFTf41iMAncl6tGWwi07HGCkxfEpydiaNPzmlZrkD0InbC9oXUQmkRPYpEQSrCgOPsjMBoHXqGxNqOOp8hJES40iJIJg5+22L4dAEgBZlxZ94x9NCDwOMlBhLSl6puiQglue5AGiFJu72miYm+hlepMSYUiKYVhi9I5iX4AEU3pPd4yub6Wt2kRKjSokgqDzbz7+azlUAoFBTK+DrTt4q/U0uUmJkKXn1PFfV9/amcikAKKiMwx/4Oup1bJES40uJIJg5VF/2NJVTEwD5pkkLX1fXyVzPQ4uUGGNKXvEYsj+EB7oA5Iv62eGPiqn0P7BIibGmRBBs/Zecj+fSAJBXyddWdXY0yLgiJcabEkGwrPnBphdcHgDyInb36AY2BhpWpMSYUyIIpl6NFwTxdDCANwn9rlVxc4ONKlJi3Cl59bVH7x67o9PJCYBcaDJjjw8uaasy4JwiJUafkld8Pjn6mOeDAbxuQIVdmF9dZeAZRUokkRJBcPSfezCCrQmAv0s8u6Snp8rgE4qUSCQlgmBapvdXV/h6MID/l/Xwh6G+lsYwn0iJZFIiCCrHKj3Xx3H5APg9JIc/rOthahzTiZRIKCWvtib2ZUafjcvgIgKUTZ3y4KvaThZGM5pIibRS8vtnVWrNuRLOi/CAYmni7m3sZG9UY4mUSC8lr76q0nvZmWguKECJMu9sH19TZWQziZRIMiWCYFOt7+KLyVxVgLJkP9nxUYsiKqObSKREoinJ4VS5y9f3uLQA5UjaN7JhMVNjHEekRLopEQQTGzf/1Y9SsrjCALnTpMednVjG0dxIhxEpkXJKfufQfuWNF5zCA3KWHHJkUhUzI55DpETyKclRvN+S4+FcbYA8Zdzf81lrK+MeQqREDikRBMuKPRacTuCaA2R3Yyts77g2RU2NfQSREnmkJId9xfZzr3PhAXKScmRc0xJmEpg/pEQ2KREEE2vXZksfJHNuAshAdlrs6cnlnC1Ukpg+pERGKfmdbatF18LSuQ4BKVPHBO4eUdZUOoOHlMgtJTk8e359+BkXIyBVkWe/H1HTRFJTh5TIMCWCYFG2y+xfw7O5JAHJiT254J3qdlKbOaRElinJYV268YjtsVyXgJRknpzWuoKdBAcOKZFrSnKYOxTv/ePTZF6GByRAkx57ZnI1ZyuVJKcNKZFxSn5n5/fthcdJ/JQvYMzSIgJ/HVnORLqDhpTIPSWCoHJpM21bQCJXK2CcUgJ//mJALXNJjxlSIv+UvOLS9IOl5/kmPWB0ki+uHOnnpZL6iCElykiJIJg4V24z72IqVy5gPJLOzmlTxdVUBgOGlCglJa/udFm7+o47mpCm5goGDEyTlfry52GVXaxV8pgupERBKflD8SFbb4bxcRXAkHe1Qs4v7+4qp7lCShSXEkEwLd1ryeFHGVzPgCH2I7HXdnzq5yavoUJKlJiSHGZlOoxfdyuNyxrQr5cnFw5o4KKS3UghJcpMyasXGD1qdJp5hN84AfTXkb3jW1Wwl+M4ISXKTcmrp7qsnYv3X/8wKZ2vdQG6vauVkfx4U79iThYqmQ4TUqLklPzBsua4X26Hp/FCPKCbjKSF3fl1UgMbWY8RUkJKXh2dlH/ni10B8Vz0gLY7EnN959xeFczkPkNICSn586UT96aDFx4IZW8CaE120M+fv9vQTaWAAUJKSMl/a2JfpuGQ9UF8SRjQguSL3/SqU9xGpYzpQUpIyd+f67L3aPDJqbhUegIUeDOSkfx064DyrramypkcpISUvGZ74tljyZmgaF5iBPJLkxp2a/eEetYKmxmkhJTkwrb+kK9/vhLFY8JA3jsSfWnH5z3KqhQ4MEgJKcmVqUe9PtN/vMJbjEBe5sT9XbP61nFVKXNakBJS8q8svKq2+GhTIPe6gH/bjkQcnNO5dnFr5U4KUkJK3pwTB3ffIVseJaXzdXrgf2RnpEQemtzc29naRNFTgpSQkrw+21Vp8OqLD6P5PD3wp6zYkGvbxjW2YzqQElKSL/aNPlj08/VozuLBLa3YW/uXj/HzZCqQElJSECYejfrO2HSV34mHgqVc3zrrvWbFzJkHpISUFIKlV7XW4zbfTmekQHkyH2z92L+6t7WKQUBKSEmhqSwcipTt/e3FmJQMbndBGdRpScFbR/q6O1qSEVJCSrTLpfnknVeDOYyHvGmSwgLPrxpQgVtapISU6Oz0xK3JkG92X3zGuyeQpeyY20fWT+vpa8u1TkpIia5zUqT226OXHg4hJ5CVrLAz6z7p16KsFdc4KSEl+jo+cS5br8sn2wI5jYc8jkae7JvZs1EldzOubVJCSvS9O7F0dK/Yc8Gp6BRejYdk72hlpCZcXzG4hqeTtSnXNCkhJQZkW2/oyrP3QhN5uguSokmNfHh5y8TWbjyjRUpIiZGwrNL1k9W/3Yzg6S5IIyMJD05umjOggSPXLikhJUbGrHjjd8Yv3nPzJdsTGLPUR8fWfjbYv5I91ywpISVGytSxhG+z3p9uDUhkYsH4ZD09uGhY23rl3S25VkkJKTH6nlg5FinZfPTaay9T0rI0zC8Y/HaWOiM1MXjPZ90re7rYmnM0QkpIibTY1ew3/5drD8I4kYfBpEWF3Dq1arSflwkXJCkhJdJl4lK75+RVe84FxbM/gZ4r8uzawR/nDm5Zik+gkBJSIo8TeQ/ftoOmrz5wl+/VQ0+HIme2zB/5dsNS1lx9pISUyIu5W5lafkMW7r3PE8PQ5cHIi5OrJrzVoFJRWw5FSAkpke3+xMbZo0yX6dvvJaSkZfKSPLQmOys9NSn08NcDa3m52vNleFJCShTCqW6fGetPBzwMi2eTgkJRJ0aE3L3404KhfsU4WiclpESJTH0a9hy3aMvBy8GxPOSF/N/LSnxy/djOFVPebVmez/mSElKidLYl67R/b+KiracepjAdkTfpT879tHTq+50blXPmZhYpISX4/w2Kg3fFuq37zVh3KiyLQYl/ORSJOPfj7MFtG1T2ceaT8KSElOC1QbF2cPWq2GHsd6dDk1LTs7jrhf8E5NWpevjZNRM6Vy7q5mhtxlaElJAS5CUqXk0HL9h14U5IZBIPeimaOiky5M6FXQuHNC/KL4qQElKCgrAp0+K9acu3HTh/93kCWxSlHaonh9+/fHj70qkDWpSx4VogJaQEhaOyL16jZdfBExas3Xf+YSLfX5G/5MeXf9u4aNLQnm3qlOYXRUgJKYFWi2LnXqpKvVZdP5y34cSDJIoiRymPTm9eOLanX4NqZTwdeEmElJAS6IyJhY2Dq0cx385jv9l1NSo5NS2D03lpn6dnpKcmx9zcu/TjbrWKe7o52lrQEFJCSqDfnYpXve5jF+0+d/P+06jETHYqUjoJyUyMevog4MKexRN6NfShHqSElMDgzL1qtB34yaINe05eD45KZ0wbt/So4Osn92z4ZvKgdjWLWrB6SQkpgXGxcK/YsEPfD6d/tWbn4asPozKY2sa0C0mLeHD50PbVX03/sG+HhpX4SVxSQkpg5HsU+yI+5arXa+bfc9TMZduO3n5BUwxYkKTHV3/buGjqsK6tm9StVraYmz2/Q0VKSAkkxcTC2s7J1aNo8er+gyZ/s/X4g5fJKanpGVlqzul1Vg51VmZ6WkpywrOr+9bMGf1O0wrFvIq4ONpamXMaQkpICWTC1LVS895j5qzec+76naDgZy9iElJ5lV4bT2GlJ8VGPHt498aFAz8s/Pi99jWL8aFeUkJKoID9ikuZuo079B42cc6y9dv2Hj579W5IeEIGT4DlgzrlZWjwnStnDu/bvuG7+dNG9etQr2wRbl6RElJCShS6U7H3KFWtfqu3eg0e9cmcxet2HjwbEBKRwGbltbevUiIf3Tp7aNeG5fOnjxs+oHv7FvWqlfJ0ICCkhJSQEvy3KtaO7j5lK9es37RV2y7vjpg0e9H32389feNRZKpiD1c0aVGPrp/av3X1l5+N/6B3e7+m9WtWLlvc08XWnE/zkhJSQkrwJipTc0sbOwcnFzd3T2+fMjVadO4/atqXa7YfvHA/Iik5OSU1LT0jM0utzpbDXTFNtjorMyM9PS01JTkp+tHVY7vXffPpRwO7tqpZxsfb093Nxcne1tqSk3OQElIC7TFz9KnWsP07H0z8fPHa7b+dvnTt5u3AoEdPQl9ExSYkp2cZdVyyM9NTEuNfRkWEPXv8KOj+3Vs3rl0+++vW7xZOHzWgS8vaZYrwziBICSmBIe6L2buXrFy7if/bfd8fNXHmgqVr1m/atvPnfb8dPnbq7MWrN27fCwp5GhYRE5+Ups/fh8zOSEmIiQh9Enz/zs2rF8+cOHJg367tm35YtXjBrCnjRw7u272jX+M6VV+96EE8QEpICYywLVZ2Tm5ePqXLV65eq37j5n7t3nq7R+93Bw0dOWbCxOmzvvhqycrvN2z5ae9vh48eP3n6zLkLFy9fvX4z4PbdwAdBwSFPnj0PexEZ/TI2PvHVtyr/XJYZaanJiQlxsTFRkS/CQ589ydlRBN4JuH75wtlTxw8f2L93986tmzas+37vzi3rVy9bNH/29AnjRg0b/G7vHl06tGnRuH6tqhXLFPd0sbfkHhVICSmB5KnMLW3snVyKeHr7lCxTrnyFipUqV6latVp13xo1a9WuU7de/QYNGzVq3KRps+YtWrbya93Gv/3v/P3btPZr1bJli+bNmjZp0rhRwwb169WpVdO3WtXKlSqUK1O6ZAkfby9P9yIlfYp6uDk72FrxUBVICSkBAFJCSgCAlJASAAApISUAQEpICQCQElICAKSElAAASAkpAQBSQkoAgJSQEgAgJaQEAEBKSAkAkBJSAgCkhJQAACkhJQAAUkJKAICUkBIAICWkBABICSkBAFJCSkgJAJASUgIApISUAAApISUAQEpICSkBAFJCSgCAlJASACAlpAQASAkpISUAQEpICQCQElICAKSElAAAKSElpAQASAkpAQBSQkoAgJSQEgAgJaSElAAAKSElAEBKSAkAkBJSAgCkhJSQEgAgJaQEAEgJKQEAUkJKAICUkBIAACkhJQBASkgJAJASUgIApISUAABICSkBAFJCSgCAlJASACAlpAQAQEpICQCQElICAKSElAAAKSElAABSQkoAgJSQEgAgJaQEAEgJKQEAkBJSAgCkhJQAACkhJQBASkgJAJASUkJKAICUkBIAICWkBABICSkBAFJCSkgJAJASUgIApISUAAApISUAQEpIyT9krWKhAEDuGpOSN1NvYqEAQO7axpOSN9LsY6EAQO66J5KSNzvGQgGA3A1KJiVvdtaBlQIAuRqbSkre7KIXKwUAcjUjjZS82bUyrBQAyNXCDFLyZreqs1IAIFffZZKSN3vox0oBgNyoftGQkjeLGc5SAYDceF4UScmbZSwwYa0AQC4a3CMlebHZmbUCALnoHUZK8uJ4JdYKAORiShIpyYvAVqwVAHg9s+UaUpIXie+pWC0A8FolfhFJSZ4ssGe1AMBrNb9DSvLmdDlWCwC8junQFFKSN0l+3OECgNdx+04kJXk0y5L1AgCvUeUGKcmrAN4sAYDXMOmiJiV5VpsFAwD/ZL1EJCV5NpMFAwD/5HSflOTdHVtWDAD8Qys1KcnHM1x9WDEA8L9UO0VSknea466sGQD4Hw3iSEl+hPVlzQDA31muyiQl+aHeUIRVAwB/U++uSEry5XEHVg0A/JX57BRSkj/ZyzgtAYC/qnFWJCX5FNeW3+UFgP+yna0mJfm2x5GVAwD/oWoQKJKSfEvrzNIBgP+wXqwhJQVw1om1AwB/ahgjkpKCbEtm8rMlAPAHq1MiKSmQkPacvAPAKxYz00hJAR8I/rkU6wcABEHV6qFISgoo/hM7VhAACMW3Z5GSAnvUiltcAGAzNk4kJQWmuejCGgKgdCZtnoukpDDW8yNYAJSu0iORlBRKylBzlhEARXPbLZKSQt7iuufPcQkAJXOclUZKCivrZF1WEgDlsh4bKZKSQsvcWYK1BECpzPs/15ASbfiBX1QEoFBmPSIkMKUlkRJxJm8qAlAmv2CRlGhJwlgeCQagRM2viKREa49xhY22YUkBUJyW57JJiTZbMtiSRQVAWVRNL6hFUqJNse9bsa4AKIlp69sSGdDSSYkY3c+MlQVASXe3AkRSonVPe5mytAAoRvOrIinRxSdUuvEJFQCK2ZNI5MRdaikRs2/782PvABRBOifukkuJKAa35x4XAAWQ0Im7BFMi3m3JEgOggLtbt0RSokPXaAkAuTNpfVUkJTo9L7nSiXtcAGTNrNu1bFKiW+rA7vysIgAZs+wXLLWSSC8lohgzjG87ApAtx3GJkhvLUkyJmPCRPasNgDy5zkgVSYlexE91Y70BkKNiC1JEUqInsQs9WXEA5Kfc94kiKdGb5GW0BIDcqMrvSxNJiT7tr8CyAyArJvVvS3QgSzcl4nFfFh4AGbHwCxRJid5fMDnenJcVAciGbd87GlKif1mXu1iw+gDIg/PHj7NFUmKIj6g8/4Af6QUgj5KsjhdFUmIgK734BRMAkmde7aKkR7HUU6LeU5+bXAAkzq7LTQ0pMeiByYWeNqxDAFLmOu6hxEsi+ZSImkcTrVmJAKSryIpIUSQlhpawhi8FA5AqldfBNJGUGMOTXCdqc2ACQJKs297WiKTEOFpytZcdKxKA9LiMfCiKpMRYhHzqwZoEIDXFvooQSYkxHZjsrMaqBCAttfeliKTEuJ4KvvEOByYAJMS83221SEqMTcp3lUxYnACkwaTM4mTZjF85pUQUT77FKyYAJMHM74BaJCXG6enEYqxQAMbP6YN7cpq9MkuJGLe1AT9iAsDYlVkcoSElRizzXj9LlikAY2ZS/3iqvCav7FKSY62PGUsVgNFyHhEvu7krw5Rkn+3syGIFYJzMqi5NF0mJBGhC5lXksWAAxsjhnWMyLIksUyKKyad60RIAxqfot0+yRVIimY1J5LKi/FQvAOOianwxTZYjV64pyYnJ/ffciAkA42FWcmGCTAeufFMiiklrG/MoFwBjYdPpt0yRlEjQjZFFWb4AjILXzBAZT1tZp0SM2d6cjQkAwzNttStFJCVSlRnyCT/8DsDQHMc/yhJJiZRdbeLA8TsAA7JseFTug1b+KREjF9SxYi0DMBCTksNDRVIifRmXPub4HYBh2HXZmSiSElmI/7U9x+8ADKDEskdqkZTIRPbzZaVZ0wD0zLTrrTRFzFiFpCTH8/HF+S4XAD2yabgrXSEDVjkpEbMPveXG2gagL+U/CVbMfFVQSkRN2NJG/MQiAL2w6/5bukhKZCn95owirHAAOqequuSJRiQlcpV06S1TVjkA3bJ6TyHH7UpNiShmHG7vwuvvAHS3I3Fudlppg1V5KRHF2NV+fJgLgI7YNV/2UiQlSvBwbl1zFjwAHagx765aJCXKkHbl0xLc5QKgba5jLqUpcaYqNCWiJunGYM7fAWiVRfuj8cocqUpNyauaXOzqRk0AaIt9o31ZSp2nCk6JKCZu6cz77wC0wrrO3BjlTlNFp0QUQ9e2t+cSAFBYJuU+uZolkhLF3uUKWtuSj6kAKBynMacSFD1KlZ4SUcwI/aESFwKAgrPtfTZeI5ISpctcWYfffwdQIKY+A65nK36KkpLfb3M9/7IFZyYA8h+SUn2OqZmhpORP2YFfN7LgsgCQHyY+H+xJYH6Skr/IuvFVDV4zAZB3th8citIwPEnJ36U+XFSSiwNA3lh2PvaSkJCS10lbUtuJX4AH8CZmPn0ucEZCSnI9gA9f2o4fWgTwrywqvHsii3lJSv4tJk/XdnbhUgGQG9MqEw4lMytJyZtiErK1hwOXC4DXKjP7QjxzkpTk5WmuqMNduGAA/FOpz++mMCNJSZ63Jhf6ePOiCYC/UDnWWf2S6UhK8vc014lhVXjRBMCfTDz9vyUkpCT/Uk+OrWrGBQQgh+e7G57zrS1SUiCJZ2dW5D0TAK6DDoQTElJS4COT5KD5/NIioPSQfHieF9tJSSHFfVPHkW/QAwqlsi83L4w5SEq04PmStry1CCgyJEX8FjxmBpISLXm24m3ucwGK49Z3bQhHJKREe9SPt/ex48IClMR72J4wjkhIiZZjEn3qLXMuLkApPKZcjWVHQkp0UZPrg0tacoUBsmfqVvebJEYeKdGVrAujqxITQN5MKvTeFMO4IyU63ZmcmlqHmADyZVV3/BE+/UtKdC752qJ6XG6ATEPSbsU1foyElOhF2tMV1bnkABmG5O2j4RmMOFKiv63JnnZFeZ4LkBGVc7UpD3lki5Toe2tybEgdJz6oAsiDeemOa0KZa6TEADKvL+lVlEsQkMGNrcYT9/FbJKTEYI9zPT/ycSW+Qg9Im91bGwJ4i4SUGFTCg7WNOTQBpMvjw1Mv1IwyUmJwmlvDyzqwNwGkx8Kj3vpYPrNFSoxE9qNvOpchJoC0ONYfuZ93SEiJUYn65aM6VlybgFSoivdcHpDO6CIlxibp6qqu9lyggBSY1fz00HOmFikxShkRl4a6cpECxs68zU9PkjkiISVGfAQfs7YVr8EDRrwf8ajzWRBPbJESo5d6dEj9IpzBA0bIxK3++/timVKkRBIyb68bWc+CyxYwLqa1hn1/O5MJRUqkI+76und9+EIXYDzce3x35SUHJKREYrKi76xqzX0uwCioanx5LZINCSmR5hm85tEXTbx42wQwKDO3auOuZrMfISVSlnTik+bFzLiaAQNtR5xrv789gklESqTv8faJLZ24pAH9M68ycPm1LIYQKZGH5Lt7Rlcy5boG9Kpor9Xno/hdRFIip2OTuKAd7zhwbQP6Ytvp+1sctJMSWeZkTfsSTmxOAB0zdS7VdX2shoN2UiJXGXdW9KvjziPCgM6YuNXuvyaI8xFSInOZ19eN9SvCBQ/ogn3jkWuucVuLlChCUuBvs1s7c9UD2mVRY+yugHjua5ES5UgJvbK4Da+bAFqjKj7mQAgdISXKO4XPjljXrawrPQEKy9arxphTWWSElChV9uNN7zUqxu+bAAVm4lytw+xjcUwTUqJs6gfbp3XmI8JAgbi1GrXybDxzhJRAFNNDDi/q5klNgPydjrh3mvvL3QTua5ES/H9NIu6u72zHcADyyqX7xjvhqXSElOB/j+Hjj0xp5OPMyQnw76cjdkXrTjqexGfjSQlyPTkJWD3MrxIf6wJyu6vlUbvb3NNpzApSgjfUJOzYt8NbefOtLuB/WZXrOG7DtSSmBClBnu51Jdw7vHJgFQtGB/D/HJtN3HgqOJX5QEqQD5kxj05+0caaAQIIgqrkwB+uP0tQMxhICQpyEp94YGLD4k6cxEO5EbH1rNRz+T01h+ykBIWScXvVkJYVOImHAlkWr9/t86PRTAFSAu2cxB9ZMsKvOJsTKGk74lL33bm77nA2QkqgTQn3jq4Z29yNCQMlMKvc/8u91yL4XXZSAu3Lin92a/cnzTmKh7y3Iz7vfHs2OCqNwxFSAp3RZGcnn1n4dkUvB253QXZHI84+tYb88JAjdlICPYk/9e2Q1tU9+LETyIV5sVrtx/xwm9fYSQn0Kzvywobp/Rp58UVhSP5kpGiTAbO2X4tjM0JKYJjTk4ibB1eOaOpKTiDZkxGXxqPWHAqI4oSdlMCwOYl9dnv3hAa2DCVI765W7XHbA57GZXEZkxIYA022Ov7sl53LFnW2YoMCKdzScvAo7ffpwRhO2EkJjC8ocRfWfdy5QTkXvioMI2btXcN/yKJD4VyxpATGKzXw4Kqp/RoX57PCMEK2lToM/2Lr5Rj2IqQEEjg+eRFw9MdZvapyfgIjYld/4IIdZx4mcMBOSiAd2SmRj65u+bi5IyMMhufY8uNtAU+ieYOdlECSpyfZ6tQ7Gz5qVNKDl+NhCKY2RUrUHbLqZjrn66QE0t+hPDu0eGj7euXceDse+jxe923ZZ+bu4EyuQFIC+Yi/fWDNzCHtqhfh+S7omoln3a6jFmy7EEZGSAnkuD2JDbrw69qpPWo58foJdMTGt8eU7w9cfZLMHS1SAjlTJ0WE3P5tQd/qNow9aJWqaIcpW288ikjkN9hJCZRBk61WJwVsHNe6fDFXG255oXCH67auxap0m73veRan66QEypRwY9usAW3qlHaiJyjIRsTWp4Zf/9nbb/PDuaQEij9CiQn4ZfnUIZ3rFeeeF/JeEftyzfuM+2rH5UjuZ5ESUoL/HKHEhlw7smPpxF51Pdig4A0VcfLtPnH57pN3wvmpKpAS/IMmMyHi8b1zP07vXs2OgYnXcWn4weKDtx69SOBBX5AS/HtRstVZqcH7Fw5pWq5YEQdLnhyGqbWzV8m6/Rf+9uTVi+ucrYOUID8Sb+/5dlyPVrXKFuFTw0pl7lKmTuu+U9efe8GZCEgJCi7rxbVf184d269dvTJ8HVJZFfGu03HYZ6t+DYimIiAl0Iq0iKCrx/esnfNht/rebFHkf0fLq8E7MzYcuhLMR+FBSqB12amxLx4HXt23ZFynao4cosiRiXvDQXO3Xbj3ODKZioCUQJc02dnqrIzw8xtnDWxevrinix1n8xLvh6WDm3fpur2nb7oUnclL6yAl0P+dr4cnNy8c0611gyolnLnzJb2I2BetWK9Nrwnf7r7xkoCAlMCw1NGBp3etnD1uUNfmviUcTRjREuBYtmGnwVMWbzl2O4ZbWSAlMKIbX+kxT25fOLJn45eTBnWs62PNuDZGKvuyzXqNnrNmz4kbIS95NgukBMablMTosMf3bx7fNH9klzpefIrFWBpStf3QLzafuhX0NCIulYiAlEAqTclWq7Mykx8c2zBvZIcapX08XR2s+V1gvZ6n27l4FCtV4+0xX+24FJmZpeZIHaQE0pYdH3Rm+5JpQ7r5NfQtW9zNjs2KTo/Tvcr6Nmn7zkdf/Hj0bixnISAlkJ3oBxcP/PT9os/GDenZrnG1ks7mTH6tvVro6FO5oX/3gWNmLP7xt0shvGAIUgLZ3/3KiAsNunn+2N6tq76YOKhL0ypelrSgYMzdyjd6a8DYWSs27zl85sb9ZzGp3MYCKYHSqFMTosOfBt+7cWrXqrlj+vjX9CEqeWHmWavde5O+2nz02t2gJ2FR8SlZFASkBBA1vx/UZ2Wmv3pPZfmsUe/4VS1dwtvT1dnB1spcua+rqMytbB2c3Ty9i5cqX6tNrw+nL1q/78L9yLTMrCx1Nl99BykB3hSX5Oe3Tu5ct2TOJyP6dm7v16RejcplX32rxULu32pRWToUKVa6Us36zVp37PXBx7OXbNx78vqjWH5yCqQEKJTs5KjHd6+cOvDThpVfz5kydtiAnh1aNvAt7+1ibSKHcHiXrlSjftM2Hbv1fm/Y6I+nzV2ydtv+E1cCn71M548epCRfo+JpKH8syON2JT0h6vnDu9cvnDy0b+emtUu//HzahJGD+nRt17y+b4XiReyN+bkwUxtXn/K+DVp27PHu0I+mzP5y2drNO37ef+j4mYvXbgUGPw2PTkjJ5K4VXifjegYpeaPMDf5H2cCjIH8LyUxPSYqPjY4MD336ODjo/t1bN6+c+i1n+/LVrEmj3u/XtX3LBjUqFHe319/2xdLB3adsldqNWrbr0mvAB6MmTJu9YPHKdVt27T9y5vKNW3cCg4IfPwt7EfUyLjElLZOHdpE3z8b3iCclb07JCpXt6JAs1gu0s3HRaLKzs9XqVyf5WVmZOTIy0l+GBd+5fOrQnq3rln89Z/qEEQP79u7Vo1vXLp06dmjn39qvZfOmTRo1qFe3dk3falXLlc1FuWq16jdp6d+hS48+A94fNmrcpGmfzVm4euP2PQdPnL9+NzgsJiUjI+PVvzDz1b8569V/QvYrmlf4g0EBxW6uaNIwjpTkISU5f5uruT2KJQMAf5d+daiFIDQgJXlMieDy4cUMlg0A/GWPHbqs1qv7s6QkzykRLGt9k8jKAYD/UJ/q6fb7eCQleU+JIDh3uc/aAYA/pH5R4s9vapOS/KREUHl98ZwfVAAAUZN0pPH//zgDKclXSgTBot3eJNYQAKVTB3zi+d/JSErymRJBKDY9kFUEQNkS1zf76+/FkZJ8p0Sw8t+WzEICoFyamyM9/zYWSUn+UyKYeAznSyoAFCt5Xc3/+cUFUlKAlOTExHtlFMfvAJQo6Zy/2f/ORFJSoJQIgln7fdF8agKA0qTdnOr8z4lISgqYEkHwGnmKz3IBUBTNk2/rv+7z1qSkwCkRzKvPimBlAVCOrF3tXF47DklJwVMiCHbN9/DzPwCU4sFQ71x+J5SUFCYlgsq6+6UU1hcA+VM/meed6y/rkJJCpSSH+5x7/CwWALmL3N7kX36ijZQUNiWCacvV4SwzAHKWemyo07/NQVJS6JQIKveev7IxASBbmodTK5sJpES3KcnZmHiP5FkuADKVvdHX9g1DkJRoIyWCYFJ8WRhvmQCQ344k8VRbizeOQFKinZQIgkXrrWGsOgDyknp2nGceBiAp0VZKBMGx/y/8YC8AGcm+M6uqiUBK9JoSwaT0iHMZLD4AMhG+uLlV3qYfKdFiSgTBsuTHnL8DkIXMPS2cVAIpMUBKcnYmnksjeDIYgMRpEs61M1flefKREi2nRBDMG/3wNJuFCEDCEk+PcsnP3CMlWk+JIDh03xbHUgQgVdmXplQyEUiJgVMiCN4DDvKVRwCSpHnwWR2LfM48UqKTlAhmxfpd4hd7AUhP9MJatvkeeaRENykRBBOLPlcTODMBICWZEctKmRZg4JESXaUkh/OHR1/y++8AJBOS4LWNTAo07UiJDlMiCCWHH0xjeQKQhOer2tsXcNaREp2mRBAqjjrLC/AAjF/8lo5uBZ50pETHKREsy4y8x5EJAOOW+ktHD5VASow2JYJg4jAykEeDARitrJifm1ioCjPmSInuUyIIKu/ZgeksVwBGGZLHWzuZFnLIkRJ9pEQQbFssvMnDXACMz5NVXZwKPeJIiX5SkhOTRrPvcmYCwLhErGnrpoUBR0r0lRJBsKs2OYSdCQDjkfBDCzeVQEoklRJBMHUefS+RmgAwBukv1lQ2V2lnuJESfaYkh+fYY9HEBIChpdxcUtdEa5ONlOg5JYKq5Ae7+QQ9AIPKOD29rqUWBxsp0XdKXsWk/y5iAsBg0k6Nrm6u1bFGSvSfEkEw9eq4m8+pADCIrJP9SlloeaiREkOkJGdnYl5nRwRvLQLQ9ziL+rW1hYnWRxopMUxKclg0XHwliYUNQH8y7q31s9TFPCMlBkuJIJj5Tjwcy+IGoB/p1xa0sNHNNCMlBkyJIJhU7L8phgUOQPdSjo+rb6WrWUZKDJqSnJ2Je+NliSxyALql/qVbCSvdTTJSYuCUvDqBLz4jIJ7PcwHQEU3K4zW1LFW6nGOkxOAp+f0d+A9+DVWz4AHowMszn1U20fEMIyVGkRJBcOmzJjCTNQ9Au7LDfhpVRvcTjJQYSUoElUvzGddZ9wC0KfibzsVMBVKinJS8+kmTckNO8xI8AG3tSAImVnFS6WV6kRIjSokgmFjXXRqcxJeDARRW2vNt/vam+ppdpMSoUvJK0QkHHnNqAqAw+5Gocwt89Tm3SInRpURQFXn7qwvc6AJQUA83DCltKpASZackh02tEXv5pAqAggys65+3clfpeWaREqNMiSCYezdfFMFFASB/0vb1K2+n/4lFSow0JYKgMnMeeTqaG10A8igr9tbcUhYmhphXpMRoU/L748FtVl7lC10A8iD55oZeLoaaVaTEqFMiCKa+H+8MyeIqAfBvsp/vnVLXwnCTipQYeUpyYuLdZvJR7nMByJXm2tyOJc0MOadIidGnJId1Cf+VoVwuAF4n6de+5exVhh1SpEQKKXn1JXqXbj+/SOE9eAB/lRFzZVJ5SxODjyhSIo2U/J6T6lMPBHOnC8CfsiMvLu9kYRTjiZRIJyU5inSYc5wf8AWQI/3W6kHlzYxkNpESSaVEEMyq9PrmDk90AQqnido5srGT8UwmUiKxlAiCiVOFPr+lcCkBCg7JvSl1vCyMaS6RkrykZLlgXEwsS028EpnKITygPFmx91c3tzczsqFESiS3K/nPR7rqzTkSxOYEUBR15JWNPd2NcCCREqmmRBBUrv5Td4aouboAhUg8s2xgZXOjHEekRLopeXWny7vN+N0R3OgC5C8jYGm/6vbGOotIiaRTksOyaM1Rp9O5zgBZi179dnlnE+MdRKRE6il59ZUuq3JjT4TzKjwgS+r44M3dXMxNjHoKkRIZpOSPLwjP+C0wiZoA8pIdfWPbu8WMfwKREpmkJIdTi4lbHmRy7QGykXpx1dAaFlIYP6REPikRBJVny1Fbn2dzAQIykH5zxXu1nCQyfEiJnFKSw8Kz+pAjvG4CSJwm+KsO5V1MJDN5SInMUvL7KXyJ4YdCk9mcANKsSGrElbl17cxVUho7pER+Kfn9VleliXsDoqkJILWOxN87MKu+heRGDimRZ0py2NYduuR0JM90AdKRdGPd2GaOUpw3pES2KclhU73rjP3RXJ+AFGRcXfJeAxeJDhtSIueUCILKpliN0ftjuUoB45Z9/9uWZZ1NJTtqSIm8U/L7Mbyle5c1IS/TudcFGCFNeuzTTf3LSuyYnZQoLyV/vL/Y6asj95O5bAHjkhh45Ou33aQ/YUiJQlIiCKoirSZvupbItQsYy37k5YUfPm7hJofxQkqUk5IcJkXq9/3yciqXMGB4L4/N6l7LWSWT4UJKlJSSVzVxLNty5nk+Sg8YVOzPI+uXsFXJZ7KQEoWl5NWdLjOr4qN/exZLTwAD3NVKib696m1HS1NZTRVSosCU/LE78emx6ERgLO/DA3qkjrl9YFoze/kNFFKi1JS84tpi1PLDz/lxeEA/+5EXR5cNa2Arz2lCShSckhx2FTp8tP52Blc5oFvZz3Z90rmSnWxHCSlRdkpyWLhXaDXnPN+lB3Q3Qu5+17NaUSs5zxFSoviUvDqIN7f26bkqKDqFoxNAu5uRlJiQHweXt7UwkfkQISWk5D9smk3+6UoYN7sALUl7fnnnlFb2ihgfpISU/PVmV6W+83YF8H0VoNBiLm2Z2au8hVJmBykhJX9nXqxx369OvmQSAAWWFfLzp13ruJsqaHCQElLyz6MTx1L1Ptj8goEAFEDGlfmdq3rbKGtokBJS8nqmlg71xu0Kjk7OYjQAeaNOjrqzuk9xG3MT5U0MUkJK/u0kvun4jacDX/JgF/AGmrigc5vHNbBQ6qwgJaTk35l4NR+5eG9APLMCyE3Snf1Lx7T2MVPwoCAlpOTNLEs06vnpzkC+/wj8Q0bQ7tm9m5a2VviQICWkJI/3uopWajl+TziTA/ivF/smtansbct8ICWkJB9PdplZOdb4cEtwdBJn8VC4rKToR9tG13K0MlMxGUgJKSkI60aj1p0MjCEnUGpGYgJPrhvVyIZZQEpISSH3J+7Nh32943w4H6iH0sRe3fXVsObu7EVICSnR0lm8V81OHy45/FzDdIFCpN7cNLln/WIWXP2khJRolZlziWpvzfo1nBdPIHcp178f0bCChxVXPSkhJbq52WVuZV916PqAF3FpbFAgO5qMhMigvdNaFrGxNOVqJyWkRNcsyvWY/8ulh7wZDxllJD7k6oFvBtTkYV9SQkr0enxS1n/4VzsvPM9kCEHq1JFX93w7pmMla65rUkJKDHF8UrRWh/e//CWIV+MhWVmhx5aN7FK/BOfrpISUGJKJg0/lZsPX3UpjKEFyu5EnuyZ3qF7SxYzrmJSQEmM4jTe1tPH0+2RPcFR8GucnMH4ZSTGhZ758p6wdL7CTElJifKxr9pvz05lbTxPoCYxVWsSDy4eWj/YrQkNICSkx5hteHnW7j1u0/dSDBB4XhpHtRZ5f+WXVjIGtynIuQkpIiTTO4z2rtXpnwooD91OZXzCKU5Hwc5tmvdehXik7rk5SQkqkxcKleOUG7y78JYTnhWFAmpfn1oxp7VvGw5ZbWqSElEiVqYWVraf/pB+vh8YkZXDLC/qTlRIbEfTr/N6VHWwsOVwnJaREJg95ebQYsXjf+XvhKfQEOr+KY4KvHvlhcpdyHIqQElIiQ+bFmrw7dfmuC095CQW6OhSJCjjww9zh7SrZc72RElIiZ9bFarUfMO37E8/5PS1o+VDkyvb5w7s2KutowmVGSkiJIm53WRcpVb3Fe59vuxHH/S4UXlrQ/sWj29cu72XPF31JCSlRWk9Mza1sHMt1GL/m1KOIl0npvNeIfMnOSI6NfHZ58/SeNdxsrS04WiclpETprMr4j1i4/fjVoBdJBAVvvpWVEhl849Tub8d2qsKRCCkhJfj7LsWxYut3J33946HrT3nMC7ndygq9eXTLt1MHtavmyokIKSElyI2pa/kG7ftN+Pani6FqBif+Sx12effSif07NqpUxJzrhJSQEuSBhbN3Od8mg+ZsvRzLDEXs5a1zBjX1LeftbMm1QUpICfK7QzG3snEo13HcimOPX0THJaWzTVHQcUhmamJsVNj9Qys+6ljG3sbKnEezSAkpQWGZ+9TvOnrhpkNnbwSFxmYwaGV9pB79NPDqqX1rZr7ftpoTT2WRElICrbP0rNa696hZyzb/dv7eC34GWGYNSX5+69TeDYumDu3WtIIzZ+qkhJRA1ycpRcrUbN55wEfz1u6/+pyPsEi/ISEXf/5u1od9OzSpVoKGkBJSAv0ysy/iU963QaeRC7ecfsxdLwlKDTq2Ye4H7epWK1fM1ZbDEFJCSmBAKjMLKxs7p6odhn+x5eLj8MiX8UmpmbzpaJTUGalJ8TGR4SHnNn7+gX8FBzsbKwtTzkNICSmBkTF3r9LinVEzl+84evbK7YehMck89WUEd7AyEiKfPQi4dOrg5sXTh/doWtHNjJVKSkgJJHGe4l6+nn/v4ZPnL9+099jlwLBEmqL3gqRFhdw8c2DnusWzxg/u3rJmKRfuYZESUgKJsnQtXrlui069h0yYu2rH0WshiXyURccFSQ27dfLndV9PHdG/q38j37JeDpykkxJSAtkcqVjYuRUtWaFa3RY9Ppy1es/5R+E8TazdM/THl35ZO/+jPq3r16hYupi7oxUFISWkBDJuiomZuaW1rZ29g4dvq14ffrpk88HrIWERUS/jEpPTMtVsWt4oOzM9JSkhNibyRdijawe3LJ89rn+Huj6OdrbWlhZmJpyikxJSQkqUmhc7n2otuw4e//nyLfuPn7ty827Q49DI2KQ0Dlj+IyslLvL5o8CAK+eOH9i+euHkEX06NK7kZUM3SAkpISV4HRvPcr4N/Tr1HvzhxE8XfLt6w/Z9h09duvngSUS8ou6IadLiI54E3rx48uCebeu/Wzxv6pjBvdo1rVnOy5Z8kBJSQkqQLyY2zh4lyler06hV+y7vDBg6btq8b9du23fs4p3HUclyuxWWlRAefPPc4T2bVy2aM2XMkHd7dWnXslHtquV8PJysOfcAKSEl0NZ9MHNre+ciXj6lylWuXqtew/bvDBk3Y+GKDbsOnb/1KDJZWucdqTFP7l059duO9Su+nDXxw4G9OrZoUKdG1YplSxbzdHOys+LND5ASUgL9lMXE1MzcwtLK2sbWzs7ewbl45Xp+XQd8OOmz+YtX/rB1z8ET568HPg4NC38RERkVHfMyNi4+ITEpOSU1LT0jM0utxRfyNdnZanVWZmZGds4/M9LTUpKTEhPiY1/GREdFvvi/9u7CIavrj+M43a20KCCi2IGKHVOxW6czZm7m7Jw9dTqdPWfMnO1md3ejIogiqJSAoHTH8/zm4je3gdLceL/+gnOfe+7385xz7jk39FXIi8d3r545vGvDsm+mjhrQo03jWuVtzYyMDA309fR0dbS1NDU11NVUmbcCUUKUQLC0jC3snCrWcGvSqkP3PoOGj508a8HS1eu37Tl44vTpM+fOX7h46fKVq1evXb9x89btO3fu3vO4/+Ch5yMvL+/HPk+e+j7z8/f383vm+/SJj89jb69HjzwfPrjv4XHv7p1bN65fvXLpwvkzp0+fOLh/1/bNG9auObh767oVi+ZMGzd8QK8ubZrVq+HiaGOqx85AECVECSRM7d3xYUbGpiXMLa1tSpW2dyxbrrxLpSrVqtd0reNWv2GjJs0+aenu3qpF82ZNGjWs71a3tmvN6tWqVKpYwdnJsbStlbmpkT7bN0CUECUAQJQQJQBAlBAlRAkAECVECQAQJUQJABAlRAkAECVECVECAEQJUQIARAlRAgBECVECAEQJUUKUAABRQpQAAFFClAAAUUKUAABRQpQAAIgSogQAiBKiBACIEqIEAIgSogQAQJQQJQBAlBAlAECUECUAQJQQJQAAooQoAQCihCgBAKKEKAEAooQoAQAQJUQJABAlRAkAECVECQAQJUQJAIAoIUoAgCghSgCAKCFKAIAoIUoAgCghSogSACBKiBIAIEqIEgAgSogSACBKiBKiBACIEqIEAIgSogQAiBKiBACIEqKEKAEAooQoAQCihCgBAKKEKAEAooQoIUoAgCghSgCAKCFKAIAoIUoAgCghSogSACBKiBIAIEqIEgAgSogSACBKiBKiBACIEqIEAIgSogQAiBKiBACIEqIEAECUECUAQJQQJQBAlBAlAECUECUAAKKEKAEAooQoAQCihCgBAKKEKAEAECVECQAQJUQJABAlRAkAECVECQBAqFEyT2gtSt9ARwGA7DUQYJTMElqLMnbSUQAge+4xwouSaUJrkeIYHQUAstctTnhRMlFwTTpPRwGA7H0eL7woGSu4Jl3WpacAQLZGJgovSkYKrkk3StJTACBbU5KEFyVDBdeke/b0FADI1sIU4UVJf8E1yacuPQUAsvVzhvCipKfgmhTcnZ4CANnRvaAUXpR0FFyTYsbRVQAgO/b3BBglLQXXJMUqVfoKAGSjsa/wyrZKI+HF2x5e4QKA7PQJFd5kkkpN4UXJ5Sr0FQDImur0BMFV7QCVCsnCW3fvQGcBgKwZb1UIrmp7qDgJb6iUPl6L3gIAWap2VXhzSWdUyngJr1W7begtAJClrmHCK9q7VGwvCa9VftXoLQCQFZ2vhVezlatULA4Ir1XpXdXoLwCQBdv9AoyS2SpmmwTYrBU69BcAyEJ1fwHW7NEqhksE2KwHxvQXAPgvtS7pAqzZfVR0pwiwWRmV6DAA8F86ywVYspWtVDQGC7Fdy+kwAPBfpV4IsWTXUlHpmibAdgWWpscAwH8ME2KSJFVQUXGPEGDDkmfQYwDg3wzuCjFKXjqqqNR7LMCGKa470GcA4F+6xwkxSm6UUlGpeFGILYv6iq0lAPCvQcmxTCEW7P3mKiql9gqxZcoTjvQaAPiHbkGCrNcrjFVUjNYIsmkR/dTpNgDwHuMN6YKs11N0VVTU5wpywKTcYU2/AYD3NPEWZLVWfv7un/8oQS7jKKPbsVoCAO8NSr5NFWS1Tuj4rnU9goWZc7fM6TkA8Bc190hhFuuApkIeMilns1oCAH+xuizQWn2v1rvmVboh0OaF1qXvAMAfVCcLtFQrTzu/a5/FKYE2L31PSXoPAPyuVoBQo+SPl6Q0disE2r7IL+g9APCOwc50oUbJd9q/t3BuokDbp7juqkoHAgAV9RGRQk2ShDF/NLFXhFBbqFxjRg8CAFXXm4Kt04Fd/2hjDcHOwClf99KgDwGQPfM1qYKt0w/+fEPK8Ilgm6h8VJU+BEDutCe8EW6ZPm/3ZyuPCreNylOm9CIAMtcuXLhFWrFP889WzhZwlKRuMKQbAZAz1WovBVykk779f+AJuJXKmJkG9CQAMk6SyjcUAq7Rbwb81VAbITdT+aK3Nn0JgGyV3Zsq5BId3Oj/LX0t5HYq79XjjGAAclXy+3hBV+hnVv9v6glBNzTzggW9CYA8aY2MEnSBVl78++DdycJuacZOXfoTADlSbx0r7PqsnP93Y+ulCrupqcv5dgkAOY5J3MMEniTKT/5urf0Tgbc1eiFzXABkR7vzE4XAq3PSe3v/Su4Seu69nsFWRQByG5N0fpQp9OJ877326kwUemuVERN5JRiArKi39hF8kiiXv9/iDjGCb2/il5r0LADyodYsVCH4yqzo9H6Tq99SCj9LhurTtwDIZnZL+Cvu7xYfnN5vs9XPImhy6FCOUAEgEyJYcX/ntPX7jdacnSaCNj/vx/4SAPIYk4hgxf2dxf88cPezUBG0WfG8K1/CAiADolhx/03aZ/8816rabTG0WhHRguO4AEg/ScSw4v6OZ51/NlxnR4Yo2h3WineCAUicfrcIpThs/ffu8ZHRomi34mkv1t4BSJrp8GCRJEnihH9PFFV5KY6WK/yH8VlFABJWckaISJJE6ev+78ZrnRNL20PHM8cFQLIM17wVSzVWnrX5T/PHKcTS+MSFvBMMQJpUTXeniiZJkpeq/ucCnNJE0/y0tbaq9DgA0qNe4WiGaEqxMqxDFpfwSDztT9zuwkvBACRHw+2keMYkSqWXZRbXsEBEF5B0oArjEgBSG5M0u5wuokKs/Cmri6gvpitIveRCtwMgLS28M8VUhxWtsroI2+tiuobMxzXU6XgApEOrU6hSVEKy/PKH7pQMUV3F004cOg9AKlQtpkaKK0mU32R9JU0DxXUZ/mPN6H4AJEHNeW20yJIktk7Wl2K7R2QXErHSmg4IQApqHE0WWQFWnrbK+lI0xseL7EqSjpSlBwIQP/e7mWJLEsW47A4eqfdAbNeS8aAVX3wHIG6q+l8FKsRWfZXPGmV3PTrbM0R3NSFfmbHDBICYk6TM0jjRlV6lYptltlfUL1J81xO93J6uCEC8au5KFV/lVcaOzP7MESsvEV5Q6i/V6IsAxDomaX1JIcLCq7xX6wMXtVSMl5RxtR3dEYAoaX/ulSnGJEldq/OBqyorxnGWMjNwhBE9EoD4hiTmMyJFOSZRBjf74IXtEuVFKZOXO9EpAYiMWo19GeKsucqDHz6d3T1BpNd1rLkO/RKAmOh38hBpwVVmuH/40ixPivTCFD5jLemZAMSj1NcvFWKNkocf+e+uMSBFrFnyZmdFdpgAEAnVyvuilaI14mOXV/mKaK8t3a+LNv0TgBhotfFLF2+S+Hz0zCqtGSnivby0JY4adFEAQqdWalaSeCutMmOW3kcvsaGniC8w9UwHA3opAIEPServE3OSKP0afvwaDTamivgKM33nlKSfAhAynUG308WcJOmrTXNwlc1DxHyNythDfPUdgIDpLwsVdZFV+rbOyStOGhsVor7KjKd9dXmVC4AwaVY5lizuJEnbpJujKy0XI+7rVCZuc+NVLgACpGo90l/kBVb5on4OL3ad2K9U6T2KT/UCEBy1BlvjxV5eFRty+qJsnRDRZ0ncz59o0W0BCIrx0HsK0VfX+Mo5vVyj5aK/WGW6z3RzOi4AAXHZ+Fr8SaLcqpbj2bzGvuK/XEXStfoMTAAIhUEv7zTxV1bl21q5uORvUyVwxcqEOU6a9F8AAqBZfmO6FMpq+pLcfB2qsZcUrlmZeqGXGV0YQLEr0etmpiSqqle93Oy10FucKImrVgStrUwnBlC81FxWBiuU0pjryd3ZVOUeK6Uh5V4f9pgAKFZdbiZJpKLeqJS7K1f9MkMiV66M2uPK8juA4qJRelWUQiLl9O0Itdxe/k2lZETMdVGnPwMojrkt68GPFZIppsf1c/0DdIyRTpYorve1pUsDKHKaLXfESaeUxjfJ/S9gtkUpIZE7WuvSqwEULcfpPlIqpNvUcv8TqLV4JqWfIN1/eSn6NYAipN3pTJyUymiIa15+Bf0FqVL6EZQpfn0N1OjcAIqGuv3Gt5lSqqEZ0/I2t1P1qkJSWaJMPeFuwpdMABQBNZu+IdIqoIpzef2s4JgYpcSEfO/GwARAoTNw35UgsfIZNkAjjz+G5XGF1LIk4844e3o5gMLluOhphsSKZ+p2izz/HPWSlZITfWGAIR0dQOHR/ex6ouRK5/Pa+Zjt+y5TelmSGXe+uQ5LJgAKhape0+PRkpvQUaaPy8/igM1NpRSlb2vI+juAwhiRuG2Ok2LVvKKRn19Fs/drSWaJInBpYx06PYCCpVltSoAka2Zo0/z9MJYb0pTSHJh4LqxAvwdQkHNbduOuJEuzYC40yOdP09hTKVFJN8by9XcABUat94UohTTL5ZVq+V0S0JgaK9UsUSTc7GHMNhMABTEi0Xb7NUaiQaKMGJL/w9WNj0v113mXJhfb22jwEADIJ8M6q6MkWyhTNxgVwE9U/41SwuL29rZlZAIgP3Trzn8m4TLpUb1AfqUFUo4SpSJsf18DHgUAeaXluuBepoSLZGrvgtk7YX9KKe0wefVrOz5mAiBvHBZ7Jkq6RG4poJ0Tai1fSDtLlBlvDzc1YM8igNzStJ0WnCLt+uhZrqB+LJ3xMUqpSzvQxJw1EwC5oVt12nOFxGtjaEf1Avu97PamST5LlJEbO5ozMgGQ4xFJ1Sn3M6ReGBMWmxXgT9bET/pRoswM2P6pPo8HgJxQrzjtsvT/Y2eeq1ig6TsyQymHMAn+tTNhAuDjSs+5HSeDoviqfcFO/OucUMghS5QZ0ec6m7BmAuADVLXKzAhKkkNNTF+gWcC/XQUfpUwobvaw1+ZhAZANE7dFr2RSDS8U+AnqWv3C5JIlyuQzIypznAqArJg1//6FXGrhY9eC//1KfJ8omyxRxl6a7szbXAD+MyLpst5XIZdCGDGkMCZonM9myidLlPE3Z5UlTAC8T6PnwcA02VTBlJUlCuNHVGvsJ6MoUSqS/Bc5aPHsAPgzR0x7XIrJkE8NzDzuWEh/pwckKOUleqEr34AH8Bttl2H30mVV/7wbFFoo/5QpsyzJfLGstRkPESB3+rXH3ZVZ+UsYUng/Z7lLSrnJ9N/SzpAHCZD1iKT5krspMit9ih8KcU+ERqcApfzC5Pne9no8TIBcqTfZ6Zssu8J3sVxh/qa6U2LllyW/b4HXU+eJAmSYIyZtj0Wky67oKZ63KtxTP8w2pijlSHGprwNb4AGZ0XMacjNdjhUvbLBmIf+0Fc4qZJklysTzo6pxOBcgI4YNpt6QZ72Lm2dU6L9uvQClTCVcnVKF81QAmdDttMZTnpMwysyfrYvgB+4bJ9csUcbdXViBkQkgA8Y9fw1Ik2ule+xYFD+x/nTZ/sBKRXLwGnttdi0CUqaqZT32bkymbOtcaKOi+Z0tf0hSylj0D3wFHpAudcv6iyLkXOLCemkW0U9d8VianH9oZehP3ax44AApUqvYf3u4Qs71LWqGcZH92o28lfIWtvNzW6a5AKnRrj39QrS8i1vKNrsiHAF2SZd5lmSGnx9nzYMHSIlOm01eCTIvbYobLkX5k2tMS1PK/RdPCFpaQ5c98IAkqGqZD7gdJfu6pgypXLTzLUYrE5VIPPN5RQMeQkDs1Eo1Wx6soKQpA5sX9U9vvzOZn12pzPSc627D+1yAmOlVH3DwLdXs3ZhkQNGfD1X1bAY//G8yXu79qgoPIyBWRu2XXkugkr3zZoZpMYwI63vzy/+xahJ1f0UDznoExKjk5ydfpFDFfpf0o0Vx3AL1hnH89n9KjTj7ubkmrwcDYqKuX32JTyxLJH9N1x80L6Yb0T2CX/9voQvqWWvydALioGpUvu/5VArX30lyxbS47oXepEh+//cmuiL2Dq1FmABiCBKHTosfplO13nOrWvHdDvPvmeP6h/ibi1qb8pgCwqZdc/zRkEwK1vs8WxfnJzRK/8yC1b9WTfyPjOCALkDATD/d5hlLrfqnF/10i3WUaHOYV4L/PeMYH7SmiRFr8IAAaei7LvKPYWbr38KGFfdLqCZsL8lC+uOFje10eG4BQeWIVd0pt1lpz8LbYcV/d8qfJ0uyXDY5OrGFDUd0AQKhalrvi528dJql6JkCmEVRr3eJ5asspfntn+amyyMMFD+18sM2P0iiKmUp9ltjIdwjzaYe3Ivshibevwyz54guoJjn4Tusv/2GrYjZSFwpkDeFNFo8425kJyMueF9bYy0W4YFiqk+6Lou9OD0+e8k/WQqmPjUL5H586J2ugFWty+rxTANFPmdi6zr6EgvtH5yI3yykrXB9g7kjHx5CXpvZxp6d8EBRjkdKNRt14BXzWh+eN/nVXEj3THdkEPfkI0OToCNzWvOdLKCo1kfazPrVlw0kH6tLB52FddsMx4ZxVz4myf/4BBfeDwYK/89tg7ln/PnS68eT5Eg1ob0WpDv2NffloxQJoWfG2etqsAoPFBJVTb2qC+5GJjGx9XHpxysJ8AXTERwTnDOp12Y0LWtImgAFT9+h6Zx7TGvlcJ3kkIMgb+IkdpLmVPz1hT1qGJMmQIHOjVToMPsyp5XneHbrhL0w76PelHDuTo6nuqJu/DSmLm8IAwU1seXQ5/uzYRy9kYt1kspCvZfG095wf3KRJtFeR6a78VF4IN/UyvTdcOMV+xBzlSTVhXsQh970t9yhXN3NxIgH8+oYsBkeyPNoRFPXefjpVzHkiARW3P82JYp7lOu1r2drOpYvwUvCQK6pm5Vr9e09PsCXhxV3e2HfWY3prJfkZXTi+ePgRjaMTYDczGrZNRm8hte18jQmOeIo9LurN45973mS5L1/RicnLeoDkKPxSJlOcw74cGx8nqTuKif8O2w4jLMd85omAbf3TKrDxxeBjykzaNONl8xr5VHKFicxfPpCp08A9yrPM5gJr7039LLV5dPwQNazWlr6Ll+dDI5lXivv/1k3imUyvRnfL8nn8PPaN20rWjPZBfyDqmHp6p/+4MMnwPMlfqm+aO54qwfcr/ymie/e8R2qmjA4Af6gZVe/96JToexBzKfoJSKaQ9doeZ0bnv/XusKubp7auhTf8wX0aw5YfMAznqqQbxFzjMV047UaXSFLCkKC/9Utw6uz5wRyntay6vztsYfhbEEsCK+nmonr7qtXvkqWFIz0uHCPJW0sdDiZHrKjrm3kOvFESFQyJ8YXjPCvxHfun+VZ/kUU5ATnhRmfVLDWpbhANjFi5lh3+P4QQqQABfURY09w+JXtQwW7Ev9kz4we9e3ZdwLJUzOr0ubLtdcTeOoLlFdvcc5wlttKTyhoMZ6HV411t9ek2ECyDGt8Nnvb5SBmyAv6PZ7rbUVaOFQdfmJcUggdIsbvxv7ZnWwpOZDgrFbl/itOPniVzHNe8IuuZ+uLdquaqvEajjYonDhJigq+uqRrKV0tXu6CJKiqa+mX67/uUXhMKqsjhSHtoIOoi8WSGO5h4cnw2jCkvrMFqycQNx2r8g1H7HjBlFbhidsk8o/s6c8J4S4WqviH2yd3r2/PKSsQJ63Sbt2m7n6UyKNcmF4tMBZ7RzH54gnj1UKmiPY8smJkKwcW4yGylRHrJsOWH3wQRYkoZH4jTMXfW/TaPqSjFEGcRD27eWBedxcmuyCSxRHbNtN3XHnyhlmtIkiSbvpS6DIazrfpLUW1GB/2eP/ERuasxkPAGaKhrVdhwA+3gt8kcsRvkfzNfOYqlQkL8x0svhelxIdbRjWqaGdCnkBoCyMl7Kt1nHuULexFKPmco3Q6kMVc+k4RS/M/sWJY+9qlmfCCQOiWces69seL4TycRSp6m7OUTu8zHepPlhT9hFfY3YOrx3eqasRBkCjmGKnUZcLqQw/eUgWKWvis0hLrSq38uavFMk8a99LjzIbRjc2JExQPPbchK4/fC4hjxbQ4kqSXsdT6k3qNG6yxFdtsV1xEwJWVfZz1dTTViRQUDVUNLV1L9xmHnr+OZQN7Mc1LeDeS4g4Bu59iubfF27EiLq8d0biyg4UeeYLCpKZnUbZG+6m7HvOhieIUu9NJmv3Lat5r7m6xSw+5un1W/za1HQyoeCgE2jY1Wn8+a/utN4xEinty6xsbqXYy4y84RUUYUoPvHl0/Y8AnznxLCwU4pVXCtfuEFftuBHGKqwAEDDaR8B+Wzr7cYcFICfe9ferHce2cOXAF+aZVscfMHRceBrG6LhCP2kn6XD6NehdZfBfWinz8m9Cnv87t4WKgzZI88rAsoqGtW6bz7INPQqPYvC6g5/pITanvULbfHM99FqKoK+u+alHNydZUh0BBjqazdErYVajdZ9GxQFZFBEYRschc+h3QYh7bXQXbAyPvHVozpV8bt/IWTHrhAyli7ODq3nfaupM+fCdViJ6O1pdDN9Qd+IB7Leg1+ZAHZ3Yun9K/ZZUSFE38e0LLvHrbod/8dPROIGvrQp3cOtVeJsfvaTT6NZX7LXSJYc88Lu5dMqKtizb1E7+niHWjAfP3Xrz/PJLtIgIWu7qimmy6pM3it9xxMchMiXsT6n9pw8QOTvo6Whqsy8tyNktdU9ugQpevdzwMjohJ4gUtgU9SBww1ltVj2sGLtz3EJeHh/sVftqrh4mBlwsK8bP70Gdk412gzdevNOB4AkUwmnKsgt05a7Ve+YSLCvzwJ/lf3LJ88oFOTGo4lWJmX8lDE0K5q405DFh3wIkVE9HwGLbeSX1ctPTuQWy9S6W+e3ji6bfnUwR3rleX8FakxLNew+8gFGw5c8XnD1IG4nsvb/U3k2GONu9znfXRR/wVKinjpdfPM7qVju7taaVCCxU+nQusvF+44e+txUFQ6/Vt8SbLPVaavyGg4HKPDil9mSnxUePCTcxsmda9lrqvN4rwIV9V1jKv2/HrL1eehkbHJjETEupo5y0y+T57u1BA6rqRiJfz6roVftq5RycnOwlhHjTotaJpGlvYVa3cat+7sc/aIiF3qkw7qcu7MOp0u04mlJzHw3sntS6YM7tGmQbWyFnoUbaE9duZlqzdq33v04h1XXrBdXRJi9jSU+RyzWq21ifQDqY5R4kO8rh3buXb+hIGdG1e00qGGF/dcln5pV/fPRs9ZvePYtcdhyfRQyQgcX4bubTkqkp4gbRnxr1/63L18ctfyif1aVbNi3qvoM8TYpXmfqSv3nr720O9VNHvVJUZxoRX/096NtlveZsFEHpGSEh8dGRbse3nXkrGda1vr6WhraWqoq7FKXxjDfXUNTS1tHb1SjfpMXXvUKzA0IjohlZ3qkgySqMUO/D37Q+k14bwWLD8JrzxOblsyqW9L16oVHEtZmOqz5zHfow9tAzPrMuUqVm/cY9S89UduByTxYEld6tV26vT8vxgMvMFrwfKVFvnsxrGfV80Z1a9b68a1KpQuyWeCc5kguiXLVKzdpG3PQRMW/Lj//INAvgkkGxHry/IAvM/1xwh6BTNgMcFPbp09sP2HhdNHD+jWoo5LKWNG7h+ga+Pi1vrTYVMXrtl26Pzdp68SmMGS2xNzd7gxz8E//1eZ97vDign+lJkUHR7o63nn6rmjP6+aO7Zf+/ouVkx//b4Gom9Twc29x5Dx81Zu+fXUlTtefsFvOa1XrhK31+UTEP+hWfaHBCZ28Z//XalJ8dFvXr8KeuF19eiOVXPHD+ratLq9qa7Ou0V7TQ11SS7bq6qqqamra2hoamlp6+jq21Zu1HHAhPk/7Dp5xzcg+FV4ZFRMfFJqOo+LzP9wRQw3ZdSepfZ32WOCnEkOe3Lr9L51i6eP7Nu2Qc3qVSqWd3IobWtlXsLEUE9bQ1TpoqqupWtgbFbS0sbOvqyzS+VqNVybtf900FfT56/Y+MuF+y+jGXTgvxRvDpUnM7J7psp9/5LHBrmWHvf6pY/H9XNH921bt3zBjIkjB/bp2aW9e7OGdWtUdnYoZWlmoC2Yf29qWgamFrYOzpWq127QtFXbzj36DBg2bvr8pT9s3n3o9JU7Xs9Do5MZbuBjUm4MNyUysmfc/QSvcqEAwiUxKjzwmbfHzUunj/yya8u6lUsWzpk+cczwIf17devQunnDOjUqlbO3MTfWLejTJrT0jMwsbEo7OFesWrNO/caftGrbsWvPz/oP+mLkmAlTvp49f/GSles279h/5PTF6/cePQsIfRvPhkHk3tulrhzG/UHq5ebE0k9QCBPLackJsVERYSGBL/yeenvev3vr+pWLZ08dP/rLzz+tWfrtwvnz5s6eNePraVMnT5o4fuyYr0aNGD7siyGDBw3o36/PZ1nqN3Do8NHjJ0+fNW/hkmWr1m7Y8vPufUdPnj57/uKVazdu3fV44Onl8/SZ/8vA4FfhEW+iYuMTk9kkiAJxqxtDko/Sb32dV7lQhHPOGempKcnJSUlJiYmJCb+J/01cXFzsb2JiYqJ/E5Wl6JiY2Lj4hITEpOTklNS0tPSMTJICRdBjIxc6sisxJyxm+/NIAkAWYo815L2tnM5ytTrGq1wA8G8ZXtPNiIicKzPnGZ0GAP7hzZbmLLfnikHLX/gmDwD8LfNOX2smt3I7yWXW/yXL7wDwZ5DEfGPD8UF5Yb4ymE0mAPBbkLzeWZURSR7ptNn/lo2/AGQv8VQ/zgDOh1Jf3qYTAZA3hc+0cnxtNF80an7/ho4EQMZiNjbm4+35pWrQ4nwKfQmATKXd7Mgn4ArmKJUvvFPpTwBkKMV3HCOSAlN5vT8vBgOQm4yX62syIinIHYsdtrJkAkBekvd15QjggqVm3eUcHQuAjDwYUoYhScFvf7ce7scsFwC5zG1NcWRze+Gwmc36OwAZSH220I6SX3hq/ficT5kAkLZ0vw1ulPtCpdd5eyQdDYB0KcI2tDOk2Bf2+rtNj/Mc8ghAskOSX1pbcEpKUZylYvFFAOvvAKQ4Ikm71b0kr20VlRJT78dzZDAAiYm7PoCprSLlPPMWJ3MBkJKku1+XorgX+ctccx+k0fcASES617za6lT2YniZq/asF8xyAZCE4G/qGlDWi4WqXrnvotlmAkDsMsKWOevz2lYxpknZFc+S6YcARCzB85syVPNipll3hTcjEwCiDZI781wYkAiATvNVz+mOAMQo+dq0WuwjEQiT5stCWIAHIDr3RlbWpYQLhpphhUVv2AEPQEQU6Y9HlNKmfguMzUyPGIYmAETi7ZVBJhRuIXKYcDaa/glABCLPDC9J0RYqpxGHo+ijAAQu+sBQe97aEjANh557OZsLgJAl7u5SRoNyLfAwMWt8OJGNJgCEKeP1pvpmvP4rijSpvOhhLD0WgNAoojymsbFdTIsmk85H8DoXAEENSIIOj7akPIuKquOgHaGECQDB8F3TzZq1dtFRt2mxKoLeC0AIMr1n1jejLotzZGJUdeFL9sADKGaKlHtDHfWoySJWYvCVCNIEQPFJDjrkzucRRc+w365nqfRmAMUi8dby5joUYikwdf/Wg50mAIpexNGxNTixUTojk5qjLybSqwEUpcyXy9s5MrUlKVqWLTZHsWgCoIgo0h+OdDBkW7sUl+AnXQtLo4cDKHRxT7Y01qLoSpVZt/UeSfRyAIUp49WZqZUZj0iadt3JRyPZBQ+gsKQ/WtPLjl3tkqfp2G5FEN0dQGFIvTq8thlBIgtqho7j76cyNAFQwDNbb3e527BEIquJrsabnsbT8wEU2MTW63sTbKit8lNpxqlgXg8GUBCSPbf2KUFZledEV6key+6k8wwAyKfIk5MbGlFT5cuo+qD9b3gOAORdhs/idk58q13mNEpUn/YknTV4AHmRmXimp50Bm0jwbqar5SafKA58BJA7aa+uTStLjOD/1MuN2OebwpMBIKcUb2+t78ACCf7F2H3miTdMdAHIEd/NQ6tzfDyyoOPUdok/TwiAj0m8NL6eBTNbyIaqYdn+Z+JYNQGQ/cRWRtjqplYMSPARTtM8wvmCL4CsciThxeH+upRJ5IRZ9x+vR/LQAPinjOATM2szHkHOl00qf77+QTJPDoD/S7y5tGcpqiNyOTSp1X9rKE8PgN+FrP+0qiGnxyP3NEzLjrqcyCI8IHOKjJjjn5czUacoIq/UnCZcDuEbvoB8cyQ+4NxQW2oh8kvbfdGZAA4QBuQo7cmhr+ux0I4CoV668zeXonmqAHnJDDk8s4UFFRAF+EpXxU5LvBiaADIakJyf8okDX9dFQa+aGJZqsz00g1O6ABkskKQ9W1rfSpcXtlA4DFuv84xgKzwg6eFIxOPlDVkfQeGy7LP2cgjfhAck6vX1dX2sKHQofFrOPedf5DO+gPTE3fqhX2UdihyKbBW+/dxrfCoLkNQCiceSrtVMKG8oSqr61nW+f5rOXnhAEjGS/vyHFraGfIIExTLV5Tr/1iv2wgPijpHkUM/F9VlnR3HSa7folB/vdAFile53+rsOppQyFDc12zZTD/in8UgCopMRdHh2WzumtSAM6mUaDtnynOcSEJW4Q2Oasp8dgqJpWqbLpkCW4QFxyEy4PL6KOQskECJtt3l3g+KJE0DQUt++ODO0NAULQl6GbzJ9v0cMDysgUCkvz64eWlOTWgWhM64zbM21aM59BAQn7fHu6Z3KsMwOcVA1qdJ+9rVEHlxASDnis7F3XVvGIxBVmujZuE6+kpjJ4AQQgMwM7+9alDFhPAJRKtF3m+erBJ5joBhlvPU/NakS5QiiHp2Yu8869CCSt7qA4pnVCrm+bUglZrUgAUZuA787HsJUF1DE0v32z+5ZiU2IkAz9ss2HbXvGx+GBIpNyb03/hnbkCCRG06xM86WeqSzEA4VNkRl/ZUbNUsbq1B1Ik5r9wF1PwpOIE6CQZMYFP1zdqSTFBlJn3fXbwx4sxAMFLyPs1u5pnxhSZSALqmZ1Bnx70Icv+gIFKO3ZoQV9qhpQYCAnOmXcenx3KYrnHygI8XfW9Glgr0NlgQwXTgytK/XZGJDBSjyQD4rMiD1f1rRlkR2ypl5+2O5HrziaHshDiiS9fnJsch12IALvlGwzc8+NQLadALmQGe5xeHGP0qoUEOD/9Ct3nbHjXgxzXUBOJD85uKBvHVNyBPjPVJd1zfYT9/qlUSaAD3p7fn7PevZ8TRfIhqpOSfsG4w9EZioYngBZLbGne6/p4WKlz3HxwEdpVBux82FwDIsnwN/SowPubuhnR30AcsGwyZiNZ7yiGJ0Av4l9en7T6DrsPwTyMDixbTJ08YFHfDsL8pYWeHb18Jb2vPIL5JlumTrtZx58yVwXZCrx9sqBTcsbUQqA/NIzt6/ed93DJLbFQ15L7Ck3l/eqYmusQQ0ACo5J00kHHwdFpVJjIPkprehgrwNTmurz1AOFQdW04Zerjt0LSqbYQLIxEupxYu2oxmY87kChKuHafcKaU35JFB1ITUbAxU1f965tzq4RoEhGJ8blGnabttuHnfGQToyEnPyub5OKJTngFyjSONEtWabWwNU3EtgaD5Gvrysyw45/3czRypAYAYqLdq2hP173C4vlfWGIcCgSF/b87vp+zuwZAQRAvWyHSRtPeASzfgLxSAq6f3rL5E4VOJYREBA189rdx684+DCa6S4IXWbUw8Mrx3Wva836OiDE9RMD+9pth608E0KcQKjSg86s+KJ1bQdDnldAyDSNrco2GLHuRryC9XgIa3k96dHmYQ0crYxYGgFEQ6Nir4XHvAMjEvhuPISwur55uBtHaQHiZFi796ytpz0C4higoLhW1z1Ob57UsTyr64C4qVnV7jLq251XX3LeCopU8svr+5aN7VaH1XVAKrStqzTpNmHD1bAMKhwKX+rzMz+O69ykqh1HMgJSo6ptautUf+Cys8HprMijsNbWU58fWdirqoOVCVNagMQzxaze0FVnvF+Gx3GKFwpqaT0+MtDn3Kov3Yx5wAA55Ylx1S6T1h689OhVIkMU5Ef6W79bxzfN+Kw2J8MDMs0Tg7KNeo1dvP28byx5gjykSMSDoz/OGNymSgmW1gG507F0adBu0Jwtl16kUByRM5lvHx5dM+mzVrUdTTjQF8BfNPTNbBwqtx2/8VIoq/L4wLp6ZtTd3d/0dStX2tJYh7EIgOyY1Oo7d/dt36CIWL4kjz8TJCXmdeCzO7vnD2hkqcojAiCH1KzrfTpp1f4LHv6RvOcl6xBJfOVz8/Te78d0Za8hgLzRKl273cCpy7afuPMigVkvua2pv3l29fCG+WN6Na9sqcGzACCf9CydajTpMGD6moMeYXyuUQZL6hGep7cuGNmjdcMqDmYc4wugIKnrmljYOdXoMGb1scccYS/JFXXF23u/fD+mczWn0lZmBlqsiQAoXGrWjfrN3HzJxz8oPCohjVQR83p6bOSrF09u7ls6ol1lQ9IDQDHMfDm6dfpi9tq9J648eBYay1GRoprFSgh9dv/y8R1LJ/b5pIIJGQKguGmWcKrbuveIr5dtOXzFK4zD7AU9CokL8bl1Zv9Py2aP+ax1nbKmZAgAoQ1SzB0q123R+fMJC386dPVJJN9vFFCCxDy/c+rnFTNH9mr/Sb3q5e1K6PFiLwBBU9c2MLOwtS9X5ZO+E7/fc8k3NpPFlGIKkIyoJxd3LpsyoHUVZ0c7qxLGeqylAxArA+fGn45Z9PPZB74vQl5HxSenEy2FEhxpSXFREaFBz329rx9cM/OLTm6ldeh8ACQ3XClRvnHXL6YtXrfj1+M3H/kGRcazUp/v1fPkmNcBTx/eunTy4I61304a2rNV3XLmWvQ1ADKgZVqpoXv3gaO/Xrh6y/7TNx69jOS4r1xsQ49+5ed54+yhXT+tWjhzwrD+XVrWq+pYkhEIALnSNDS3K1+tbhP3Ln1Hz1y29fCVR0GJZEUW0t68uH/pyI61C6eO/Kxr2xaN6lQr72BTwoC96ADwHjUtPaMSlrZlylao0azbkCmLN+w//zAwTs5vgSnigr2uHd2ybMaIz1q5upRzLG1rWdLEQJeVcwDI5UyYhUuD9v1Gz125/chV7yd+LwJfhb+JjktKlUzEZKYlJ8RGRYaFBL7we+p189TeDYu/HtWvY+Nq9qZ8UgoACpyqoU1510869xsxdeGabfuPnLl0/c4Db98XweFv45JFEy2ZyXFvw4Jf+Hrfv33t4ukjv2xf+93McUN7tW9c09nGiPEGABQlDUMrB5fqdZu4d+zRb8ioCTNmL165bsuuAyfOX7vn7R8cGSeAj6woUn5LjQC/xw9uXz1/6sgvu7auX/XdNzMmjhrSt0eHVk3qVCtvb2nI4e0AICBa+ibmNmWcXKrWcmvc3L19116DRk2es+SHLXuPXbjl6RsQ+ja+EF8SS4uPCg/2v3Pl7NF92zesXjJv+viRg/t079y+TctmjerVrlHl3UqHjYWpgTZ7zAFARFTVtXT0jUzMzK1s7Mo4lHVyLu9SsWr95m269B44fNy0OYtWrN20fc8vR06dv3LLw+vp8+DwqPhsRjJJMZGhgf5PHnncunrh9LGD+3Zu3bh2+aI50yeMHNyvZ0f3pm7VKrpUcC5X1tHO1trSvISpsaG+rramOrNVkIv/ATIMEMPzTAM+AAAAJXRFWHRkYXRlOmNyZWF0ZQAyMDIyLTExLTIxVDA0OjM5OjQzKzAwOjAw+vEmAAAAACV0RVh0ZGF0ZTptb2RpZnkAMjAyMi0xMS0yMVQwNDozOTo0MyswMDowMIusnrwAAAAASUVORK5CYII=;" vertex="1" parent="1">
          <mxGeometry x="30" y="1509.5" width="70.76" height="90" as="geometry" />
        </mxCell>
        <mxCell id="aBF4gKf8o6EeW--I7lqI-2" value="GAIA Benchmark Dataset&lt;div&gt;[Hugging Face]&lt;/div&gt;" style="text;html=1;align=center;verticalAlign=middle;resizable=0;points=[];autosize=1;strokeColor=none;fillColor=none;" vertex="1" parent="1">
          <mxGeometry x="15.379999999999999" y="1620" width="160" height="40" as="geometry" />
        </mxCell>
        <mxCell id="aBF4gKf8o6EeW--I7lqI-3" value="" style="rounded=0;whiteSpace=wrap;html=1;" vertex="1" parent="1">
          <mxGeometry x="200" y="1294.5" width="870" height="520" as="geometry" />
        </mxCell>
        <mxCell id="aBF4gKf8o6EeW--I7lqI-14" style="edgeStyle=orthogonalEdgeStyle;rounded=0;orthogonalLoop=1;jettySize=auto;html=1;" edge="1" parent="1" source="aBF4gKf8o6EeW--I7lqI-5" target="aBF4gKf8o6EeW--I7lqI-7">
          <mxGeometry relative="1" as="geometry" />
        </mxCell>
        <mxCell id="aBF4gKf8o6EeW--I7lqI-5" value="" style="shape=image;verticalLabelPosition=bottom;labelBackgroundColor=default;verticalAlign=top;aspect=fixed;imageAspect=0;image=data:image/webp,UklGRvYrAABXRUJQVlA4TOorAAAv/8F/EGpR3LaNY+0/dqqv/CNiAvRRah8+lr4KAlNqyMElcJBehKKBcsJij9Wen82BnbQFg1fioH1HbUFIQk/FNP+/sr1t/M7yKjSNn3NuyWJZZpSDzyso1/e5bkOZmZn5XXF9/65znet6zlXyCTNzNCfMvGJmWGUGFebEVsbxLpwVgyd4zVMMMz8ph3lV7oo5aBiaeBVO7NUTThR6AWXmViXHr6DckFImq9xwNJ4Jk0PbzDCTw5wVuh7vPCpzK5e59TLahcEqhmccxvKKmVtnyszMzMzMzC5zw2goBDyaymWu5ylDSCnXZSbtytwGykxSGeyO0pmUVWbuCgOnpF251a7MzMzMYJUZlCmvmCm0oiUAbhpLykFmOa6yHTtJJ/0/R+v79Ofybj9XpYdhmZmZmYGSAEiOGql+IENFVINYv6f5ZK+hI6rxIIeT94CkkfkfEmjbNu2mX7Ft27Zt265t2wxq27Zt20bwa4drAuxI265scrNblZYgmZmZm5mhppnpn3ZzDzMzM6NY//+cU+d89TkXhl6DI5eX8judHRjfNXSo0NSqLzKF3oCWMHI4jjlSZiaxNLwAM4QcOnLMkLuUTmRegCKznfUyBDtQeQvC1Ni5Q96DahYg6OolmO24q0NvYeIupxOb3aEZMi2gU0cOFZvtyCEz2x39m1A2KzAzRl4BQ+byFjpU5KpTNZA5+sqhF6LMNZljb4G9gEldA6FsSbJN2/qh83aubdu2bdu2bdu+27YPt217l2RJtk3b+ou1pta9z7aNlm3btm3b6l7btm3bttX/CVDV+r9a/x8u+hT3lWox1erF9uih/41jgi1GQvrKISbas9nSQ/YJBUcVL07pzBCdTaJiihcPIQc12yyJHY+RjGQk9MGeTrFibbpcin2pZbeZtQENdiV0GEWVRukyAg2g0HhKzyfQakLvptBpQt0i9CsKf6U0NhPoN4U+EuoRhS4T6AilthJ4KaFnEnoUhXuHoGJKJ4diFRoK2T4Va2VfJ1keaIzmdmlUn8cm9DoKH6XQPQo3UapLO/nHCfyUUmcptJFQ8wg0iFKF31o6KrtkuVTyUZLlUiYUZRODHE/ovgSuJfRBSj/8cS3aH18JhffPgiL3pDFHp6DNknVrka8xvhBrLxJV+tjTpfRLSnVosRPqP6UfU3gvpeeGqB7FOxfblULf4dgen9JjXoJArxO0ixL6H6GvEKqh1uQpO/bXJzi2UFACgcYSag+l32l3JtBPAp+pr9nSup1A8n1qcULPoPCNBO3ulJISehuNrkmRu3qyrgsxcCqFFhD6boL2hBRun+72U9xXysm3UJQmDS6ZLoVbtZek1PfRFy8m00I5m1x4Tfm191xNTKiqhyLJkl0ayN/ndyZoj7rw+jYuwXpxau+uveyPE7g+eegYyq1lx0C57UvQXpfAfyg8JRVrZXn1wp9Uo/bEBP5M4eHl9BNZOTUwSpXfofbMNVIoTkaFmGMJfF97agqvialWl03nPHrttRdOWGVJpdK6nYBAvX5ce/Cll46+ljw657vW3pxAb1uTRQRVJKGatXBDzCRnlyIpYp8y0oASKfOIVGnMQ6bOY9IMxzzXc6UbzsiXJh/zXM+VOk95yId8yBIlSnxDkVCsEYlefw/lEI0amV+LMHnskTKPSTOckL6ckaHMyVhXlD1eUe50S/nTAxXOT1S8W1PJ8kqm9Z227D9p6/4beyvbf1Dp8kYluw0V7l4of36kvOmecqYbyh4vKbOuyFDn5EuTp6RMQ5LHLs7SmlLr6dhTlD/p1rmEwKu0k0OsOc5C6cs5ucoZbyh/fqCi3Zpsbdl/ETi3QCXLGxXtXmh32eM1Y87798c5HGdoQt8lfTaSPenWUqEl7UzKTMo0Il+u8uY7Ws20fhCIdXUV7TZsoazxkrzrSBG78KYp/ObV5U6yXCo9sOa+mQGV/MHTOeG2rt8EAl9dq1vIk344J1Uek5MfTSkpgbxlzlgJdV5zXUbqk3Y4pax6SQXzI5nWn7R1/41bFq14t6Hm9GVGitSHE03hXxcvb5ZNoH2a2/jUeUKu06ls/UngvqXKnq55LhoND5rCrYRKkTYEXqz5jC+Up8LdMwUC117w16dOEzjQ639lSbNtzWORj253ZesHgdv3J2Ndkts2vUMSqmApQ2L2W799RcqsC7IUDTxhW9ZPvr6MOMAuTaEvry5hxkfpl9ruAZU339OjwDs2Wd50R4o0wCZN6FdtLpWufPk0be8ml7ihoTGLTvkb7NEUPjUw2ULhiARbHvmrBxoatEf15LRFE2iyZNk4gR5oGzf51SpdXA2N2vdUeYIthO5ci1y5cG3jH29t2HryqcH1jqflvC5uLavtam3qZmvubGpsKaq2PC4I3pt0/BF+sguCwjlt0IRuSR46hjJlfLPEvbnGsPGnyTdz+vs6VmfI2i6mpnrHUo/ex0tywc5TpgE26EUm69YiiUKQR2j4HW9tWH/sQT5Zz4vGlgdMW4fFe6LPZBylu4fcgh7ltUETur88GSulpLCVmn6u2ux2pC7u1vtuiR8a7zaRPVpaTjk9RG5BkMcGSv84Z2lCmLtr9MpNvwzrj9zNw/KoYLXGkIkdU+wP3J0oueAhmoDppcuSYqeAKmlYf5RuHg2/lZvwMx8uuaDp3DC9FklCmQM0OF05I7D+yF3d89+XmiwjT6VLLmg1N4zAz4ciR+YLqiUpitgLmSbT8fVB1xVRkgtazY3Sq5MiG/8bTHzFy4agmp92bti4ygAbc3Ck6zhDfCUXNB2P6t2TyZCeamzzQTX/RldLk8l6U9kF5U93oPQLyhAKTcWkiD0KRBGyL8lkvlp98NSzQmUX5EJ99QtLkKfB1BxU8417d7axM5v+rpRekDafAtKErpAfx5YD8g1Fo3BZHmVyeJbjD/eT3oKbAdVYTHoQuEhD8wRRbsqDGX02Q3rBq4L0h0mP+WIqXd+IZmCwk4s2slr5BXlBhNosPQh8CZImHxNEeZLxgSaXowv9K+SXlBuz/i5IjtiuFK4NUjgan01xfJgnmRAov6AwRlO6THIQ1rYa2lQ0MeczOfFYG6MBxvSyGEIflhxvC3nEINrU27mcBOxM1ADBlWIo3DpWuXG1kF1EVf9xASehB5K1QFv3XzQD0a8sNwi8AZIrqvtz4r8jQQsEZdULMH8pN2qCvHRUMecyOHFbGa0JFhwPofQ1uUGoF5CmovLeGMfJicYEaIJgopD8MdXqMqO0bidYPyQpqhOPDeBjZKb3G9rgOCA6Bk6VGb+nkfFB9AMCnVw0/19laMMFYyg9SWbQWDlBSgCyXxVzEX4kRSME64DMQ2Y8PiRVngA4/YJwHsaWB4410Ecr7BRC6FcyIwY5HpJ2OAFgdDY2cpD7tsTQiqcDyb9xifG2kHkjvDbEsvvT9zRDNogeicSYMyR9mYMwWolrmKXdyzO0Y27I8CQGhQdCyqwLICcaGzAi3cuod0fr0ft4aYhCEBKVLzEoqmGQXBDDZ3PctkxG5ftOMS3E0JB5Id2VGPcMaRljRJxIYzGuOuixNsbQkhnKHMiLSwwCj4OUNV4AMjbcFnatKxqaMheEUtMlBqUmQnaKMvy3J4zK9YEGBjpPNy/c0JZlj1dAZiExrhaSB2acdGJQe3U9YrXGUOHnsp8YGrPc8QYIpRdKjAnxZWwcsCOhV1urTe1UdU6LIwzNWe50C4RQi6SRYWzsujLqtme3or+vI/Np4d8MDSq7DMPY+PmHJ13PtjwquE3Gg/z4S1kfurChTSWY5q02aI9YQvBlpCGF8l5ppvUDf8MVQzGTK8nn03pQpfw+3Uym5Q2/T59+Ub9Pf73v9w2+n27a9ytnvML3+0k/gEBj3S2vH0DgKt9v875fbFcKKfzJ71M/7vuNr3d+nwpF+a/f71O3S+Fffp/aNIEv+X2q2O3u4N39vcOairXySERPqSG+h/hrrdZ/h98W6UuVTZOQE1+QwNP+r88tEerk03Sd0i+94iyl2cZjQseNoqp8BUJf+RDtkeVTI4//h1+7fu2lJdNItt3nxrTXlkkkdvR3R+mH2otLoye73T4TqE17c0lUP4Fn/4327FIoJv1v+oeU+qs9vARK3nctP60B7emlz3T+ML/2+JJn2V15d+35S0qdtyf0XR0HbF7i/GddOk74qvKmtevXccImCsiaZN1a9LcN6LhhmWVJIGlS0GYEuqjjiEVuRtLEBIcQqlnHEVs4ncDNYg9BaBlxTFjMhGuW+cESv3LLxPfMfGqZNyzhtGUeZMYWy1hgmQOshowqWnKMPBMkXoDQ/RvWccSOlDc9ELgZ2xhtGXctE4cysY0J95i4KmJWsYvCwd1iu1K4Qh1XXElTgYsd2v9BYJljmNhlHM3Mj5a5khlZkYebCq41FALt0HHD5LFH3grmJwKB82CJ443zmfHbEjZFFBP3/RhErvTb/6D5Hc7ppx1OyFAXdHgLWbI0Vcmy5YS9Z7bMgdg5iGwxPlEAxhhmvGXi6PBTScd9UrFWpvQ5zedwUucJZdYFWygVxOHZ1W4ZD40oLeO/Ja7bK8PKZX57cprHbyhZfYEgjs+ObUw3AmVG65tH3NRykxduSdv/WhnLko8KJCA7y1wrEmOY+T0iDo51ELtGfym8XdueZjihgvmBzIEUZMfEx2IxxjLvhE0/t/hLbXe+UoEsZGeZP0RjLLGTmbX7fvwh4wqzSrApX6lAHrJLFI4xzLxZxSnauECot/sOta2FPiqQiTIyTPwZFjKFtzJKvdd2PmLNgVyUkkl8ohmI7ckIfEnbmX6YMffABzDmApYrtMfWNnak3PGWQDrKyljmkT2+0ZYX2E3ltyFlGvJRgW9gLPFcVdcaysJKt5YKFHqm8fnGFPgIhplnuyqqFWp8mWVBICUlZphwfM8f/1tWTB+WgMsT+A2GGRtnIKJGCPRaw6808B9MxBwrIgKN1fAfDGRSdsVkV4XtGctSvyAZWUlNcXyII5wUbEcfrXYSaA4KhhtTxPN724LlCaRSHobTnJpJSUqki7w1wMqsp/KtsBcOoVdodD2BjFu7Jc8RTvSQazbm5vb88UMVwYwmP+q52rp+I+2IchsmMUKeKs3EWOJqwRD6uAbXkmn9IJB4RFvGh9lNqlmYTxRKiDlWgzvS90DuETnC2ugMAsWACdK9MvRE8g+ocqc7AulHVO4m0zjDhH0CuUUNTjucEPgBlFUxfgbAmRMTx9JBuStd3vEHaMuwFsQ11FVRUPxv3jCo5sAnIApvR5hhwmRRUKhOY9MMUwL/gPaAXQfborUYukCg36Cd+wk0AWUsY48YnlJjPzrwFbYMNAPKRJR8hUDpC5icJ+wv0Me91BrFxMMiWHIC5icDn4GqXcQaZCINAQIg9AQNzZnNd6D4IKEs4ZgAasSkLzMC/4GCrAgyESPIcTGoAjV2536E4x8gS9jlOAotwAwo8CNoOqhg+EQLp1H6MaZ6f4J89YAxzJjrsH5r6GsV9SkycuIkUJj1VOesbWMWEkjRH4T8oeAoxAEYYwm9nUXgnZgHlCMtQ9YuusyiOAkVxhLuO2rZHwKpJZCjNwu5WtFRaAtiTFjR00kh5CANbVmSZChzIPcsvMyicRYqDBPrnETgcZiKljWSJB9kzsKjUsyQF+kgAh2DFGlSkqRKIyAkOF18lpxg1Cc6J1m3Fm0Lki+QpB2BPIv4yFevMctyTqi3u4bWLEna0NDkoWPoAolRxmTfG++pOWZImGySJAtk/bFdKXSBvIZxl2uIYWa+Yyi8CfINgSTNWC+A1KhcgPbAMHGbY+4QMm9Zcp+QO3eFp2Is8VedDum2hv6gJCmQE9JrVyBfHUCMtaVkh8wK06okyaKhPXaHGD9hFugQCs2CxGeWJOnLHEzj7uCogjChJfYQhM5oH+Q+Aznao9wQQr9S7kD+JoSYyEX0cER/twWpR5KUPz+gof/qFnEBxljCcEecu4Y+hCSZKIZElVazyDNBYpAfL4isshwAYcYJR1C6DJNpeUeOnHALkIT6q1kpSJVXiCBoT8h17P1TSdEJhGqAvGwgR0tqKKVvq2p+W5CqrhFRRHsIYu7DCd8JySdHbi8eQ6CxUUTcsINUfSMhCkteMLkc0F8C/YaUM14jRxaisaWjsovCajEEsn1RkLtcQZ7TAdeooa1KkUqWV+IxhLqjomQt5kD89FoYoQ6EMLNjzx8/VOFvVpD4zFJkQBp74dEwcRwk0ILCOBRiwkIsf1cLqS+QoW+ssRRuTdlX2tFYwiZIWCsKY6nTfwU5I/5eF5KhzJAhC/4G0COqaJl4GxLlIWHQhyDMPMPfV0O+XoakHU7Q4FeKJjsz/kASIiyO8DaEWMLfRfKW7MGsmgCpcH5BghTWYEodUNE+nIGmZ1gciRGGmGPhrTUNrWz9QH40HY/qRFSsoQTjEEdWWTBMGMYbDS6BlAikZ6kUsYsGt09FfYWQJ5BAPZUaYhl7ebtayESlR7ZaNHot0f0MpEIkpRBLbOTt5SAZ6wrZkVSfRlPqrIq6ipYcDTTCiSKZDjGRU9OEs61AtiA5sqVMIzQ6xy1Gd6KYpBiLpBrDjCy+BvZdkAeUG5Uur9Si4VesomfCKYg9uyoioX9AmDiLr/ZoaJLUWNJraTilpKWjrxXdXrXCtCCkloQaYAbIKPiKYRUOSZH6tHX/jcyccrzG16qiH4yBhreiWKLcCDmr2rm6T8iAJMbq+qFtnHBp3U4Q3QyY+QJzU7GkJgViIhudueo1JEOZIy8e4rW0jQtfmYo+vMVgA3USqo+L5eN2iGWUc0Wg1ZDCsqKNAWk7cwxPAS1jA8bPCCTY+RBm1nLVPkj50wNyoo2FDEfb2msFZFu0Xjkmxkei+QHkI7lqHFLRskZG9Oe94rW9BD4zMMQCDfSAK4gm1k8QS/zKUzEKt0IWLB16dBaFtN3LrF8BN1UDxt8AJNr0jEBMSxxNRyObCOTiCdecrpzRhLadUtIbUEhmLDXY/YWTUzdfhEyao15ABiUNivan+sLpy4wSmscdbl4hw61hWwPmUQ7h0HzIEXP09pBC3uP2mn7pcsZrWs5Q5uTLN6DnctFCp1+iSLzmteGYqCQF7ZfBlpJ4g20AscTtHBHkHEg+L3Ez/1143seZU3vcHN+moGGnPANOS4uAFkMs4RFHXYHMxCtku9LbP07thRuIYS5Q0OqY+An0IRJwSoIhNcQ6iPm5WkjznmDnGeuKlHmM9sg7jEGOV9g3N+BDRbQUYo6fH0I1QGp2v4/KVUJ75nenzAEKG9lS+MpBT9hSROQqVZBwYwo/o4d8lssVuNKVaA89xU0r7ByY0WTAMV4kIU+EMGEYP4TaA6lwfsbVbi9Xbu2lh3hsCpv9SAz4Hw8R094Qy1jBzwIgO3exUnnjtZfOQaHx/VXgJzLoMhJztJcglnmBn6eB9Me1Mi1vlGxBe2pKSUPMsQrNWkxYOeric+tGUClxhljGZ35qhNyMSy04Q52TU3vrjZ6zQke2wtsSfxn0VknQmSWBmOq46R1kTK5UtHBu7a2nGIpVhoKzLVozocWgfXVAwnYRKcjWuZklJHDjKzpO7a0bnsWnKnjVVwptS3xm0Pb0jIirFhJ2SuLm3RHxLpRUUnvsfxiNwue8KgPfm8QdaAYIM/pwszZER9wny8tqb03ho8+ibNzLpxsGt2rg/8iuisA2g9wxN+tH5Habonla0J6a0Mc3r+z8v4YMPjHKJPAfQabETX73W0192kuvjdLLQr3dla1hRc95GHyQFUjku0NehJdiGvla7pIlt/bOORawvU9V9lpKuWdl8O4y5RDaNSHnxYtKcLsOt6C98vQJfXhI9SubI88ECTNrjY32lKSQ0B0QS2zPzksDiCIukvmZtTf+rt1fLYXiGlG2V+FDIyZcMnbW60QSvLNIIczP8TJ9RHLWuEfSgLTXzUGgRkJf2cGEaMh5pK8clq14/MR5GDtfuqXoPBQa0gwv20LEu8bNpMxjNL85KP1yo7Mg0NgNby9EZ79ycfccfEy0Z7M3EIrSVPxGzlF/SsZWd7lamocRvY8OIOGWIngZMYJG4xbZUuYRmlNKP94xicqfSCPK22bv0HqMrY9KzzIJP9ACEGbm87JwhG7r+o07ZKtF8/g3FN407W4r72uJkZZx1dh7wE1J/LeDnCgvXw1JcoUF16Ltz0+pQwQ558mUB44ohn6hsTvGRyTBXSDMmMrLViDZ3OBm/kfb3vg9Jw8dQ+WFV9IvY3slybAMYon1vEwO8lEukJQyj9F2X/+0061zifLA4at76pZY89rG/tvlYaSYEGIIM9fwcteQpsXX5Pq0zT+57WUr79vVcGOKJexiYpvhMNiOW8ohOUYQJuzmpc+Q6sWXoczR9r77Uw5Med6Hm4Yl7GfCP8Nl6ZYkx3JIv3gh9ApIu4X3g9peSq3/PeVpq7rWUGYXyWewd2yZBy2x0fB6O5JlRk4gL8LLLCDlTNeILkuIGVtqpHCE4nXouzlpS+htieOZOaM2N72MKTFz50feapOG60qS5lyIZT7h5a4gGesKwS3qtbSdox+r4rA3uznRy7iqfzDe10mg9id5OiBMfM/LX0MylBliK5oqT9A2ro1Shcr2GVhueD3RF/6D8cYuYp0cZ5JoTs1AroSX24XsQmxljRdoGwn1aNPK5thDEFothjBhcZPGM3sqwZJnkumWEGZ84aU1SKo0Rmit5rSBUrsaUfZWfj4wPiNLeGc8dIUjDyNXO2IRvPQb8loiK1BC4893YMrWYstaufHQJVFeItlWIRrlZSgQnVlgGcsSjSf0jNK6nUDZOAMmplrCZeOp7zGTpDsZUS8vitDfIJUsb4hr5y3AcnRX2bmEzzee2n677Joh+bpIFMLMgBdC34VkEVZb12/q0/CuKBurOCdzJh4y3vrS5STjq0Cy83L0kHLHW4RVs4b3WuGX2+KojKeevMsckvJkxMoVrzuG5BJVZesHrwUbv8IfCxPuGW8dZMG5JOk6RKPcxNCDIeMR1c1q9A76C+vNugsaTz24cpK2Ql4XN7OCpEpjBJWtI6hPHatCt8bE68ZT7/0ziZFmlXduQyBMkHJzi5AQawRVUoMJ9PMGFHrSlvjVeGk/A6xHMv845Ly4mQ5EZxNSpesbOUEJv6jAsQ7it0w03nly6UyS+4YQS3jNjaKUFJJFSBnqAg3+dAXu6hCNd/5QjI8cJPv6eYE8Oz+EOg/ZiYhW1wRoKy8MWu+pGq/sodQRTjyMNGB6RiDMvMgPoVdAyqwLRJRHY3N0QmHn8NrGE5f8K9pD/yNtuB6kVn4IPRSSZpgioMzfAKLQEoV9uHc13vcq/4pw0pcfQprx2RBL2MQPoVIguQX0WRpLoMaYanXMpn7GeNkDdp5YGunGm84lbRkbIAgTF/FzAxCdaXlDPLsAFVbQvTy1NC/Y8Fk3/2kTKi9eJtG4ECVG6Nnrlb9pKWnSXSCWOI2fZa8f8t/CaUNjCXWntG4ngHT1+Q2H7jIVYsf4EL+piHTE20GYMIwftS5IHuGUPV4B6plCPhUzDxjb5y9+E+mNFZCIUMoRgVZDJiqc/8Fspb8Qy1xpbHYRqVAHzCYd8jEQtjGaow1DSoimkuUVje2ZQk7D2PuoCRuSLukm05DNcPRhEL1gwRTGbKUYYuuN2nITlVkVQ/pkXsPUQXrFUShKE1O9YFLnCRhK9VPAvX8qKe7M2Dm4eyO9slohR6V47h0kY10hlrnnhFC4tXT0tRBnaGz8l8fMKi9T4gyxxOdcTRgyILGUPz2goUtXQCYWGhv38bmCQ/qjTVaJWQP5Mq56DWmiqFB+EvPKgPU+nMHeRaRnhrchhBlLuSIhJ0J0xbsNQvkfCKE/9BdgGUsU3EmoEiJE+maACSDPytVQMTWLJKkFCIVWquiXWBA2eT3SOT0VGvKJXCkKv4GkH2aIZMUaSkPOiy775xu0i1jPJp0zuyoKGnZy4uscIWWkISIpDMkx1OgiRk+DvspfSO8shyR2la/dQfTqBLJoyNOoqOu0xEZUSWqSSfesgTDxveI7hlU4psL5CYH8D4TQM6LrkAHbH0H6ZymkVs5+u2FIywJJzhrI20YVeSZIGkItJh30Q5DP4UxR+CbkucSxYA2NYXaOiilVGrC/EUgHfUgJZNa87RiSWxwVLWsg+YcSzb4fg+jmQC9eqoeUK+jx8/a2EN2UMNoN+VUVbWRDtsHaF5EeGuUmyFKy89Y4prAwvh7yElFZxknQW0gXrYB8kOL+qyFphxOE0TJkx9EMOxGzZKk+sgRiifX8PSKkhcyimAnkaqNhxlSDjQ0w6aKHKSgz8/nrIURnEUX6MgOyu2jeFeOl1lvqIzWYTfF3A5iMdYko0g/nQEJUjygiW+FtsAlhJn20AvIzyoFfDSkjDRBF2uEMyHdG8TmYdjUmR+quDWKZW53wjRBdyW6LIPoBIVRKFJZ5B3Mgn7fIKkfXaaARxX5O2CRmp4JYH2QP1WzoiZB/uT5Jsn/vN8FYbng54cNyQFKmIW5xbgZ6Wlkl6XlDplK7E9SNQnTfXcISlmFWL0lGbqBTUo58bMyYXWJnkHZllaRrxzCz2hmbxySPPTK7QnWJkP15t4UseV8MczJzRrFLgejy5wdcIbzFYAM9yO+OkCTPOn/IzSmHUmgO5rlcoUOQ+R/qP78gSeowUGY2OIUG+WL0uNzgYiGDyypJ9+2VAszFOKXYMjEZyhw3sMwjkNYlybPeBGQRvXGKOjtMfDYXuDlIDyXJNA2UGVuUY28Ro3O5wD9AVi9JtoWJNBY4R60LkztJeNUZ6DHIkf//eAgT23rloHvH6FzCaw1SW1Y5unYDtYRjysHjo/QPzHCyiS6s6Am5eEkyOIxl9nCSmi9G71p0u4F4qbQ+klkUOyT7zzlqGCDdlODCLUVAfHSgj0Q4SUH/XTmbQpdBqdKYomK7D8hL9ZF7YH7YYb8I0oXFdjGQABPoIosUdFR7ZSg5rFjXQR1pw5f4AYYZG5XTach5IF0osw/x8cmYSTsuWbcWUegJSOfyIcoUdCr7fvwh4zhFokpRuvzpEf+hFsOExcr5bbpcineJKtKG35CaYoW1WgwRgPpFlC5xMz5DkA0wW4s9BKEIVEsonSqNSPIVrlCFscyZSoibbhiln6tHfkKlwo5QDGqFMJ06TUjyDz6+BPOFSpAx1eqUksL0cWZa3vEN/qywllkkCkXpMpwuMRGfYL97YJj4ravCUOeI0x2Zsj8QH2KFbUKJ88MI1IjTOl+SD1D3lWASX1sgilApdugSw5B/azfYI1FC3a4dWg+okt0WyXd9TwQ6cbGMbyu2aBrNe1W8bJF6NRmsJT7LLhbVuVnaorV+yC0UlXbHUxvIMvoq0b49gdps0jpF6pOhzPnvAnJu319vYrBM/FbVtYaycNS926a17sguClcwP3HC0m2dBsyMCUrAhGrg4LANsaa+iebNUBfkKlyzjRuTSw1uH7SeKp9sa4iotG4noPQyThwqcfbnnSYGfIFKyAP7Px9inZcJWkrVVwptMamBvZPvcAxPZMB3rES9bALt8BmGuU8vFBiwJX5dqbDUwAg9w1/YzzebGDQT+yuRz7kBH6Emg77bRQpN0ZijCf3NNzigT1oY+CcqwZO+cqD0Q59g1Ab+hUr4Q/nLHD7AnAMV/DpGKD6lCKpISr8TTgxyvHS539UU3hJHKVfsAoXXJAimWdny3tcq/FVFngkSd1Dqu3cvlIShypWMrOypGNYbuYgeyj1v9/oFcl5KppQHmsGuWJ6RctMXfsEahbE7efLU871Asf2yfT8GkasoVSwUHDXdBCH0jo49RSmypSXP771drWK9iTko9930+AnV7LwcXVbudnC/tDnQL46oadTedpef/WHvYBvs6S7XJYrDeiOKocqVB/atOyb0B2cl/JJyswZrungTh2TCMOXaxTZ/z0dPKaljdhjDXKDcrK4zN3HJx1Uuf421rnDChHr0Xdzt8HwbV27W3qmauOSkane7w77+Tsyq1m1TePiL/+V8P43HT9/wHhpR0UvlEH5tU5uJS265NyqOKJV/M3HJF1mtki9vauKSna1OSZikuIRl7tgb/yanZExV1xNxCGbMnYGSMQ2aOCMT2yKK/VSc0kUO4fc2cYatHYuSNHcaV7CEzfepfL0mw0KminPKlXqZWRs5HagqP6+gJWw6fhUXlSc1MGH91lXcVJZsjQmThq7iqlJkHgtcQuwhCFXcVXpchyWeOyMmBNau4rQyg5kfmXieGUsjRs+jqVPFeV1uIm/pRT+nxRaZ2D/cYkUfdhNxw647Ko7scpbxUvmA1frv8PuwhNfrFX3tvof4C57X3Gcc6yD29Q7rBUcaYvw+U/BZ/T5jLKG378fEtnX4fWYUvp/Zuu93xL7fDfh+TLjkByyVm2Xc9QOoyvfz1YHvdz7fL6dm7tHvowP6tIXvl3Wzvl9jrft9WbMu/8z9vqzXt/jzO++qbySqvJoQvb/hil9arf/8pwJGNWNFK3a342RbjrdiZ2MW5zP8THTNWduTX8NJX50Bcx3H0z2YiK68aMQ8XSpiRkH8jKAZ8rBsx5nhZJjWHzIQ/+as5+JgfzoCYpk3JEbY9IPsqRWas3oYKSawH04Nmc7B/0IeR2KEnZwg3mrQBnlYdObBavSZ0LE0tGYvu5lDtiwxWoO4SbUmyGd4X+xM9Gr0d+IWsy5D/l1i5ITYizTArP64mQw784jVYiCXITF6UxChLDnRAL34b7JcncF2nGWUBPkciaEagiRGSH5tOWGyHU9HU5azOW9Ih2RGZyFnlV5Dpo2lmZE5jNR8hrForDZIWMiUGcxYCnmM9PpgZTLvxG0W9RhoFYabzLCMoRAngcquGMk1ZsEkdmOovTeDmULq7Y7M6ANETZfcC00OO3KNwftCdqZk5m0lQt4ht28fwcMQYnD///GQuUsNdcGQL95Paq3YZfI4ryEzYF9ioC3KDUtYBlERTpRaD75yYbbjLKwVzBLlhmUWYVzEOrsqMhtMGB+9+INavYFeV+1yo/LzgTETuyCqUmajqeRjEIGo98WMUUlOZlzBTF4qry0m8fF+0OoNdniy40Qx6nbyKmCsyecoikH/hik4dNkxh5VjVEqcpVXAGE5GUoDpocH2S0nPfoGe8HFZbXE3Pq4D+f9/Af2W/GBGGUjtLSsaTTkfA/CC7OsrTQz2OtYrP3rDzI8gVSarQYTw0YPviOs14AUqCRoxRqDq/i+p7rznow2HAbMjZ4JiDa4ypFfrAaklloLIqSVbuJhUyATbnvoPA7bMI0qKWuJslLrHXCnNGk0FDwPxI5uL76HQETNKjsx+EShz8ZfiRtSdDzy05ahNS+cr9PMrScqEYTCz1zfJEt2oAVPG085uBHmzbCmuVejEdcuSRTLzKczsevUuROdg14ZDZON5dlZwZmxU0vRicGb+XXahAkaPpJDVQHzJxtQkX0XBR1X5+cBYnqgx4oxpvTHXoU+sRg+bMdS90obz1Sm8JY5XEvW2LLHRBnPeh/BbG9ehDlyax+Jmm5PV2VUJsqBi+JyLlCnqxBNtMLXV4Tr02Xm48XS1Zh9ZvchdrhXDRkeo5Coza+0wZt9fLTjkP9u4DXXg6mr0osbSeCmy1hHWgopph5Rk3Rv/JmeZd2wxta29bpehzUdRhhlK/PPI2t1frJiex6H9HwSyRU1mHrYYc94H+1Mbl6H3TRtPt21HvHUWWZmRFX8DKLaW+HylSr5+wKjsMeb079RdiBoysyc/Hm/dJbvwtIBxZGVxaAueQaAU26mctpKxj1bQJvPx+/VWk5G7C9G3W7GzB9/OO4Ya0zQPGUXpIAK68qo5a8ja+202WTGugTmFldaFbnI2Ig62y5j578drTf7WXda5kAm/IxufOqFEMbfEGiVrmTHVNmO220Y97mProp2+qNgzY4iSty3aZ4xpZZrDdK+Pl9UqDhMtc4CSuUwYxoMxu279JV1py5SklF5F8ZjIhF5K7jKxfyIPxph9eK6g7Aqyqa71czd8FmRmtZK9kcaCRvkw6oCJ0T4qlsfMyvmG11HNWsnfDzgvTpRSdl8d/KhaAnPWO9BdphS/DYW36K5k8NA/n5u132PvxAhlV0Vk1WU7TVY8n+oclByu0zI28KSUKpn497QUF4moevpH/qE4Z8bSRSppfG7r4Wrtk/fphYL9e7/FQX3fpkGB1P2lD3HrFyvurysilCqZPOLH4W3t8z/vy5rmS9btvFs+8K+O2N93W4y3yqsJ48TORk5NEyWX9/0YRJ3Kzt9hW9u/dX+a9TTokOura6tduIUXNg5tdHiH9n8QKOkc3qL7zzrjsL3Mvb2V2NdXCirPtqh4S27qvuWD+r7NAX/W4io2drrbNQ7+2dNWMjr2EIR/YRmfHXM4Vt3993+trHl2aoqrlxZBGjyelyy+1TdqPWm8Zz5/43TLaGZi99qVpF4pE5YXdJbVVS/crlZa+cu//MsrO/1t/eVfTqKVVs78X+ZvhFnDNWxBSewvsMRzohD5u01GSe73eRFv8/nhliKUBO+EJd7yLqc6aSXHs8/4OT1J4hjXrST6bqa0cq9R8N/Dip5KskcaLJlZuxQv8TPMnDFiJeHvc3hX5RFqsMTt75NdyfoqWnJ8y3m4nyU+a7HKC+oqqd8bZmT9+3W42f3c8bpnoOR/V60tJVviukW40/2sejczUH5hnREz7Qot8avbdP2IR6h8xtpLtrhlJra5xTyYuG0aLSl/8j4jG7J73pDwGt0yE4bNbgbK1xx69cxY+uyJorLEX1t+lU50R/miQ58xMxtuPbtomPliWH/2cLGHIFS+aqyDuJlzW/Wxr1wMm/j3V5l01VcKbeXTrpZdJJ/fsoR5lnBsEw6ayngH/16RLYX/nPJ/7zO8xWBmlN3UVTPhEjOauBry55/a5/zFEmavfOa9fyopNrOEsFH8vY8wsFHcakMTAU3EMt4w4d4oBsaE+ZYx9BnYxuiwk1Mp5X/3qqXXLllyCZ3oRLgxpfqwU1InOnFtJUs2U/n5wHgLqlr/V+v/w3UP;" vertex="1" parent="1">
          <mxGeometry x="240" y="1539.5" width="51" height="51" as="geometry" />
        </mxCell>
        <mxCell id="aBF4gKf8o6EeW--I7lqI-6" value="Download the PDF Files&amp;nbsp;" style="text;html=1;align=center;verticalAlign=middle;whiteSpace=wrap;rounded=0;" vertex="1" parent="1">
          <mxGeometry x="291" y="1539.5" width="140" height="10" as="geometry" />
        </mxCell>
        <mxCell id="aBF4gKf8o6EeW--I7lqI-34" value="" style="edgeStyle=orthogonalEdgeStyle;rounded=0;orthogonalLoop=1;jettySize=auto;html=1;exitX=0.5;exitY=0;exitDx=0;exitDy=0;" edge="1" parent="1" source="aBF4gKf8o6EeW--I7lqI-39" target="aBF4gKf8o6EeW--I7lqI-19">
          <mxGeometry relative="1" as="geometry">
            <Array as="points">
              <mxPoint x="680" y="1540" />
              <mxPoint x="680" y="1470" />
            </Array>
          </mxGeometry>
        </mxCell>
        <mxCell id="aBF4gKf8o6EeW--I7lqI-40" style="edgeStyle=orthogonalEdgeStyle;rounded=0;orthogonalLoop=1;jettySize=auto;html=1;exitX=1;exitY=0.5;exitDx=0;exitDy=0;" edge="1" parent="1" source="aBF4gKf8o6EeW--I7lqI-7" target="aBF4gKf8o6EeW--I7lqI-39">
          <mxGeometry relative="1" as="geometry">
            <Array as="points">
              <mxPoint x="580" y="1565" />
              <mxPoint x="580" y="1565" />
            </Array>
          </mxGeometry>
        </mxCell>
        <mxCell id="aBF4gKf8o6EeW--I7lqI-7" value="" style="shape=image;verticalLabelPosition=bottom;labelBackgroundColor=default;verticalAlign=top;aspect=fixed;imageAspect=0;image=data:image/webp,UklGRvYrAABXRUJQVlA4TOorAAAv/8F/EGpR3LaNY+0/dqqv/CNiAvRRah8+lr4KAlNqyMElcJBehKKBcsJij9Wen82BnbQFg1fioH1HbUFIQk/FNP+/sr1t/M7yKjSNn3NuyWJZZpSDzyso1/e5bkOZmZn5XXF9/65znet6zlXyCTNzNCfMvGJmWGUGFebEVsbxLpwVgyd4zVMMMz8ph3lV7oo5aBiaeBVO7NUTThR6AWXmViXHr6DckFImq9xwNJ4Jk0PbzDCTw5wVuh7vPCpzK5e59TLahcEqhmccxvKKmVtnyszMzMzMzC5zw2goBDyaymWu5ylDSCnXZSbtytwGykxSGeyO0pmUVWbuCgOnpF251a7MzMzMYJUZlCmvmCm0oiUAbhpLykFmOa6yHTtJJ/0/R+v79Ofybj9XpYdhmZmZmYGSAEiOGql+IENFVINYv6f5ZK+hI6rxIIeT94CkkfkfEmjbNu2mX7Ft27Zt265t2wxq27Zt20bwa4drAuxI265scrNblZYgmZmZm5mhppnpn3ZzDzMzM6NY//+cU+d89TkXhl6DI5eX8judHRjfNXSo0NSqLzKF3oCWMHI4jjlSZiaxNLwAM4QcOnLMkLuUTmRegCKznfUyBDtQeQvC1Ni5Q96DahYg6OolmO24q0NvYeIupxOb3aEZMi2gU0cOFZvtyCEz2x39m1A2KzAzRl4BQ+byFjpU5KpTNZA5+sqhF6LMNZljb4G9gEldA6FsSbJN2/qh83aubdu2bdu2bdu+27YPt217l2RJtk3b+ou1pta9z7aNlm3btm3b6l7btm3bttX/CVDV+r9a/x8u+hT3lWox1erF9uih/41jgi1GQvrKISbas9nSQ/YJBUcVL07pzBCdTaJiihcPIQc12yyJHY+RjGQk9MGeTrFibbpcin2pZbeZtQENdiV0GEWVRukyAg2g0HhKzyfQakLvptBpQt0i9CsKf6U0NhPoN4U+EuoRhS4T6AilthJ4KaFnEnoUhXuHoGJKJ4diFRoK2T4Va2VfJ1keaIzmdmlUn8cm9DoKH6XQPQo3UapLO/nHCfyUUmcptJFQ8wg0iFKF31o6KrtkuVTyUZLlUiYUZRODHE/ovgSuJfRBSj/8cS3aH18JhffPgiL3pDFHp6DNknVrka8xvhBrLxJV+tjTpfRLSnVosRPqP6UfU3gvpeeGqB7FOxfblULf4dgen9JjXoJArxO0ixL6H6GvEKqh1uQpO/bXJzi2UFACgcYSag+l32l3JtBPAp+pr9nSup1A8n1qcULPoPCNBO3ulJISehuNrkmRu3qyrgsxcCqFFhD6boL2hBRun+72U9xXysm3UJQmDS6ZLoVbtZek1PfRFy8m00I5m1x4Tfm191xNTKiqhyLJkl0ayN/ndyZoj7rw+jYuwXpxau+uveyPE7g+eegYyq1lx0C57UvQXpfAfyg8JRVrZXn1wp9Uo/bEBP5M4eHl9BNZOTUwSpXfofbMNVIoTkaFmGMJfF97agqvialWl03nPHrttRdOWGVJpdK6nYBAvX5ce/Cll46+ljw657vW3pxAb1uTRQRVJKGatXBDzCRnlyIpYp8y0oASKfOIVGnMQ6bOY9IMxzzXc6UbzsiXJh/zXM+VOk95yId8yBIlSnxDkVCsEYlefw/lEI0amV+LMHnskTKPSTOckL6ckaHMyVhXlD1eUe50S/nTAxXOT1S8W1PJ8kqm9Z227D9p6/4beyvbf1Dp8kYluw0V7l4of36kvOmecqYbyh4vKbOuyFDn5EuTp6RMQ5LHLs7SmlLr6dhTlD/p1rmEwKu0k0OsOc5C6cs5ucoZbyh/fqCi3Zpsbdl/ETi3QCXLGxXtXmh32eM1Y87798c5HGdoQt8lfTaSPenWUqEl7UzKTMo0Il+u8uY7Ws20fhCIdXUV7TZsoazxkrzrSBG78KYp/ObV5U6yXCo9sOa+mQGV/MHTOeG2rt8EAl9dq1vIk344J1Uek5MfTSkpgbxlzlgJdV5zXUbqk3Y4pax6SQXzI5nWn7R1/41bFq14t6Hm9GVGitSHE03hXxcvb5ZNoH2a2/jUeUKu06ls/UngvqXKnq55LhoND5rCrYRKkTYEXqz5jC+Up8LdMwUC117w16dOEzjQ639lSbNtzWORj253ZesHgdv3J2Ndkts2vUMSqmApQ2L2W799RcqsC7IUDTxhW9ZPvr6MOMAuTaEvry5hxkfpl9ruAZU339OjwDs2Wd50R4o0wCZN6FdtLpWufPk0be8ml7ihoTGLTvkb7NEUPjUw2ULhiARbHvmrBxoatEf15LRFE2iyZNk4gR5oGzf51SpdXA2N2vdUeYIthO5ci1y5cG3jH29t2HryqcH1jqflvC5uLavtam3qZmvubGpsKaq2PC4I3pt0/BF+sguCwjlt0IRuSR46hjJlfLPEvbnGsPGnyTdz+vs6VmfI2i6mpnrHUo/ex0tywc5TpgE26EUm69YiiUKQR2j4HW9tWH/sQT5Zz4vGlgdMW4fFe6LPZBylu4fcgh7ltUETur88GSulpLCVmn6u2ux2pC7u1vtuiR8a7zaRPVpaTjk9RG5BkMcGSv84Z2lCmLtr9MpNvwzrj9zNw/KoYLXGkIkdU+wP3J0oueAhmoDppcuSYqeAKmlYf5RuHg2/lZvwMx8uuaDp3DC9FklCmQM0OF05I7D+yF3d89+XmiwjT6VLLmg1N4zAz4ciR+YLqiUpitgLmSbT8fVB1xVRkgtazY3Sq5MiG/8bTHzFy4agmp92bti4ygAbc3Ck6zhDfCUXNB2P6t2TyZCeamzzQTX/RldLk8l6U9kF5U93oPQLyhAKTcWkiD0KRBGyL8lkvlp98NSzQmUX5EJ99QtLkKfB1BxU8417d7axM5v+rpRekDafAtKErpAfx5YD8g1Fo3BZHmVyeJbjD/eT3oKbAdVYTHoQuEhD8wRRbsqDGX02Q3rBq4L0h0mP+WIqXd+IZmCwk4s2slr5BXlBhNosPQh8CZImHxNEeZLxgSaXowv9K+SXlBuz/i5IjtiuFK4NUjgan01xfJgnmRAov6AwRlO6THIQ1rYa2lQ0MeczOfFYG6MBxvSyGEIflhxvC3nEINrU27mcBOxM1ADBlWIo3DpWuXG1kF1EVf9xASehB5K1QFv3XzQD0a8sNwi8AZIrqvtz4r8jQQsEZdULMH8pN2qCvHRUMecyOHFbGa0JFhwPofQ1uUGoF5CmovLeGMfJicYEaIJgopD8MdXqMqO0bidYPyQpqhOPDeBjZKb3G9rgOCA6Bk6VGb+nkfFB9AMCnVw0/19laMMFYyg9SWbQWDlBSgCyXxVzEX4kRSME64DMQ2Y8PiRVngA4/YJwHsaWB4410Ecr7BRC6FcyIwY5HpJ2OAFgdDY2cpD7tsTQiqcDyb9xifG2kHkjvDbEsvvT9zRDNogeicSYMyR9mYMwWolrmKXdyzO0Y27I8CQGhQdCyqwLICcaGzAi3cuod0fr0ft4aYhCEBKVLzEoqmGQXBDDZ3PctkxG5ftOMS3E0JB5Id2VGPcMaRljRJxIYzGuOuixNsbQkhnKHMiLSwwCj4OUNV4AMjbcFnatKxqaMheEUtMlBqUmQnaKMvy3J4zK9YEGBjpPNy/c0JZlj1dAZiExrhaSB2acdGJQe3U9YrXGUOHnsp8YGrPc8QYIpRdKjAnxZWwcsCOhV1urTe1UdU6LIwzNWe50C4RQi6SRYWzsujLqtme3or+vI/Np4d8MDSq7DMPY+PmHJ13PtjwquE3Gg/z4S1kfurChTSWY5q02aI9YQvBlpCGF8l5ppvUDf8MVQzGTK8nn03pQpfw+3Uym5Q2/T59+Ub9Pf73v9w2+n27a9ytnvML3+0k/gEBj3S2vH0DgKt9v875fbFcKKfzJ71M/7vuNr3d+nwpF+a/f71O3S+Fffp/aNIEv+X2q2O3u4N39vcOairXySERPqSG+h/hrrdZ/h98W6UuVTZOQE1+QwNP+r88tEerk03Sd0i+94iyl2cZjQseNoqp8BUJf+RDtkeVTI4//h1+7fu2lJdNItt3nxrTXlkkkdvR3R+mH2otLoye73T4TqE17c0lUP4Fn/4327FIoJv1v+oeU+qs9vARK3nctP60B7emlz3T+ML/2+JJn2V15d+35S0qdtyf0XR0HbF7i/GddOk74qvKmtevXccImCsiaZN1a9LcN6LhhmWVJIGlS0GYEuqjjiEVuRtLEBIcQqlnHEVs4ncDNYg9BaBlxTFjMhGuW+cESv3LLxPfMfGqZNyzhtGUeZMYWy1hgmQOshowqWnKMPBMkXoDQ/RvWccSOlDc9ELgZ2xhtGXctE4cysY0J95i4KmJWsYvCwd1iu1K4Qh1XXElTgYsd2v9BYJljmNhlHM3Mj5a5khlZkYebCq41FALt0HHD5LFH3grmJwKB82CJ443zmfHbEjZFFBP3/RhErvTb/6D5Hc7ppx1OyFAXdHgLWbI0Vcmy5YS9Z7bMgdg5iGwxPlEAxhhmvGXi6PBTScd9UrFWpvQ5zedwUucJZdYFWygVxOHZ1W4ZD40oLeO/Ja7bK8PKZX57cprHbyhZfYEgjs+ObUw3AmVG65tH3NRykxduSdv/WhnLko8KJCA7y1wrEmOY+T0iDo51ELtGfym8XdueZjihgvmBzIEUZMfEx2IxxjLvhE0/t/hLbXe+UoEsZGeZP0RjLLGTmbX7fvwh4wqzSrApX6lAHrJLFI4xzLxZxSnauECot/sOta2FPiqQiTIyTPwZFjKFtzJKvdd2PmLNgVyUkkl8ohmI7ckIfEnbmX6YMffABzDmApYrtMfWNnak3PGWQDrKyljmkT2+0ZYX2E3ltyFlGvJRgW9gLPFcVdcaysJKt5YKFHqm8fnGFPgIhplnuyqqFWp8mWVBICUlZphwfM8f/1tWTB+WgMsT+A2GGRtnIKJGCPRaw6808B9MxBwrIgKN1fAfDGRSdsVkV4XtGctSvyAZWUlNcXyII5wUbEcfrXYSaA4KhhtTxPN724LlCaRSHobTnJpJSUqki7w1wMqsp/KtsBcOoVdodD2BjFu7Jc8RTvSQazbm5vb88UMVwYwmP+q52rp+I+2IchsmMUKeKs3EWOJqwRD6uAbXkmn9IJB4RFvGh9lNqlmYTxRKiDlWgzvS90DuETnC2ugMAsWACdK9MvRE8g+ocqc7AulHVO4m0zjDhH0CuUUNTjucEPgBlFUxfgbAmRMTx9JBuStd3vEHaMuwFsQ11FVRUPxv3jCo5sAnIApvR5hhwmRRUKhOY9MMUwL/gPaAXQfborUYukCg36Cd+wk0AWUsY48YnlJjPzrwFbYMNAPKRJR8hUDpC5icJ+wv0Me91BrFxMMiWHIC5icDn4GqXcQaZCINAQIg9AQNzZnNd6D4IKEs4ZgAasSkLzMC/4GCrAgyESPIcTGoAjV2536E4x8gS9jlOAotwAwo8CNoOqhg+EQLp1H6MaZ6f4J89YAxzJjrsH5r6GsV9SkycuIkUJj1VOesbWMWEkjRH4T8oeAoxAEYYwm9nUXgnZgHlCMtQ9YuusyiOAkVxhLuO2rZHwKpJZCjNwu5WtFRaAtiTFjR00kh5CANbVmSZChzIPcsvMyicRYqDBPrnETgcZiKljWSJB9kzsKjUsyQF+kgAh2DFGlSkqRKIyAkOF18lpxg1Cc6J1m3Fm0Lki+QpB2BPIv4yFevMctyTqi3u4bWLEna0NDkoWPoAolRxmTfG++pOWZImGySJAtk/bFdKXSBvIZxl2uIYWa+Yyi8CfINgSTNWC+A1KhcgPbAMHGbY+4QMm9Zcp+QO3eFp2Is8VedDum2hv6gJCmQE9JrVyBfHUCMtaVkh8wK06okyaKhPXaHGD9hFugQCs2CxGeWJOnLHEzj7uCogjChJfYQhM5oH+Q+Aznao9wQQr9S7kD+JoSYyEX0cER/twWpR5KUPz+gof/qFnEBxljCcEecu4Y+hCSZKIZElVazyDNBYpAfL4isshwAYcYJR1C6DJNpeUeOnHALkIT6q1kpSJVXiCBoT8h17P1TSdEJhGqAvGwgR0tqKKVvq2p+W5CqrhFRRHsIYu7DCd8JySdHbi8eQ6CxUUTcsINUfSMhCkteMLkc0F8C/YaUM14jRxaisaWjsovCajEEsn1RkLtcQZ7TAdeooa1KkUqWV+IxhLqjomQt5kD89FoYoQ6EMLNjzx8/VOFvVpD4zFJkQBp74dEwcRwk0ILCOBRiwkIsf1cLqS+QoW+ssRRuTdlX2tFYwiZIWCsKY6nTfwU5I/5eF5KhzJAhC/4G0COqaJl4GxLlIWHQhyDMPMPfV0O+XoakHU7Q4FeKJjsz/kASIiyO8DaEWMLfRfKW7MGsmgCpcH5BghTWYEodUNE+nIGmZ1gciRGGmGPhrTUNrWz9QH40HY/qRFSsoQTjEEdWWTBMGMYbDS6BlAikZ6kUsYsGt09FfYWQJ5BAPZUaYhl7ebtayESlR7ZaNHot0f0MpEIkpRBLbOTt5SAZ6wrZkVSfRlPqrIq6ipYcDTTCiSKZDjGRU9OEs61AtiA5sqVMIzQ6xy1Gd6KYpBiLpBrDjCy+BvZdkAeUG5Uur9Si4VesomfCKYg9uyoioX9AmDiLr/ZoaJLUWNJraTilpKWjrxXdXrXCtCCkloQaYAbIKPiKYRUOSZH6tHX/jcyccrzG16qiH4yBhreiWKLcCDmr2rm6T8iAJMbq+qFtnHBp3U4Q3QyY+QJzU7GkJgViIhudueo1JEOZIy8e4rW0jQtfmYo+vMVgA3USqo+L5eN2iGWUc0Wg1ZDCsqKNAWk7cwxPAS1jA8bPCCTY+RBm1nLVPkj50wNyoo2FDEfb2msFZFu0Xjkmxkei+QHkI7lqHFLRskZG9Oe94rW9BD4zMMQCDfSAK4gm1k8QS/zKUzEKt0IWLB16dBaFtN3LrF8BN1UDxt8AJNr0jEBMSxxNRyObCOTiCdecrpzRhLadUtIbUEhmLDXY/YWTUzdfhEyao15ABiUNivan+sLpy4wSmscdbl4hw61hWwPmUQ7h0HzIEXP09pBC3uP2mn7pcsZrWs5Q5uTLN6DnctFCp1+iSLzmteGYqCQF7ZfBlpJ4g20AscTtHBHkHEg+L3Ez/1143seZU3vcHN+moGGnPANOS4uAFkMs4RFHXYHMxCtku9LbP07thRuIYS5Q0OqY+An0IRJwSoIhNcQ6iPm5WkjznmDnGeuKlHmM9sg7jEGOV9g3N+BDRbQUYo6fH0I1QGp2v4/KVUJ75nenzAEKG9lS+MpBT9hSROQqVZBwYwo/o4d8lssVuNKVaA89xU0r7ByY0WTAMV4kIU+EMGEYP4TaA6lwfsbVbi9Xbu2lh3hsCpv9SAz4Hw8R094Qy1jBzwIgO3exUnnjtZfOQaHx/VXgJzLoMhJztJcglnmBn6eB9Me1Mi1vlGxBe2pKSUPMsQrNWkxYOeric+tGUClxhljGZ35qhNyMSy04Q52TU3vrjZ6zQke2wtsSfxn0VknQmSWBmOq46R1kTK5UtHBu7a2nGIpVhoKzLVozocWgfXVAwnYRKcjWuZklJHDjKzpO7a0bnsWnKnjVVwptS3xm0Pb0jIirFhJ2SuLm3RHxLpRUUnvsfxiNwue8KgPfm8QdaAYIM/pwszZER9wny8tqb03ho8+ibNzLpxsGt2rg/8iuisA2g9wxN+tH5Habonla0J6a0Mc3r+z8v4YMPjHKJPAfQabETX73W0192kuvjdLLQr3dla1hRc95GHyQFUjku0NehJdiGvla7pIlt/bOORawvU9V9lpKuWdl8O4y5RDaNSHnxYtKcLsOt6C98vQJfXhI9SubI88ECTNrjY32lKSQ0B0QS2zPzksDiCIukvmZtTf+rt1fLYXiGlG2V+FDIyZcMnbW60QSvLNIIczP8TJ9RHLWuEfSgLTXzUGgRkJf2cGEaMh5pK8clq14/MR5GDtfuqXoPBQa0gwv20LEu8bNpMxjNL85KP1yo7Mg0NgNby9EZ79ycfccfEy0Z7M3EIrSVPxGzlF/SsZWd7lamocRvY8OIOGWIngZMYJG4xbZUuYRmlNKP94xicqfSCPK22bv0HqMrY9KzzIJP9ACEGbm87JwhG7r+o07ZKtF8/g3FN407W4r72uJkZZx1dh7wE1J/LeDnCgvXw1JcoUF16Ltz0+pQwQ558mUB44ohn6hsTvGRyTBXSDMmMrLViDZ3OBm/kfb3vg9Jw8dQ+WFV9IvY3slybAMYon1vEwO8lEukJQyj9F2X/+0061zifLA4at76pZY89rG/tvlYaSYEGIIM9fwcteQpsXX5Pq0zT+57WUr79vVcGOKJexiYpvhMNiOW8ohOUYQJuzmpc+Q6sWXoczR9r77Uw5Med6Hm4Yl7GfCP8Nl6ZYkx3JIv3gh9ApIu4X3g9peSq3/PeVpq7rWUGYXyWewd2yZBy2x0fB6O5JlRk4gL8LLLCDlTNeILkuIGVtqpHCE4nXouzlpS+htieOZOaM2N72MKTFz50feapOG60qS5lyIZT7h5a4gGesKwS3qtbSdox+r4rA3uznRy7iqfzDe10mg9id5OiBMfM/LX0MylBliK5oqT9A2ro1Shcr2GVhueD3RF/6D8cYuYp0cZ5JoTs1AroSX24XsQmxljRdoGwn1aNPK5thDEFothjBhcZPGM3sqwZJnkumWEGZ84aU1SKo0Rmit5rSBUrsaUfZWfj4wPiNLeGc8dIUjDyNXO2IRvPQb8loiK1BC4893YMrWYstaufHQJVFeItlWIRrlZSgQnVlgGcsSjSf0jNK6nUDZOAMmplrCZeOp7zGTpDsZUS8vitDfIJUsb4hr5y3AcnRX2bmEzzee2n677Joh+bpIFMLMgBdC34VkEVZb12/q0/CuKBurOCdzJh4y3vrS5STjq0Cy83L0kHLHW4RVs4b3WuGX2+KojKeevMsckvJkxMoVrzuG5BJVZesHrwUbv8IfCxPuGW8dZMG5JOk6RKPcxNCDIeMR1c1q9A76C+vNugsaTz24cpK2Ql4XN7OCpEpjBJWtI6hPHatCt8bE68ZT7/0ziZFmlXduQyBMkHJzi5AQawRVUoMJ9PMGFHrSlvjVeGk/A6xHMv845Ly4mQ5EZxNSpesbOUEJv6jAsQ7it0w03nly6UyS+4YQS3jNjaKUFJJFSBnqAg3+dAXu6hCNd/5QjI8cJPv6eYE8Oz+EOg/ZiYhW1wRoKy8MWu+pGq/sodQRTjyMNGB6RiDMvMgPoVdAyqwLRJRHY3N0QmHn8NrGE5f8K9pD/yNtuB6kVn4IPRSSZpgioMzfAKLQEoV9uHc13vcq/4pw0pcfQprx2RBL2MQPoVIguQX0WRpLoMaYanXMpn7GeNkDdp5YGunGm84lbRkbIAgTF/FzAxCdaXlDPLsAFVbQvTy1NC/Y8Fk3/2kTKi9eJtG4ECVG6Nnrlb9pKWnSXSCWOI2fZa8f8t/CaUNjCXWntG4ngHT1+Q2H7jIVYsf4EL+piHTE20GYMIwftS5IHuGUPV4B6plCPhUzDxjb5y9+E+mNFZCIUMoRgVZDJiqc/8Fspb8Qy1xpbHYRqVAHzCYd8jEQtjGaow1DSoimkuUVje2ZQk7D2PuoCRuSLukm05DNcPRhEL1gwRTGbKUYYuuN2nITlVkVQ/pkXsPUQXrFUShKE1O9YFLnCRhK9VPAvX8qKe7M2Dm4eyO9slohR6V47h0kY10hlrnnhFC4tXT0tRBnaGz8l8fMKi9T4gyxxOdcTRgyILGUPz2goUtXQCYWGhv38bmCQ/qjTVaJWQP5Mq56DWmiqFB+EvPKgPU+nMHeRaRnhrchhBlLuSIhJ0J0xbsNQvkfCKE/9BdgGUsU3EmoEiJE+maACSDPytVQMTWLJKkFCIVWquiXWBA2eT3SOT0VGvKJXCkKv4GkH2aIZMUaSkPOiy775xu0i1jPJp0zuyoKGnZy4uscIWWkISIpDMkx1OgiRk+DvspfSO8shyR2la/dQfTqBLJoyNOoqOu0xEZUSWqSSfesgTDxveI7hlU4psL5CYH8D4TQM6LrkAHbH0H6ZymkVs5+u2FIywJJzhrI20YVeSZIGkItJh30Q5DP4UxR+CbkucSxYA2NYXaOiilVGrC/EUgHfUgJZNa87RiSWxwVLWsg+YcSzb4fg+jmQC9eqoeUK+jx8/a2EN2UMNoN+VUVbWRDtsHaF5EeGuUmyFKy89Y4prAwvh7yElFZxknQW0gXrYB8kOL+qyFphxOE0TJkx9EMOxGzZKk+sgRiifX8PSKkhcyimAnkaqNhxlSDjQ0w6aKHKSgz8/nrIURnEUX6MgOyu2jeFeOl1lvqIzWYTfF3A5iMdYko0g/nQEJUjygiW+FtsAlhJn20AvIzyoFfDSkjDRBF2uEMyHdG8TmYdjUmR+quDWKZW53wjRBdyW6LIPoBIVRKFJZ5B3Mgn7fIKkfXaaARxX5O2CRmp4JYH2QP1WzoiZB/uT5Jsn/vN8FYbng54cNyQFKmIW5xbgZ6Wlkl6XlDplK7E9SNQnTfXcISlmFWL0lGbqBTUo58bMyYXWJnkHZllaRrxzCz2hmbxySPPTK7QnWJkP15t4UseV8MczJzRrFLgejy5wdcIbzFYAM9yO+OkCTPOn/IzSmHUmgO5rlcoUOQ+R/qP78gSeowUGY2OIUG+WL0uNzgYiGDyypJ9+2VAszFOKXYMjEZyhw3sMwjkNYlybPeBGQRvXGKOjtMfDYXuDlIDyXJNA2UGVuUY28Ro3O5wD9AVi9JtoWJNBY4R60LkztJeNUZ6DHIkf//eAgT23rloHvH6FzCaw1SW1Y5unYDtYRjysHjo/QPzHCyiS6s6Am5eEkyOIxl9nCSmi9G71p0u4F4qbQ+klkUOyT7zzlqGCDdlODCLUVAfHSgj0Q4SUH/XTmbQpdBqdKYomK7D8hL9ZF7YH7YYb8I0oXFdjGQABPoIosUdFR7ZSg5rFjXQR1pw5f4AYYZG5XTach5IF0osw/x8cmYSTsuWbcWUegJSOfyIcoUdCr7fvwh4zhFokpRuvzpEf+hFsOExcr5bbpcineJKtKG35CaYoW1WgwRgPpFlC5xMz5DkA0wW4s9BKEIVEsonSqNSPIVrlCFscyZSoibbhiln6tHfkKlwo5QDGqFMJ06TUjyDz6+BPOFSpAx1eqUksL0cWZa3vEN/qywllkkCkXpMpwuMRGfYL97YJj4ravCUOeI0x2Zsj8QH2KFbUKJ88MI1IjTOl+SD1D3lWASX1sgilApdugSw5B/azfYI1FC3a4dWg+okt0WyXd9TwQ6cbGMbyu2aBrNe1W8bJF6NRmsJT7LLhbVuVnaorV+yC0UlXbHUxvIMvoq0b49gdps0jpF6pOhzPnvAnJu319vYrBM/FbVtYaycNS926a17sguClcwP3HC0m2dBsyMCUrAhGrg4LANsaa+iebNUBfkKlyzjRuTSw1uH7SeKp9sa4iotG4noPQyThwqcfbnnSYGfIFKyAP7Px9inZcJWkrVVwptMamBvZPvcAxPZMB3rES9bALt8BmGuU8vFBiwJX5dqbDUwAg9w1/YzzebGDQT+yuRz7kBH6Emg77bRQpN0ZijCf3NNzigT1oY+CcqwZO+cqD0Q59g1Ab+hUr4Q/nLHD7AnAMV/DpGKD6lCKpISr8TTgxyvHS539UU3hJHKVfsAoXXJAimWdny3tcq/FVFngkSd1Dqu3cvlIShypWMrOypGNYbuYgeyj1v9/oFcl5KppQHmsGuWJ6RctMXfsEahbE7efLU871Asf2yfT8GkasoVSwUHDXdBCH0jo49RSmypSXP771drWK9iTko9930+AnV7LwcXVbudnC/tDnQL46oadTedpef/WHvYBvs6S7XJYrDeiOKocqVB/atOyb0B2cl/JJyswZrungTh2TCMOXaxTZ/z0dPKaljdhjDXKDcrK4zN3HJx1Uuf421rnDChHr0Xdzt8HwbV27W3qmauOSkane7w77+Tsyq1m1TePiL/+V8P43HT9/wHhpR0UvlEH5tU5uJS265NyqOKJV/M3HJF1mtki9vauKSna1OSZikuIRl7tgb/yanZExV1xNxCGbMnYGSMQ2aOCMT2yKK/VSc0kUO4fc2cYatHYuSNHcaV7CEzfepfL0mw0KminPKlXqZWRs5HagqP6+gJWw6fhUXlSc1MGH91lXcVJZsjQmThq7iqlJkHgtcQuwhCFXcVXpchyWeOyMmBNau4rQyg5kfmXieGUsjRs+jqVPFeV1uIm/pRT+nxRaZ2D/cYkUfdhNxw647Ko7scpbxUvmA1frv8PuwhNfrFX3tvof4C57X3Gcc6yD29Q7rBUcaYvw+U/BZ/T5jLKG378fEtnX4fWYUvp/Zuu93xL7fDfh+TLjkByyVm2Xc9QOoyvfz1YHvdz7fL6dm7tHvowP6tIXvl3Wzvl9jrft9WbMu/8z9vqzXt/jzO++qbySqvJoQvb/hil9arf/8pwJGNWNFK3a342RbjrdiZ2MW5zP8THTNWduTX8NJX50Bcx3H0z2YiK68aMQ8XSpiRkH8jKAZ8rBsx5nhZJjWHzIQ/+as5+JgfzoCYpk3JEbY9IPsqRWas3oYKSawH04Nmc7B/0IeR2KEnZwg3mrQBnlYdObBavSZ0LE0tGYvu5lDtiwxWoO4SbUmyGd4X+xM9Gr0d+IWsy5D/l1i5ITYizTArP64mQw784jVYiCXITF6UxChLDnRAL34b7JcncF2nGWUBPkciaEagiRGSH5tOWGyHU9HU5azOW9Ih2RGZyFnlV5Dpo2lmZE5jNR8hrForDZIWMiUGcxYCnmM9PpgZTLvxG0W9RhoFYabzLCMoRAngcquGMk1ZsEkdmOovTeDmULq7Y7M6ANETZfcC00OO3KNwftCdqZk5m0lQt4ht28fwcMQYnD///GQuUsNdcGQL95Paq3YZfI4ryEzYF9ioC3KDUtYBlERTpRaD75yYbbjLKwVzBLlhmUWYVzEOrsqMhtMGB+9+INavYFeV+1yo/LzgTETuyCqUmajqeRjEIGo98WMUUlOZlzBTF4qry0m8fF+0OoNdniy40Qx6nbyKmCsyecoikH/hik4dNkxh5VjVEqcpVXAGE5GUoDpocH2S0nPfoGe8HFZbXE3Pq4D+f9/Af2W/GBGGUjtLSsaTTkfA/CC7OsrTQz2OtYrP3rDzI8gVSarQYTw0YPviOs14AUqCRoxRqDq/i+p7rznow2HAbMjZ4JiDa4ypFfrAaklloLIqSVbuJhUyATbnvoPA7bMI0qKWuJslLrHXCnNGk0FDwPxI5uL76HQETNKjsx+EShz8ZfiRtSdDzy05ahNS+cr9PMrScqEYTCz1zfJEt2oAVPG085uBHmzbCmuVejEdcuSRTLzKczsevUuROdg14ZDZON5dlZwZmxU0vRicGb+XXahAkaPpJDVQHzJxtQkX0XBR1X5+cBYnqgx4oxpvTHXoU+sRg+bMdS90obz1Sm8JY5XEvW2LLHRBnPeh/BbG9ehDlyax+Jmm5PV2VUJsqBi+JyLlCnqxBNtMLXV4Tr02Xm48XS1Zh9ZvchdrhXDRkeo5Coza+0wZt9fLTjkP9u4DXXg6mr0osbSeCmy1hHWgopph5Rk3Rv/JmeZd2wxta29bpehzUdRhhlK/PPI2t1frJiex6H9HwSyRU1mHrYYc94H+1Mbl6H3TRtPt21HvHUWWZmRFX8DKLaW+HylSr5+wKjsMeb079RdiBoysyc/Hm/dJbvwtIBxZGVxaAueQaAU26mctpKxj1bQJvPx+/VWk5G7C9G3W7GzB9/OO4Ya0zQPGUXpIAK68qo5a8ja+202WTGugTmFldaFbnI2Ig62y5j578drTf7WXda5kAm/IxufOqFEMbfEGiVrmTHVNmO220Y97mProp2+qNgzY4iSty3aZ4xpZZrDdK+Pl9UqDhMtc4CSuUwYxoMxu279JV1py5SklF5F8ZjIhF5K7jKxfyIPxph9eK6g7Aqyqa71czd8FmRmtZK9kcaCRvkw6oCJ0T4qlsfMyvmG11HNWsnfDzgvTpRSdl8d/KhaAnPWO9BdphS/DYW36K5k8NA/n5u132PvxAhlV0Vk1WU7TVY8n+oclByu0zI28KSUKpn497QUF4moevpH/qE4Z8bSRSppfG7r4Wrtk/fphYL9e7/FQX3fpkGB1P2lD3HrFyvurysilCqZPOLH4W3t8z/vy5rmS9btvFs+8K+O2N93W4y3yqsJ48TORk5NEyWX9/0YRJ3Kzt9hW9u/dX+a9TTokOura6tduIUXNg5tdHiH9n8QKOkc3qL7zzrjsL3Mvb2V2NdXCirPtqh4S27qvuWD+r7NAX/W4io2drrbNQ7+2dNWMjr2EIR/YRmfHXM4Vt3993+trHl2aoqrlxZBGjyelyy+1TdqPWm8Zz5/43TLaGZi99qVpF4pE5YXdJbVVS/crlZa+cu//MsrO/1t/eVfTqKVVs78X+ZvhFnDNWxBSewvsMRzohD5u01GSe73eRFv8/nhliKUBO+EJd7yLqc6aSXHs8/4OT1J4hjXrST6bqa0cq9R8N/Dip5KskcaLJlZuxQv8TPMnDFiJeHvc3hX5RFqsMTt75NdyfoqWnJ8y3m4nyU+a7HKC+oqqd8bZmT9+3W42f3c8bpnoOR/V60tJVviukW40/2sejczUH5hnREz7Qot8avbdP2IR6h8xtpLtrhlJra5xTyYuG0aLSl/8j4jG7J73pDwGt0yE4bNbgbK1xx69cxY+uyJorLEX1t+lU50R/miQ58xMxtuPbtomPliWH/2cLGHIFS+aqyDuJlzW/Wxr1wMm/j3V5l01VcKbeXTrpZdJJ/fsoR5lnBsEw6ayngH/16RLYX/nPJ/7zO8xWBmlN3UVTPhEjOauBry55/a5/zFEmavfOa9fyopNrOEsFH8vY8wsFHcakMTAU3EMt4w4d4oBsaE+ZYx9BnYxuiwk1Mp5X/3qqXXLllyCZ3oRLgxpfqwU1InOnFtJUs2U/n5wHgLqlr/V+v/w3UP;" vertex="1" parent="1">
          <mxGeometry x="443.63" y="1540" width="50.5" height="50.5" as="geometry" />
        </mxCell>
        <mxCell id="aBF4gKf8o6EeW--I7lqI-8" value="Upload the extracted text to S3" style="text;html=1;align=center;verticalAlign=middle;whiteSpace=wrap;rounded=0;" vertex="1" parent="1">
          <mxGeometry x="682.75" y="1440" width="180" height="30" as="geometry" />
        </mxCell>
        <mxCell id="aBF4gKf8o6EeW--I7lqI-19" value="" style="sketch=0;points=[[0,0,0],[0.25,0,0],[0.5,0,0],[0.75,0,0],[1,0,0],[0,1,0],[0.25,1,0],[0.5,1,0],[0.75,1,0],[1,1,0],[0,0.25,0],[0,0.5,0],[0,0.75,0],[1,0.25,0],[1,0.5,0],[1,0.75,0]];outlineConnect=0;fontColor=#232F3E;fillColor=#7AA116;strokeColor=#ffffff;dashed=0;verticalLabelPosition=bottom;verticalAlign=top;align=center;html=1;fontSize=12;fontStyle=0;aspect=fixed;shape=mxgraph.aws4.resourceIcon;resIcon=mxgraph.aws4.s3;" vertex="1" parent="1">
          <mxGeometry x="890" y="1440" width="58" height="58" as="geometry" />
        </mxCell>
        <mxCell id="aBF4gKf8o6EeW--I7lqI-27" style="edgeStyle=orthogonalEdgeStyle;rounded=0;orthogonalLoop=1;jettySize=auto;html=1;" edge="1" parent="1">
          <mxGeometry relative="1" as="geometry">
            <mxPoint x="101.63" y="1560.5555555555554" as="sourcePoint" />
            <mxPoint x="200" y="1560" as="targetPoint" />
            <Array as="points">
              <mxPoint x="171" y="1561" />
              <mxPoint x="190" y="1560" />
            </Array>
          </mxGeometry>
        </mxCell>
        <mxCell id="aBF4gKf8o6EeW--I7lqI-28" value="" style="shape=image;verticalLabelPosition=bottom;labelBackgroundColor=default;verticalAlign=top;aspect=fixed;imageAspect=0;image=data:image/webp,UklGRnRWAABXRUJQVlA4TGdWAAAvd8XgAM24kSTJUaKrGjn7/w8farHAi+j/BORX3lf8gjZJk8i+pE3aKCHJsCVNqArDMWzQFh+sSWZloyZVXTJkHu5wOEcFeGTKMO8B0nqYAM4M4fgWYKGtzgprnDWNDOsD2gKt2Y5qm6TdNwfNH3UD1bZtV82kI6+kwyegkHw8sheF7EVBEkVz/UYlzlEkSaqVDwQwfB4J37+MrwBP/8QMAUe2bdPWSJ9tvxa8UB9tvz1Z37Z/1P8JwF95ZXqZdtuIq0Zc1eZXj06q8eB5DTTiqja/asQlgJNf9r8ABID8meDLluUpzSNHUXC7pqAAryQrX+Akj6xFuX2bc+uCoqCQv+QlCHBx9Chqcj/du9q7Ha9vtv/ryztBguDkcAJwFCusFkA/8iXc8887XyffJ/DU0Z0jBUcfWFtgtkw3Mj+muX5oHR7AEgAcPfj84Txf/yfoDGfTWM6PQft8/+Mu2Lzg6HNrM8y15nqapeYcgKKkaCL+3GiuNxdAk3xxmi2OAVUU43hr87kQAEgXp+niRHVQbPJFN94/oXQYt5GkqKrzz3oZDp4RMQH86EmyD+FAzYYoCKbJ0oqyB1ahsbAGqIkFLGmmCvOoa0GxsjG+Rh1Y7+CqPx/Ttu2J5Er6PkVEYtEp283t08zMzMzMvJ0/MHvezXrWM7tZMjMzNncfBjNUZWZlRkjfwuVypkKS3VfpuvSmw+Wsqnb5eK5tW7W2TZL62OfC8zF/xqiBCWAKWLMamw7MbAJYEQWwOgrAzFxiZjb394PnvWcvT5Iky7YtSRKSnPerrg5MtV0Xg1cdgqoV9y6OCfA0AJAit/n/VVXPzIqZrcgOJ/bDzMzMz5GZXgDj8XkBOT3MfKRTTszMYnnFMMsz03WwtDu70x2cQ+2zkWQpZInatmOSpPv5foaVzq7MSrdt27ax0ng1O+1t255p2zYK57TNUkZURIb+77Vk27ZqN9Ja58H/XxARyS3IWmArkjO7gF3IWoysZpWZIZiZmUMOZg6zg0mSLT29u2MC/PH/v7pp/3/nJE1dKaUtRQoVnDoy3OZuL3/t5TJ3YfLaXnN3ubj79nrNfYMaUm8qlBZKkQqUQqmmTZPzR555Pp7nVPK+JK/X631n2ciAFRC0bRtn50/5Zdi2bRi6+//kRTEBApL/k/+T/5P/k/+T/5P/k/+T/5P/k/+T/5P/k/+T/5P/k/+T/5P/k/+T/5P/k/+T/5P/k/+T/5P/k/+T/5P/k/+T/5P/k/+T/5P/k/+T/5P/k/+T/5P/k/+T/5P/k/+T/5P/k/+T/5P/k/+T/5P/k/+T/5P/k/+T/5P/k/+T/5P/k/+T/5P/k/+T/5P/k/+T/5P/k/+T/5P/k/+T/5P/k/+T/5P/k/+T/5P/k/+T/5P/k/+T///f/8n/yf/J/8n/P0M95f5QvzP3B4ikWnREhv7EoA2raQkFmVSKsYdcN/dybtCU/6v8P3GE+/TVv/bpv/JL4zfA1XP2FG2hpYysWoPTHrm7xbSqvd3ujc44aNed9tRPzw66bYmi5bpTVMEibzc8zKPHf/Z99wf7n2/24E8wn4ogaPcLf+2rf+0+wValtnU4bNNrh+3Wm/paaqss24r63GOdLBYd63DjgRn9Q6O/3vCvPfqT/uWr/eSHRRAedB/4a//pUNuMfnr02xJHS7XOelvjzk+B5Tnqy/8N0FF2BwBnfs4/f4XR3y9+8Cjf/qtGqc/O/fCvML4LmvCMJEqHRiqAwBxx6KhwpTz899d38U/ED/CbwxGcMiGE1Qh+iky0oi26C7RgDOWA0ewmtv/+9+/SnxRBuKDH5xxjX2fhdTjcojW+xhClEEJxqKiwPY3v/+A2/kwEASpFucnujxGKHM/4TNQ4hfnC4xDxCleX7bvfY/OvxRDQqq5zmd0IG73FMMGmzUhvJL7m4KhX24E8/P932PwrUQQAf/+U85g+NpbRXsJMYZxFYmiOCg2aYSf//50GfyWW0I0fmL6M32L9iZnO6AkvR+SBP/zl1J/9vBPwoq5iCTksfzBHMvE3uUsidqJxMB76k58f++OfsWMKLbEEkHnGNjBxM71L1cQtUo7DQ3/68yO/+wuukUY0wdchTPpNz1wXSwAOwWN/+uOR3/kF18im1mIKUj6yHV9TZs7McNEEH+WB3/0N18pRFzEFtM1TAAIzefdW3jA9ez5BN8cUaS+qkCXHWwCKvERvs7dse8FGwRTpoK6iCkAejwFYvJR32pvn7lWQzTFNhg+RBaXVeA1AW6+cfXDuddMJBVfxKkz1kEZkAWA8B2Bdb7OPjJehXFAJdDQddTePLqBt3gPwkvbh3TvGCYWTevUYTJeNEl9AlgAA7r5PHx4vnAJJvXF8P2LKP2eLMGARAkCmd/LJ8VqUCyBeyDBtXqPEGMAEAYCX5UvjnVOm0FFP8QFT58QZIBUIwEvz5fGuTbmgodAK01d3nDgDijCBALw0Xx7v2pQLFxqYJV8g1tg+v4IBeCXf3t4wFyycmahj0QbwuiLBAOXeNe8703PmwkSEmfJFvAGrhAOwqs9tn58CRL0aHzBbvok4gBQQwEn9F+HB1zDj7FjMAXlaFhB4kD+fO0tY3Gwwa16iDigSEsB/1r8qJNRr8Rth5uqyuAOEoMBZ/mm6SDjwEWaf9SIP4AQF8IP2EwJB3R0QFqpbsQcIYYHH577rwuAmbORD9AEtKwgKTPgRwwQADViZXRZ/QEZYAA/pNN6jwE51FYHAUYuwwEU7NfmNmcNSPhaDwAothQXO16B8pm5RYGt2EYUA2AsLkG00f1HUPdh6yHeRiCxthQVKXcZXtMDeI3VdJAK5BQYk1POTevWyN84ivshuYhHhSVN+fPuIZkewGB2UkFYzV0su//BBebAZI1WRtBoIrLZ8Q4NvwerzKk+aREbXggJSbfJ4xnYqCqFpEsgJCwjd5TBkVEUMSJWAqFgXFOC2oslBEi6UBwPTJdBbdSso5nmt2ZzlCV4x9qmK4EiZAJqQgGGJvgbXr2rND+oG9qsykjqp6FRIQOoER+XBB7LwhhqqiukTIM1DQuhwLBIyE+dxqTdDHalACgWYkMDdE9ab3a3WnMeXUEfGTH1Oo4AQEpKjp0QKrudCLRGp1KVSgAkIGI6vWxl3HZcFNaWy6RRAN+Ewz+vpTcpxtVVl0ypuMcEAXU9mdZgAMC04nFrSKrAoKhgWHTvJFZPDIjAwUlVMrYBi5fiEAvTqXnozCQAyJ1FqhLFOhfSKgNS1Np66VCsAmNiW554c1JgiVJVUi24FAhTPTjauQIV75FKdMFWVSLWA8gKhqmfk2EyvrgC0uUW9+uENdXbHwNB0C4jCwLAy7m1XKT2NS9QltaDWTjVpF4EoUfWCtVzzbUByCC2ouWoAIg0HhmexOu5uBzJnZMVHdXMaSvplzxQBcOcYJ21xFZBcQSvU3Rtpjy56aYoMlOnA5QhKAWDUbS9sUlcDmTY31J7RbZi47Xysd/WefvjuQ1UwNGjmvmwToHBdauVyBJVWeQ9kL0xnSK6GygwhgKhGTdqha+q5vJZXA/cLubFWMSTIoVoAsIN/y/UIK+uH/3Sey/rQqx04UFYuEKdGwqy8lW7AVHirehgKuMH8yQUJTOO9p3DS9LKjkk1f9couOC7AUHechO1gg2B3J6UMBXSw5J4rElqVxXOGVV7Y9GpHqExUKz6CCzHRqZOwrPRhD6syFHBtzprnhA4vaaydAZr6qKcocCJFuA2S1cs6wFmmZv7Dge8lnJesdSRcgzayujyR3YMbnQZUMFkl1Iunk7XuP5rA8JLe6tRcg/edCTA2WVkF7mxz/0cTjDponKBu1MEZziggErWbUvg2p4ZJ/MeDwuXy2ThkTmDRAc70JpFE56gDxkQLoVg2Cqv0N/uPB8iy57GJg9Y0tNm2gDsZ2yZaoiysjQRz6UQhwcyrTgL4jwdg113nLVLZpmOsMstciuBMVaI2sZ/hQzojiGQnNnutkIWo1EIFOXzBR/opT9VqRwUztSlWFp/qI33JGsrUKAU1WqjSGn3Nx3JnUpw69aJSH3WtsK3iE/exPEZ2ooqZHRxqo0uy/L1QhRFjBlxlsLxk+OpWJb2aChireDQuEXfMRGXKCmMakUjMmQ9ig9W6yWi7eUQ36KbcWLelMAA6+Eq31JW5oe6vp+r5HLwz1+YK3as89SKmTI/WZXUt/8yD9Uyez5N1b+2/KlfqhapC0E7e1w26Mtfl3jxez+WZPFT/1DW5NA9rnUyI28ZL7bJcq9v0SJ7tPdceyj9yVa7LR7QgqpwsVbZdmCVh600EyTPHpuMiAyjnKRh0mKkAA9/2UAoFLsVYd9okdZAXMJdswHy7pqzYbEi9Yoz0klalImUqp1CeViRWcWU9kRJaJcFUaM6a3Jl/5AcBldysm/It9ZgFdie1+ZCVdbe2I6CV53RVvZSKtArsXhq1OnfnqjokqINndU3e1w56ALOdKp7PlfmkCfn+7RQL/Enzc5uMi0yRVjwlLPII0zEsbAFBCYRTKcEbJ0lFrgXGSJKRQByT2ICNiVyB3BzYdrNbL9cjtRPwV+mWfCZKDy/WTVUaEBXWZWXlQSrOynycdiSIO3hE99QeBHizlRvzSTsK7lae1YPphOR5L2/KggTVizO3c9HjEgMlPzGGplimBJRmByaARdyqqjoNEmTlWwMznUAAmfnbM2WDzGbGAOUQQ8dj+TcgW3g6H4qvm7v0ARYk6B3cU4UQvtEdahQErmVlVUHbxq2pA+QsHoxZBM+zfFoQuXid7xlwifG1ZN4+TA3GbMAAZ7TEsN4uUGKCGqkMQ8eSDQAyCKIdm0YqlWQUdi9bgciXYoTHyrMqCYRaeLjqxVXI49UHhO7knmqAtIMWILCQl3uEZ/mkIPZU+/24rlEkRt3D9CCywLzeugJHgrJihjGBBGwiSLIc2ShkAlUNxBBviRZteuxZebrrgmMN3wbsMJby57lqW7ldPKfbdA4x0M5rUeBobo+VYhJ2o0iaWZZBogVhB3t5yvVBsRtJApMZjz/28LGK4FrNw51krEimbwkKNYXdqmlGWsXCxdsSXGVY/gHQv8wwvdljCCXNPJmpJsk16/ICc/HI2MADZn5aCEfcaH6/PbTds901d86989D26znKQr19gD0z7xeYMifN/dtF24l2DBkssfPm1u22iTUG1rMJjlfUCtgpdtPcu91s183K7c65fzvfomChrH0TEaGcaffPvXPgjrlrHpiLZgp28ErMcOzhimoFtnrOspMnCAnbFt7LZ2KF2j0TgYtMTtd3aJDNCGPFuIxts0mQ0W4rhj+zDMxpjGEHNh0UsQJhS+ae7VRG448eHQEM/3jPNg8WvqhW2dlCLQwv/r79ycIAe7LdOKOHYSWz7FUrR2D6cP7cNCkWCAAdEayYO7c0Y+EjmaAlrzvnN2siQeiR8SWSpdw6vx0drDoK4XhBHwa2Bi7b5iJh/196JQwcv/7qucggIzRgJMwChJgXQU10CcouMGduo2D5Mtvekw2+rrs2t6D5c5EFALsjODLDWPtYj509eBjnzgrA+dO5xkAZPdjJQoH151lhsB/KlZMIq56KkGawkigk7Oo5g7OHhdxmr5VLqg3G77dTAe/z+iiMIB7bgtklA+76x8czNNRQ9C6bDSY2g6YYGEMzcyZnNwWwliFhd/4YzCybzfwQj5iI+YvJgFPPX8YPBtZiZxxB2MTYiQbu6QQNo5FWWF2sD5hpa5mB15ffbjoYMC5KMBeMwcB7DgmwjOrAzsd5TrCdrNv3dHB1c3XtwAZ/mRNstww6UfILwNY5JswGtzTEBUJMTDnaZpKc9XTCGKWp8jc7sUwFthZydZ6JOc2CAPcYjhnWlrTAGs3t21/mT4O/zg0TAF84YTDM7IVVSwsMmVM98E8jaVjNoSxdkUhwe3GysdrY3FgKt1URNu7LZ76B/xOeLUbausHbNQPkeEWiuN0+zAq/Yw5JLBBCcRMjOw1U3cRYyIkEc/7eb4D9BcNAbjokJIg5gDjPWG00wMJYTrCTbPh4i0KCqHsY6BJrKwqMGKZAwHHG8oUgs8BAnLkCYKAB1uELqgObIB7fDhOaubhM2ITa47OLRrnWyidQURTLzL7D079lDiEOTBAzZ+akmMTUsFEML44BnBmEWqtsmqlESCLhUOI5ysA22RFppTk9H8tuPWDGjgHKLH6xTWfa7J8xy+yXGyGcaCghxMBqXaxKbugUs5m6bvdAtHJdqmWj567ZRQNVLJ8wnCwzuwO+w1O/Zi5DTegAKYbOrAdEYnLKw0gkDp5g0tY3scE3TUjiBurhUbB2NREWdlGVdXzIU+4mXVxXriYIux0rxkCVOZdbt9vsp3/ahTMSQuTyhSITAaujsb7Uk4Htiu18KHgwWbLBFbabBhD5Q0qRzZiZyV3wfZ76JXMZagChRiOGPmqbaZLUTtYD5qIN3AvtlrJiY1QTIqIgIXJYrYtSm294Ljfp4rqqVurueqG+aGWppy0KhLbGChVJsF+TocB/WL1ivVOvw0iZZUb6soww/rTtrgHLG2QFjREx+3vg+zz1C+YyVIcuYmqEzEIlpki7YQSSDt8UYqc2NibWS0QwtBGwOuGqy7u5sq7lsfpYZWmgDQUJoeZh+aMNgTpY8o71XIYZ4s/ddtlA5AsUDVoWyL3wfZ76JXMZqqEoYmxweLOVmBzAnL1GwGdgbntNNsiMWQLk0PyM1ds4GnhC1+nQZg5DRdNhedNPFFh2f/wqKp0+u22YnnzRntkh98DBL5grsBclEXOrAu2LJKVRxjBk5ngWrHBh1vhiwqaOahPgBc1bLIvsfcrV9VVMQF15WAPjI1oVlU5bu23A7sATRUh2yL3wPZ76BQdF2A2EGNyb0hklKdntDTHwTOlNEZcMLEjYKmRJgHXRzLD0w+rj6fNMdQLuEcTbLDt9/mYRISgZSJ7SF1HpF7PrBqzlxQ9tg8YOuRd/yFNXcVCEc8AQk3uzYmhC+li7A9Ozi0ZJiF1f+6BZG80Ey6uxXjyfLdj1JtFW2B/nhu3R7f7tzrluzrPjJgCCD6w+BoRn9UkYXugQopiiCVyx7b4BWrWdDghDBE1hwU7yOj4HJlK0ZmS2yMP4Q566ijmHIuAQo7evBERCKlTXWOL3WTE089DaYAUsRok+WWAfOW8e3u6Y8+dkS2MMoXghAVghGIbV2QaE1/KuGAvXLz0hsBKON7txQAVAX0WuG2i3E1tqoElHtwPXCol+nvWKq1WKOVhxMskwjaSw3KS0bJGH4Scc/Jw518HLRYzO2L6kJDRTUD2zFEj7RGs2VnCz6eOtBqY3v7O7ttMtCj0Sdk30DCEQVtsaED7muWLM5epNjMtud0WZvNrKv3jLi/Ol71Vve1JMTAkqx4V0w88zPZkHZpmexM+rPI6PWYSCIhKDNbICP8of/Oq0M5XFWaHREDJLlZBWFTb1KmwrpC2QethZrMhls4mNYvhw8XbaeAPePbRDCNtYzdDW6xHdV/fXA/W+etBWPnd0ktlE28NjwJUIxeEFv/H1i1/y+8Gdp4NgpYOeVQAiQjaTn5WfomDcqAy3L+TWJZdrkuFkmEQqJx8SwR7C5fXzv147cfU9H0AMoskoZ/syCcmjDfXMWhNSBWYo27UT1lizqcbDmD/zAH+duiCMhlUXC5Qq7sqq5JJDNi/lvWhrFxfGLBsv7p9x5lJ06vdu+Yv/+NWv/UMYLQCqRKL85Pg9P7d293qv2YuFEZ0M5TEHWW+emsFmh27lxP2/9I49dP2OS5nMG4s7VcmwsqpViRHONBNSQ6NskKteKFtjhLKuWWD447FpAsxEQMwGxPGwtrAdyicF5hZpy8JVddgGZ2+/gtSOW5Zigehx0bnwS++vP/OP//Wlf6H/l9RIfvb8bi7duHZ3rtvdzXK8IWiaAr0Z7Haom3728X+ee59jEQzWvldRSjK2UC0wz5jLRkgxYDZQKorCu7HA18rXAnMcI7Hpg0WtSVEoEwmA0cc3RdhOPqyI0RZeyb/ECOWBLQy+bXmS5mWNBEZw/vbdrpzzv+LPPv+f//Tln+GL38zxoxYR8rPnd7OVjav39ZaVsMPJMEXXSHYpamv/vX92j2/tdaDQYB27I8nMlhWGPxkGoVOIsXrZYC0UVOm94ns9+2BljB6bILE2wNfD06sXShjJMPAVG+B7o3pgTUVjm7imrNjghO0vcLVxU20FtivW+d5unPO/7M8+/5///GVX/neYqpPtKT/dOb/496Hdcg1vIIIJJMXoZG4XIIj/vnxq9pJdhzJYZtlkdJITMJNmFGJ8mQ+YeWmGgjf4EJ539ZXA9GeewXacsXJbKTwdPJJNAXnpxurhwaqB5zXWAuZIUk1juKPyYeBClm0ce7nnVC0wz5zf2C4cCqYfBgtUpj6rk5+gLDrABKJWWlgmCq/5W+7/fHPAXFzdd9SjTC2Ew1hmEDxv8mLGppN8nWgUvFDHzPFMNgMSgFmVfNryBPZx299gNHN512E28OMXtnyOMBTyebO2APs3TqqxLFxfG7EB/DnNlkwEjGo+qhzAPs780doGbigrDB1n2hmzn5WXF2kUmAa7Y+LZfUMH3mYgIEK36FqbLvis2rulHQaQtMu+m36IyfLbeq+vHqsamDE2AlFjCZny2CAzCjIUrMlNuSRRa4Qk23sapgnYDeL+LQIGntSXYQDRZNjECQ6617ZWqirAaw81XB+zGHhDQUy08StIZtuTutkSCxLsGE4caP5ZPikGEG3zVkILGjltNE2eKgK7P99+Bnbdqgt5FTHbKBjJzxNbWl8b7QqUxJH1jQXbbvqhD12Lwdpvld2rRROlYs0bCF9sq8XYRDWTIAGNKo4E/wXbcsBuWVdfe4wllgPv8WonGQPtlAr8vvx980d7XdxcNbAAyOiwIME5y64dGdcbdcKs2dXz/W2GdhQoLJOGJZFsU3DDb9vSCRis/w5aarFGPTAMloG4NLZNc2ys5PBHuIJpw4Z60vzJYL+Uu6sbATJ+/EjCy/p3WNQjl8w0JPphC3ekVvb458/fzR+42rau1AILtevbehlqhbzsSJYkU6/NbUPqmpvb9pwKzNV9B1FHC/mRYM6QZOICmMQXsUFhuvCH58+WT5ZoJ9qfB7xGHqxWSH6cPzlZD+OGleZx4F3ejlkCxvCXbQawb4Xl1kFSkGFYOcCBPTyWYgkI4Ow5zWTgcpsdYCUH5fipo1PeEHYkStSmg22tSp7r/tXCJIjGovTeUwuYYS3ZoOIKu7IYXXp0k+ANn8vmd9t71Q5fxJzTVgz4G3gl60SYyg8JPMFXxbhn+4kHZbyjslBCWG6nTyDgDIY1ApC/74QR3JOGBwof5mPthiAzd86xWCRcbm/DVq1eaerroDwskyTpqj1sU7i2P7d9qxwQY+c33XfUQs8vthj7TjZJ3swyC2rE8ev5pnVJNkWBnLYFwdUbidO4b/u88qjHjkzczGG5fQdyOd8f2IcdX6bZwpmHHmzjiWpCNkneLJxfmpsLCiVa3Sq1G3vuuElluUUA7vnMmapIBsSsOKOtoMm2STZJ7okWPSD+uCrr2aQ+7MiMJXlbpIkG11te1IU1wiqmlId8sSNBZCseCZY78ODns3g8Buu+q7ipBdK4dx7aoJgVqHuWdXFA5oA3/oA6it9uP9ZTS5Pam7SGg9rYGc9oDEgIbaWOTdkzvZLjPyFt/BpvI4GthXZkFLwIRILeRj3b1NwOW5eEr42oqG0ckRiQIAZzjbUiIwGLgT6av06IQTGItLKLWnaotfUuCR8LVjSxNgpfJFxwKTxg8bG091qmL8vksJYLtjPc9qNUCtk319Jb77Ae8CMUyEBtfyB4fwI4zyQuNAyAUzjOgJ+AMzcI/QGC3SHALcTV2hsIRmIkbXpILFOwsRv3fwUHxNhy1H87RFeZAoGilRChSwcTyxQ++OXsTENgrtu9D4uviLAqipKQ+YopCLuJ5Bve/9UoEHO3XtF5S+RDLT+vBSqllCDwqUSwVopkmcL5K9rmsibrf+apa5EPWlDTSqQOs58ASZs+c7uI5Os1cx2EYvCl94eop7rKDqhtGCYKCs3GM9zqzkzsUmT+8uTHIDAYZekdcY/8BrUFQ7aKVELRbDiswA5WE+Zmkj0lCsXgxV3/HVEPOaDGSLT6Uio7wGw0VWshs4tx4dKEDgST9T8se8oTCixpJdl/FFDkoNZoiYJxoxwWrcYy6rFkpqwiWD+MnUUJAQwuR6tvfhGetFi1GDrwHwUb1JyYK7GbxULRWNKWqhgSmxBLNdaPbvtich79z/34YjEGzEgAiYy3/yxQexDok8uZKzT01VBYhwSLETSuHduAtIzWvq7/Hl+cMHfMHtzQkWhB/EcJAYNs3ix2fl4yGkjS1upsbhORrX0pNkAUo/c/u+yWLxBv+A+DFCeIoLJeoxxB3sYxLFkHE4v28zPmZz0Qsy9/doh0cvhVjkBLxJito0MQGgbHwg727ldK5lbSAjA7H61+sFgHBa4km0tpn62BZqNICq1qbg8Shp09otF0ndd13xTnOFQLnHms/LRV6tYrKE+D7C2lPzOxBpAhN1dAAMXwK5+LL8U5OsChYBDz0oj5fMjbGGTHTAnWIoblFhRtienX3n+IcsoFnIpEq58bTxQUQkNkWoXMmnl5DA5tienzVyx/liiHuoFjKZtz6WJutMhoBMNSljBlC2nyjko1iGL8pc8sfyrGoYBzlU1rtdqsNOVpAMlxsmluixzpJ2LBez57iMOi5cFpC6nkrV/BuuaErRSSBdSttc8WiSGbK8k4OwFC3QzL9GcmltCYw4fLH2i/Jr5B5SZx/N5aaXF2JCqzXpJjnRKsJFMPFHhx/XOH6Ka6I1xNGdPHvuBPfKoGQ31Izq6SG9oYgO4OVRcgVnjgxxv/o+iGuuCDs8hTyXv/6VvgUhfEimdmFWlIRm973CZAxIr3/RDENs01HnC36rG89/HZI15yeot6KLmyVssdFTYAozgtqSdTYsdTP1lso/POoydwOWXce9YT+bHPaNjXgXC6acnXfv2OEDreRrVlEDuqiPG/FtmQUgvcVqrOD5z0FPmKD2Vx6FyT8wB1P3T6tG2BDKbEkj0T4kaqp48eTJjpkT2Pl0XgC2EnnejEkCyEMFwX+MoEjne7zB/y1sLBrzm9ZWxKLrVro6/CujE6q3a+VgRAA7Dl8II3SnppYEuaZkftZg+9WLACewf1GsEvZr7x1PFiamS2a2KjmCxvZvGnzQ8XheyiuIHr0WDVXRc+Uinvoa+42JjeUSGFWCcgQGv/xK6329GR2NIt2F73hkgXxZTJmN1mFsiH0cADydJCs7eLW67WkTgM28Po4FsecZd6PrgmSGGKDNBcTQpAUzOhAduz2/ed+YTTH2Miud13aaeEUl9GwK7XaH+vAwJgz6EZQNwAqUsmuWoGMAtCFd5MDz7Y+Sp7Afe6VkY6rgiHIuyYaTiNkVTTGExpTKQIjQqLUKjaz7LHNM1RI3XQoKmJuH3uPWNrfeGU6o8xzbfIZ9ZJozNM/wt4W8MAYE9wDMwJ9xJKFdlE93js+RCVtPEMIi28k1XqBSq20UokdhoiDx/qdLa5IuyQUWS5LaXZypaNczRhUmV0muaAjGjAgEVp9nIrppxWFbSmotpqKUeZCiFINTXAjHKJOy697ziW/XLmzKpS38PMh13f8zqGRrFoT51j2EAgvciHpSDBncilWzSDxjd5Qy1AVRnY1wlECxKuh3x3lSZLU9UlPcZ99t3ZVtNU2WsoDakhdi5F1tBoGFUZTUtd2tWjY90q2FcxSDV2ibeW+UPenj3iZbe7jEPJlY5r3VJYDwbG3k30vBY5FJsOLQtCwnhVPigQq3kkt4w3g0M3L+mLoL/KuB7whXrFFU0WDHWKn85+OO+ns4ftAuOw0GCGUpA0C67csmrTV58e8wJlTwhNYw8a7OqOS+4vl8+grxhkZtXQ2K+DBidz8Ck63iiNYlUvR+eE8CAm85RnM90D4A3Yr/NvCmWiH+UCcpXu2KYwKHTxQL4IXEZpoQFAwWzpcX46u88e9wZDl1Ke/QY2SkEiIKs8XZayTJ9uKeMSmsYOUX1WVz6688KHne6yNpL+wMV2KZDYGTV2v5rBJ8rNokHsOrDSgRCD7+DplMsDAG+H/U5ezm3tmhjTf7qgoUXzbTD48QEVBi6jrbfGd2CySF3kQXtwdraNw8pKwcBqKcyFJ3K6Wa5lltMhCwxSNogz4O7zHt2e+UAN+9oWWuazIoyNiSIDz9H3gsIgdqXIkXWBWzBYK3dVPSBv4+5W1/qNjAAdGAQVnspBuI7m1zEqWmfbA96p2ZYpZWKIekpJDCp59WYrrLJMy7gWpmanhvgTezdfd6UaDLUgljLnmuxLzEAiquPtGr/V9k8Todi2dxoQYvBPVI+EwK55Y/WbQfojvRBo0CMp0lwi1B0fVLTO2SN2CR1VDFFrKYkhqzZLWZutWaeyCFLNbMTtcv/pzyzvedjpLWpwRLZTGz0VxBRRRBt8loGnioBBbAtiYjfgrxisi6yC0JK2g6FUHa8HWgwixOASmT0RXbRH7TJSmRg4UMoYVTH6rGd1tlRZhKYumFEq5bob/8/OGrQ52+w0JbEyauh6y/Gb7Xo7rSOxbve0Ai9hsEJ2mZhecjWEUnitetDE2ZsvLhGKIae5LKlMhDMbySJPnzX2lovEAUJ84nZ58OQX5w5/xe0uq1Jys+dyRwWxaHI89GiNPiCBBrHw+JIgxOCZBcG5rZehUwX5yAjSozNJ9iQbyWlrGRIukIyuS7lohn24VUpiyNNjQWyDVpEgiA0NDuvm666IkoOqDmabVTERY2Bo9WzwxH/teJ+IYhQLdzbw8sKjGKyBCkTtoEJDJoX3kYHASKbbxBVtIQTwyGbP/d1xBlfIkguMUWHgXimJDwvkYVgQPgIogRCPuGtMH/PWfWc8yY4qUBaGtbhTQqkZSASZNSduY/jBImACYOWJPQUhBl8jE6IUVjNk2hFjQE+0kycdP040CZdLvpjUYIAFNxOSjOQ2mSez5KwoIYKCVhxo6KCu+eI/K4VWBcnFFvmhtUW4P/wwk/+xY3v7P6NYubNBpiw8gMHMZAXCS9pehkpr1puhnbOdixcSLph0qJ42DgfuRiAkGco1MUdmyIYIVCQIahN3jZmj3xR27IFY8c63RJAaGTT0bHLqDxl4OocaxNITewkCwOBV2o64NvLUP9wC3AOdhaJIkH83vwSumIbJIsWC2xEUEpZwRc6QRcVHACVataChgzp951fKxbaHkssdN/uloDrGENpaNXmzY3ep6CIAsHXvBCov3I/JViGhYlas9IuIJWCUDXS72AJpHqcZXDHz14yeSAgPIhywyodFnCOrEFAkCKoTp8u3T/iJGnQ6YLfInGuVpqRaIBFx6MZvderPdGw1AkYAW4OY3I9jMfheCqJGjR3uF4vt1k4yyiyLY6CrwQwlmN9ucMWU0OtTYnwgIgQkj9bkrFhUcigKEKqRH89f8KKbv1outl2U3FhzvVsKq4ng/PD97dQf0rdBjRoA7D04AwgxeSHtqHEwU/0ilb/tvV/NuHkCmGu/Gj0D3RaBunAbhStGdomBR1tKSg4WYV5silBFAqGKT9/4o6+e+WPhEI6LU5+BCFbNNis0EfeKgLH3pbr4JxeO3iWiAFicQif2E36OyRRWdVA1r5noDziOB7cmupBk56CXImwEGPB3hKJnAXDFbL0GniVQMsBVMkOWRRlJEOwx+cLmz2YvetGt3wiz5myI93hzn2ruB80fuEYdA+yuodW30Yt/dv7YnThWEQECYPPx3QAhJt9CtamzkxL1C/gSC6aaHUwyDPy97BrKaOJwwVArdUH4F0FJVu3AAiwIHwEU7BIlw4e++P03X/0t788HHT9rHT9O99fO77vh3KUvzMsPi4hwjoaI9Lzjqd9n6i+0tSsERgCrZyoOrgf+gNGya1gdrKJ/DLYmmkOZNnpcMO65Bj8ToixAFhbEFmiVEgjieIqpK71deh8YCAIcmElv1NI3220nnjf3rei2CKIhgs7Puqk/e+oPtDe7iDAAWH7qIEGIybtYC4gTZ8ZQKtpODYHa6YESa3C97HvwNoGSAa6ROWVFBpRrVOJdpukIiAAnyGfAAamY1NZ9ue3U8+e+I9A06fy0u/DXF170iws7PqmIaASw/cAciGL0UnZCWdA7zSid5DIUskIJx/XihO82/hJBIBnJLbJENof1v32vZSK7g9Mps3VPu/XUC/T/6/Kfnn/xjy/ofqc00QBgfTfvxG7CjzFblkD0YfbMIGIIyGl9DH26BKKeQFwu1g79BX5HUIg2bOS++NN5P2eXPQScKuCOX+Xa29L7fjHRII8Ap/YHBIDRGykNZRLReJPeo9RRw9CnB4oPwbhaLHFs/YD3FV2xciTIfYK+9hJRsDTRsrUZiDwC3HoIMfw6dUNZOsDCOURQ+EZDH7KixS4LlZOP/yf8j1gqfAhQNXkKhfilRvgIwN9gsAXDmckOiKGWYkACcUZAcbUz1Np1ee9ebgEgoFQHAg0EsX/wEbnNABi+WnVQZk8wgJ75UPZYgVzbntKtHT8hABky7a8xVsWOtj4dnWLFeuzJb1BM/20UCDqOAQDmjD8ErI5LW7eefX4hBCO6ttVvut0vsWvVhAEjW7qhHYYO6+VfCXhM10aRgThe02QTQbJRqtiBK9sL90MARiyYrofDL7Rrbt3j2VKyrIKFVt6+aeiVKJpNuxXfq6CJmH59WkVZsKc3GywYSi9Z5cL2zPXT8fXDfxELTTfIa5e7q0/prhcEf9uIzz714YlSstiDRT7lDZuHN702dOUynNIdogSLpsXCLQk+Q0yvkOVA9GUOYKYwGgJyMOGy1rMXPP4XvtcMEYte3j7tLrlIt5/Wpc8WtdnbPfjyfy696IMjxXQZBR07AVg+G0ZViXjj5v4zDy61eM519EWMpBzvs2jaKhpU5b2I8bez0aPMIBqWD7M2ShOVGuLIdndRFDaQ/m5WP4Vu9tGiDrpa1+pDapCWvvkSsIIJsTD80OOM9QpX4DlNH7Hs4vgV7spLdcMZXfJ8wLpIJajRbR9845//fe8j93avfg5GGPU6KPBt5LNPv3j38PU71jr6Rg4ABg3K0RUxnDIY0xYgLKzE3QQtAcyfKbMoCwd2F+EFwbOq9QcLdmR0qGXBjh5xFuy4D/BY4HNbkKCWaGbXiKHeXWxTTdtOw2pMB2YUYN897EvkxGTMxBFnwWjHgl0FjVmQsADAisYs2NEh44Tw1PEM4HWmC1jr4uQluvFyXfsS/TliGbABcG4lGnva269//JFP/O3KD9x809vuuecdd931kX9f95F/Xv7yV46SG8IAEREWhwjtEUMxQymdISRYNO1T/lAA85tYXyCOIt3sjWcyBBSrBc19oby0jS4MBT2xnLKNRgULXyqfdnRhWC2A6Zw0flBMNLJDTbS0fbtu646CjI1HRwynWOywqvQl9U2Rm0dO20YZ8utLSzSb3aPUaR+lKVI5e1CA4EAm82F2SBvb2pO5LlgZ22vbTXm7daEdC1+naPY0ndxu93VxP5S1aGhd1mgnHhkbq3krdU43Pc4Gat1r9+BzpkJWHl+c1iVndEmf3u7UyYANgN3P56LFarLZNtibev/wCzc9f+WrL098cpL83ky0FWof4RwROWSRcfTHDKf0RriOZtMyeqhYsJx6o8zafLHnnr9ROslHY1ae46mA92b9gxgT96S+CexuEpA015gfPMMlMrYa7cGCxBcC9y26dpuETR63xES1wN8oiuH+8cMZ4XAjWSrIPiRULeA1vZQc9aBeDTfpS44cqcZ2k8p5Q7e0RrTSxcPkFdw4fPjwkY1kck/ejWY+09OBXTdezRN14SbjZPD8bh2fhayI6WLdckb/H9YLPToasA5Q5Va4ilQsQ9dX3Bi44QgYfXdkkzdI4x4iDIeO6I4YThmMaQ9BwaJpEyt+WyDqWQg4ZxNqBHxTFrRVmU8L3M15oV03h0RVuq9v8rIHoDRf5dSxo1CiL1KKiTUCvZVnurv2vADMvFJHMWh78nk3ZYL6vRTwdlbrqFofax/grdbjsaCRN/VRwPsaa6SRel4KuL+liik4F/Ts1YK/IxaaflxPvlD/ntTDw3oxZCVVIlbU7QRLBDm3BSSrQxH7rb1EWBy22iMGE4YTekJcR5PC8QRKKzRTAiWeH3lCSRJlC5vRVu2A+EMHIYgq8+QF/lLduLGK9W/KAsHbbDdRSOD7RjBob+SjlAka3c4nKUalxgb+CrZKG/v4JuD/vKeRInrgQyNwLnz1+fp4S9OHLHt594XuP5foxik9ELAClGoRtsJVxXVIdhGi93V4kzdIQzUiwnDoOnpihlMGYygmkkOO85oonR5ixbXphrJgc/NgyUaxkC1tWaFY9eAG0SZA7DK3DgCtvK6vAuGSmQFwFIN1B7mpFDS8ncxqQpWoIaCkaaOcLgg12okmPEUFYoRmmFPBaveKGeFppiKWHl+8SP84o0tO69KAtWcAqkaIYCdctAB2BwSS1aGIqVWdCAuGVntEQTEyFiZmIThuI6BhJ1Y0KxMQgzUbCe6pjBsC1laHNEWWcQs7QJF12wagisfyVSBe1v0zxgD3YNVAuSxIaLuaTVJjklFKUdBEgUA0YZQm9rEZQghjgVPhG6YCT0UsmLpAD7xEfxnRc+36sMKG1Ii44y26Ackeggy+Dm/yJmmsRUQOwWRpUaRZmFAOOc5iqSiFYsfNbBFl5oyEz8Aco7RYOf1J2wU8WF1gaLpTu5DQ/F62YEXcTL4nbKIFLbRTEgpKmiYqdYQQbzeMU8FxXr0fvMx0IcsejrzE/eVi3TqsFwPWpWaGbVOqRAByVo+HOoNYmwAUcHIKcLiQHB5yXNRsechbCzIssbp5KIs9EBfhBwFft8FAGqCQB6obDE13Whfoj62xImwMYxbhR6O0UEkrpDLapIWSgDh7rTCngrdMReelkCUxndYlL9S/L9O1IatnAGomyJl5g0gVQgy+jqzxImmIZVuVYrRHFoVBQjnkuEbKQY/ugDPFju3kCcRomw5lNIlDqVCDBgGl6ahxN/W6gfoKg1J30E9NY0GUTLoRUIkWCgPykRI00EMFBF9mGJwJj3Wv2Q8eZvqA1bBefKn+NKX7OvV+wLrEyLDl0ShVI5XliQrbh7EBHLW0RkEOL4KEcshxyFzNuvEo7gFELJmnvVDmLh8oWGoUE+sZBHzWxfaYmQQN6hmMdKDf6uOFICTbIYKxHVWvlzLRUIAG6lIfefhiicKp4B2jj4dCVi47L9Wfz7j/ndR9AStAiRGxYvrmfnVEX3AfrPMCaagDKOBkFKNFHoWwMAuO3CBBO12ycCYPBLCkJycg+rDIQE4lfAjITA8DnyWvaFskVFbs/gEQgjfdDDpRgqoyUFADvk2PoHgiIDRTg3obaUKAsbWhXtGAOHuDM+EKb+oD7zJdwPqYDr1Cvx7Xlsd2wBpArK1tMwSC6gTpz7JV4iNUVwcAFAlHpTXaFCOLsJAcHh7VbY4OfYpgLtbcTgWU+BkHLZB0KNuoYeDbiBmordeTm02yrdVgM3LzRlQw4xi/jSI0AcvbZMzpXvvYZdtTpz0oiMHonyADSUOAUerlA4H7qJJqnoqSh0/HFJwK3ni+lc47IUvF9GL97cXu72M6FLAu8SKEsO1BlBqJKunDZW0RfX0AUHCoktOmRQFHIMyCw6PaSPabDkscHi3g0WyZoSwxCFxsegie1W7gOwjV522hAJD53cyY8ngGlTGEDIT+MHtLYwqBgNfEZopYVw0I0TM+YpBmHkJZ86hlprBEoBDVmvgB/DFMlMGcCLq89/yGZxfiBnj1Fe43U7rP4XTISmJGzHvLiFCLEOMKz+c4QerrtT0nHwVtkNEQMEuDpgYSFFufZdo5EkDxSA/rA2IwaYiIYxwE5Le9DHiq65k9vwW2o/inlaV5zHDJ1OqLEDp8fvQ1u+ZP13487BnBhAaRkZy4LSYY0E2s58PUSgBGEreJmUqYEWppQK1NakRISetFrcp0Rx6+5DEYnAhf2edpM8+IUzqeV+jXU7ovYF1iZ9w2GAlqQirQ9hKPADYbApBApaBNOy1yylFiMIuEIRp75vvzjG6Wl2Xa4QgE5GWER8vZDmX2FooIA4s2ShvFDDIBRM9YiyRY3/lgT4kyw5OB3RkD4ixALPgQH2R2eHpgrUz6QKD7JDtngoHYLj7nnRKAJI4I+X7yIpgxSq0ie7eENFOBWiVLHvCnACfCzD4oZX7RdHhyr9Nr0ycB6wCxExSNnHkgtSvGDb22yWtKQ4Ns26gUCIuKg4ODIxPJvCHQzGg+n8/VaM36rGaV/sgWGgsA9HL0kk9WB0Qd84HQY/CHgNVOYRA5lDGzmGphyOAEgzZ7oCyGgoV62JNKCALC5wJSDOJriECAzJxNCGYbAaVNJQvFJSFUIR+VOtiABP/+BHMmeM7sZYJPRYuVvo+ZkoEpqeO2rwjjAGRNSzwScQaxgUABwGEkgklFFT0WRxqJMJ83VzQ7m19plnmT0aLPnXu0Si95IMwBgAZ82kKJKGOZgpgIphtlQ6tj0PBh8XYi48AQMZxjBvQJXLVFAzUPhBoNcTYVIVPwhbCBdtTZzhbEoCRmqVOrlhBmEIgzwXtGe3/7xFimdZZLJKCOCAHumIgSJzHuuGMrPEcaG2mHHICGxEQDA3Qa3F3MCRqSqzCKjCwt67C/wlrWcyxr9NOOymIhIbbV/9uBV3LVAWXeZkAMlgylj5waLKbzxy0WDBlXmDe0wzds4UDd7y2iYbl8EBFJwhDaqJY6+bIiqIlqU2d9QEw2OBE+8S4Hj4q7tZ5bDWaKWPBUCEIsgtSSHi/pI1SfhO05aCQQMKdhslhIFnMAzbEcpzmR4zrGGiv06ZCFWJgscHUa8hH41EJOJIi+zAeCk4iEgLV0MzgcP+fZIYkh4wQWD8gjuGMbhtomWoYWY4s3EUg3AvKaKlYKAsEKRqliphKCP1NwJnizz1Nm/iCJetxjzAFme7RlHhHEQ3RlfbxkjyICJmaHDSjYvpUi+bgNLBYmC+ycXga/1rIJynSiEeXH7I3SSIUGhV/MuYYh5BnmD6mdlVsyEuo3sy8k/Gp8EDEdPYQNmFFjB5sRhYJmRY0D2yEkMgongsw+MlS8IZAtp8digdkSFI28eSAxK4YVPbfN20pD8na6kMwxzYU888y35aEsGghfwiECMttgcMKcaxhCRnGSSVDNGPPbgRY3YIKUzBxExDJ2CDvYhhpGLAiroxY1jFggpGxwInw2r3LwpcAs04kIM/etIogNKNbBPPeHOo2UQaZNA37tIh8QR5Jq4saSYJQi7cJ80znPJIaS56wxkNaqkwA0YSZXJIOdt8kI0JFuBIXSqFEoCeFWCp0KCoUFfm+ScSb44Pm93PlClGslGSLMGiGCHQ8iQOzE4LsjWZ4iDYajAd8WpAXKrM0fcXoWD6WLPBnPl79uPgwlDPbncVOaWAs0mp9NoeCMFYsAJCHDhxJTENfMxnC53Vwo6nnEtVIDYYyNxZng7gaeWBTqoXSAme+NxhbN9CApWEPKbd71ZApEHYuBii1cmg74kCALA90SQ1iuk4cSYwvQyqxJhFTQ+hARR/gi1OiQuCK6GlcQxw5fLdsRt4FOCMk7GWeC7x7gR3GZuiFbwMJLQ4RZmq7v03XiOYw2/zRghDJxJqIGHkg2BJlqBjh/Tp2wMFNhoC4eH7TixfEbaasaEOFHqhFMlElcfuTFNYZzbD9XH0bElRT4ZQ7CiXCD+4cnOq1ARFjIKrW57c0EWPedmXTOkkfyzD9rNUxZZHpUMfKPEJBTA1wGUYRFPfWheOYBze4fAcXCBolAsinwoaIJ28sGgTt1wpkyXMgvYSbKjTCSOHMm+ImGR34oXEuwkhlsJc1sJK15K/2QchWLJni3l8yAGEAGUPXolamHkD8dDGxzNoTlRixQJhOFdgJJ2SjYECFTCYJgVBeiyquzcXkp2ZBqClzVNCGqTg0iJG++OBN870D4cEGm3MKO+eUhwoxNt6ROM3KT/P+nHw/+rdQOKDOJRB28wdshNKeQAS2QyQwxahyoSZuMdpACaRtmiQhh2hCaqZGogk1eXLEzESTjDZeJYkSV4CYkI+FEuMH9wwdkmcRIsJI11mAoZgWsoESek+jFBx7OAtRlG1TexpXNLD5ka0CLJYShhZWtPdJkoOE4/EVpZJ+JQLqUxodyBLVjLHDPQgbRxMOF/AjyVAT8IUzDmeAnGh75gJU5WMpsbhWYuaSwlT5SDhJR4OG95IUyimmopXBzjBDKs0MDWfTIDC32sUeUMEVLSwcjjWKiCSFTPZ9FMDYFMWW0wqUj2QNk0oyvRnsR00QNhHgLwZngB5fBgxoSYetic4KFkj6dTsw59GA+Ofh4XXVCmT++qIXVPBxCD7kMZFFIDDFaoUR4IaalA7FDQYOEjCZhCFvUgJgCgftwHAAyRg9XB2VOjDE9EGbv4EQ40n3lPpagDbbuTRgOhQWQbsnlnpRr/OzJBkQD801C9VYuzT74sIZeBrCQNsRoiRVK1JLREsZB2tWEINUIZkokpAsjfEmbDglgLAlwId/ElAn8BpviORM8uAzkPiOQWdNsbhWwIhvLwLE0/LSJjVASJhb18JS+aITtqdAA5r+GGHsH1KhA05FG2isxUznAh7IIqdHucMmkAQDudOMrTZtEdLABwoQVgzPBT4HrWaNRuT3CWmFzwE5JS10ncQoFfs6KFcoSk9FAOTeG4MnJADbU3BdJlJGjrRHSidKGmETGDmED7YgoNDdXlB21Qdro4TpiRESt9kCYhduJoKofr1zXaG15sJc1YTgp7IBUr2uVce4gowE/d5MnEAOVCjRo5urUwYcCWuUotSIZJQhtBZi3UTpREKIjxQhtVEvAwcICd+oYYIxjgnGhGBF5gF/HdIMT4Rk7F8cpt2WjOcaiZnOrgK2kPrfJc4WcyQM8nZ9dUGZvI9AC3uelENpYj6PUM6AGmrb85A2ll2EhmIEkPuRFQBUN8M0CTB0ZO6VxVcQEzcz3hBgmypnggZUut5GntWkkWEw2GLBWumxeT3NHUOgBvs7dgTrfoMlGLo8JPmTL4yB1h2RAWz5mgGIyM2KmED6EqhmmFQXc0UyChSSTF9cuNkBrZDuEmZvBnAl+ssDpLGMXJ20si/YmGk4Ka0C+inQ96eMEOskJvm7E2CjjmIY2cGfLE6G6bZGDZB2SPtrywxtKjyyIOZJqhO3ZCslCkfhSNx/sxFnscCkUQCvFAmEmcCIc1sM47gITlGAxM9oqg8XStX1yP4m5wPw/8HauTFDmmQGNrOWeEMxkykHqC0WHfrSlR9coFhTEYDoEj1Gk7+rhSwV2vUgyLhSWWRSFogJ/GFNxJnhsDMppmbs0Bo49WL0xRDZBqtMnY88B/jaTHRC9mTfQaAeXq7nxIa914xj1FMWLYW3BZ0hWCZpugfChuClQCrHAFTFTsYdZ8O1ig1H2UQNh6gTiTPDg0riMbawzgx1sZipGM5ZVZHsdqZBXN/k0j23UdijTJgat4Dk+DqEJoxwjqVEUU9CYQRQzFhM0gslDqFELBAsFkeBOwheOBGKMS6EYSjmdENIMzoT3XYLDWaJHJ01j1d54TNRYBemU2pBqdgCPf4sCZQnQbDUrY4EPq5tj1PejGPSdxhSjiE8xgokyEXZos/jSAKeB9OFCUfVBKAn4/ZmGM8Fmzmwuy9yZcdn2YfdgGGA5eapPq5OqFQ14fB8FATGMJNOOheuzEUKZduIQ9UHxQm8a02wSBuNDeSMUYYEr1GYYDzLgq6dOfCYqIcTZKJwJHqvBymFsA07NKcFuYTCD9dInIx91osDneWmHMmcLRjv4jKdD6CRXDpEMRUHJwBRD3CIY1QVfscA9cxcAVxyj4bJQKL4tNIiQMnAmfERSDiPdN1Vi7GKVGo8960Be4bJ+0Lza0IDPFTIFosGODTTcwUWtVXxYiwVHSD+k/QMTZhphNzVwNVHd+DJ64PYlybiQZ1a4SpHhM1gyTgX3XwZ3C6fG6ZEJdjejrYKxD9JHFasu8gxe30IVFG+dZF5LQzq+ajshbE6NHCGvQ+nlgMZkURTEpaKDD+XhMqoHrlCShg8pI4lra7aKx0pZgT9mxeJMMKrTcljF92bi5rYNhwh1nGemIn1qQS/R8FtOWaB08rbQjxW+jSOkQNG8uVG80UtYPGM2QglWeNYD7pkrCMI0wo3LQqnx7GQThFTJOBOcyp67jLXc2ZEJdjdaIzW1ADIfBVkN6Bn83s0aMKAW0YED5LtRzJilsV5R9OhM2KFpELaqURzNbAhfmoHoz0zjQpF4yuiFTybFgzPh6WHKXdo9LeTILCOVs/Fg1YOMpFoN9P+dvOS5EnYysLSQLwfIsCgK1qatPixDkYH4VAhmSuA42A1XIElGwazhq0kjHGUCfzjxOBU8eANnC7le3E9PwPJma9IQdSUTH/u8n10YYDObA0S3jrZM9ELxxSviphAGH4yNo1TgnjIhkGZwkOtoiex1UB5C0uaLM4GpxyZ3aY7leGOsG06i2oBEvkwfxir5lPcaVcxAU0m9HB9fSGa01UMfFB+8RlwA0yBUqQ077SoLX4aB/H2KcWF9s1dNK4RkJJwJL+ji4i5x93ZtH9huGIMakZX9MI7KItrkkffWYWKgMWt1HB+/7Kd0oq0eHab44oU4pG2ENqpip9wOcx2aCQ2p8NVoF3YKC/xBTMGp4MyY4CxRS09xBtuYUuPBqg8AI/JY9vi/j+xgwF1rvTg8gQbqXmmrA5NR/JcOFWbgBx+KdnbyBO6pWyQCZk6ocXVRBquPSgiJhONU8PgBzja24rMaI9tYk1GKqRWbThlSMG1UHQNPgyrk8ASt/ZR9aKsVK5TABhXDSTTCBuuD0UFJ40sHAoOYDheKirVd2yFkbHAqfGRxl9F6CidmG7aGQNSbVKX0AblAymwKA49nNQ5PhIG6q2mryUANGzWQtgjbsxlGpVrF5UsqIpA6fGW0iVGSvsZnsKk4Fejp9J6zbv6g/jc3Mbdta0LdEQO6sgBmhPpljq7J1xz5I1TEeu0USmIALs5eHJ1N3FmUaXPhaOlUVgzl/XwiVVLMYHwKpTl3bIojwT1pi0RIEgFwHSmFYSRpKeGaMApOBeezWc4q+Hf9uG4SljeasZq6CVBaFqiIQlmvzOFObnb071ARsf667GEgamedHJ3d3FoKhHCuNi393eJCeTbFUiWaGPhQjoIMYKYYvjQgdARTjQv52LRSQwLgTpNkTgUXHia4iqX4Oz2gHNvmlSZjXjtBYFFQlREpwLp4Bzu5ydF/S1XE/tnCgLy6FBwcC3d0bRBkrplgtOO++i8Ayu3ZiSp60odQo0e3kUigimEub9IRg4zhK8thAEY6CIRLZqrBqfA0hLPI/jIPyrqmnGk19RNAJCWRU7FCog7Obpx4nrH/QzUA7L+VKgamWtuMg4N7tcUIOG8STDujuGQD0cKtMaEK0jjAd9SopQYUBNxxE4WgVHzhaqVGAEpLRoFrNIE4Fzziuav5s/phCmzDeAhwIlIV2IIyIB1CXM5uTDzlxH2qSeURYJbMUHJeN9SqHiWrC0IfWXJ0/s36UFLsNNNOBsdCqdejgbpxRMAHYwOGC8SXbm5B4Uw3LhQCmKgA/DM3OBVKnX3JWcj5W59/UeFsY7YmOBKRVb5qh9I0VA8YizPvxJNO3KezDnkEaGJdQH25PgJt9XiOj0PAwS4cnCpeKYo/fxvt/G6LMMoafVgqGUgyQvl6xPZvUiNcelI0wQQhHQWuovSALTTBJ5OEc8Hm2Ii7Cvu/+v0GlmWGElcIIEEF1qTvRiHZrAnp3Llx/EEnHsWZQR4JltMA6T2zOVHPalbGAqEZoxycdu53CgT8YkahFT/OG1BfpAaVkDYevpYcSaIUD9eEiTWIThk/uHZRiUSpZPjCGI1zwYVttHNXxq3f5hErkMWqRqtU4woRpID4csVmH8AgVas60kgLe2NPTuOPTe4y8ojw2wJ1nZNCTS1cn40Q8DUODp4+uxsllhNMK/NIMYrCY9WLWlMIgw8VQWGrEdcsyQiLYNLi8pQExZHgT1xwLjw/TLmLpfTnfX5XptO3s4qkVY25O0QIItUGXRa2MALSgjQgXXOXJtI7rIq8/+DMH3t/97k728sjwmZKIb15Qm2/5MlQKtIoB+db5SyKzM9Hj0bOHB2UbbwsCbWDmGyEMjZTB3i9SDMIl0nuccGobdRBSDdJzgVn9+Dww/P1W/avb1/xcrKyqamGVuMSAYoorbYhFpSzds8ObwVsI53SSmnZau2TxoAvsnbfDf4Xd9ivStkH3J8fGaxNFxTF26lPK5eGYmIdDs5evQQF41eS+aKJKRwE9ZNsQDXMHkK9prMWrvHEmjjMWgbj2sU76YXvULzBufCUuQw3H7p/ln/l3x97/MsssliEcpDBsQhEscrn8BJ3PewvmbbL57nxrN2VtQez9sC83XKf/8st2cW32MVz3BBxhhjZJ+zPjwTMZALqi4ZQHzwaCjLTg2ODV6wtFCzqnT5a0LNwA/l59aHeJHzga2ct4E4fHSpEWZy4usgR+OOBc6HRhZPTyv//Bv/ztfZ1v3tq/8kOfD+bJohcIwJIDIqRdVDQiXU9s8hdM1wzzeXTXDavmzZ5PtA2MSIdgOhBeySwWStDeodQ4zJkKNvYgoNTyaoi+XLLlogGphG8SJvyaaB+NInDR5RJNaioI33jIqdtTgabbMRp1ccAgK/I7GnKGZwMiAyKxSExiBALxRLpAHaNupP9MqNAWeJF1MnMeCgKX5eD08erRcK4udnCUC2ciAby+2pFA0hrKsQwATWQgR5xBqbiZHBra3OYOZmN2JbW+MIaoZKbao+6U9Tet10H6wH1jRNqvXgoKLQ2HBsUswESJnPNFopKOkYC8l6+FrQ4Yw6ISzUDqowhAXHRY8DJ4NI5U+6iqfxkuKo6ssbI4AcBAyyWK2QvpLdRrwzzFaVVhXJwLPwrNEy2a1aoqSMP6J/nsCbGM9bEpQ9U1ZFq4lKAk+H5AXdzYYcUSxiDhvGDsCXq7Nst24F6khXqNZqkjYJVUXBsUMZG0TBu/m6TUaGetoDeQi7QpJ70JSzaElAHaXNIWDLOBufMXQvsmIYdMOhB8oSAz6HNtlHaSG+fUPMlRtrADw4OVsVDgz9n2SljQJBnNa8WBOZUH9pAkglLxReVxhOLqPAJN2eD87hK4MI1UqjZQFpoMb6we3aGKT1eQ92SiDZKH7nl6DRjRAAw0U5fabZfgIVi3ldFJATWsg1oNJ5wRM0eqKwnaROVYnAyLOvyyVGyT8A10+CyADIW8Ojz1jKxXqC+YqDuvswVBTnWjYODzbRKBDCGOZNh4zjEZWEnBcpumyQh8miloFU/Uk1QFAmohQxEJeFssMEWjio/ginSa0+ub3aMlsgncmirSm2H9E7VDgs2LyiNqpSjg6qIATBuxrRxawwjzB8v3H10s5em2mHbVcswxG5sCppB0hKUMr6oNpExiAlk2NngctxEoQnTpWVmMMCvUXey1OqAeoKnUb/xTB0KVjeHp48dI4qtR6YPqLlTPUC70+1HMekmobo3qSZmUpPG2WAjIhfRvsH//Q+mnF3ktwJDDxtnsVILxZDeMVB/maVGKlIzjg5MtEcVlXtmH9BwCNM3IWFMRj3MHjFJH5wNLwQuLj8Zps63ydqsBDK/CMqgO9koNx1QDPZGHIBkQqF0sV4OD/qw0m/2Q9PJCEnd/NFAPGMQ4c0UnA4u+HYR7cMMaeGrGfmXs1ZunbGPhVxJUBOXyAUhzN4oyC4LDg9kfNQ/5EDjMzGYiORAg94kmYhxpuB0cBH3SKqPw0zVwjUbM7xj41pqIC0xOHEJeig1tgnHB4fCrD+E2ndaiyZRAkJJXoGmAcweBQHpA2dD0WVzEGZMmc2Bh1hCe98338hDCbUM3BDPBKMo5MoBQiCxY0Bz49aP0HzKCJhJoEGL8URCk5mG08GIO86hCbXO4iERmvnFwpZIUOdOMG7Qs2hRUBkLKinICPOQDvaXg/eG4nFrwEPxaACYnAmmreEp5g20P83ctIyBJv1IarQoQnA62FzG5RoKApyGV6z0Wa0o84AjZ1sAlL20o5KMJMlEeUEyKMP6iSxQvYH29aYJxE36CkE7vsydyUj0x0lMhTSCZLSBtI+2aIPT4YByOIYm2MnL9Bg/geKT4VCBmMhkBooIMjaKHz5QYqiHEI3FIDoWij9xhn461i6OAl/MQIsTPkoc2oAvi9tyC6UVTRyZuy2xMNAvZc7aSKfaaaORFOKghDAX54PhkHJL+VGwlG+j25uaEslPoOERmZO328oKVyh/2/QMFPg5IyGcsvlBmUmvVYnLwFkjITxN8WtT4zvZRtBfYlhmX4vLYD9DE4vshtoJ1zxmohEgYk6YHLJUG9WiOWk7k3Ggv6Zw9kY4yU4ZaNSbv0248fnw54Hz4cVGOJUmmWwB2E1LAV9rzx9I4cbt3WpGhqVgIGHOtLFIDJiR3LItnxgbxTDz4HAc52/HAaoPl041BelBhqGgI3pOMYj3sd28T0nMcjMU3GEs35aA/ur+45y7FaizKcjYePREzclAkyO5cd5mczssY+Nx+5KxnYEezQDwVFFEQTVhQpieSE7c/rydzRjQj3/FZbMqu+jDbePxZsy2kLlAs/F255w98RPJKIaHh4cPun2Im2VI5oRwec0pW//7BYt5lb2+6YgyGl/BxB9I5ratCwk73xuQGEhHc4E9PA9s7Ae3o/dtKwA9lFMtdayAKQN1R/InLDywsaDDF/TjQ7/gfusCbAVoNcZg4SgD8MMNzW9nKzWqSzNtdELwJYgwxs8kG6/xloIP6N8LDWZ6YcCjB1qO4Fd2rz24fffAdvTo0e8UDsEp8TIu0adqZhP4gmoqrEn7Kd6COcEbN7JN7KGVDrWau5seZEExb/NWkIUQSChhBAEn5ktyiFlgO19Ng6ly/87EWyg/Ho2f/ThXGw2HO0oE6+hCjWncfXCUrfEWICOqMarJyh0C7KdJ1l0b8NAYwvKYeSZbTGN/MlxBQS0Pp5DxyNhAyWOQIYlojDSJI2igps21KZ3iQvMawMQzhiuRGyio7SFfu6aLdtpiOcMdnFjuJ9QHHLnftQx5eNrzG7CIZWwubtAQtd7bWVO2hwZ8X53MLpIxwAE8xpGGelPlH37vCFJPTMJ4DqJIxsZwgN62BlF7Wu0o43E2UfId5Fz5vCjGsKudLBK4kG/bidJFzsl/GD8zxDA2R+30njYnQD3ZAevo0cH4j4c03uIXZcZL3SSywbnzR0cVxnuQFT+TZ9GLMZVqxsgC9yqd5ua+/wCZRS+2KKnXHC7eH3CWIABV7GIr1ahVA7fyNTraptF5DLIgAI3IxXjoqlO1meEY8N02YJ3RyFhBACohajEu1JhigHPv8KVthjpv+2EA86BPMYsxNdJ7cHH2Lj4AgOS06QoEiGIWg1V9KkYvv50EvkQBoHRx2kApEEB75SeLV4xGfRZwNC18AzBVzrUmFKCfySlaMUpdjBngbHVHRUDpPFuwQgGgEasYqS4lcPveOOctIET6WaRia1UX5zMXp0k1wQCZCXGK8QiVKhdRCgfciVKIhkd1aDxAC93tXxpjmHDAvIlQlOhRA4OZeQD0dIyuyyAkqYT4RFlaNaiAH9X1thiiFBCQUb0UnTjQWEcbDXgye3PqNRuYhATm0YkJlWyTbBjhTb4wGRAU4DE+xSb0sM0Aj/Il/drGYoUEjMpTXKIcOpbJHrx6NBnGmJBAQ6eoRNVgtVB9hPBtiVFQAPRxMYmJWQbviiZTExYiGhGJSezy8UFlpKCISk7O2dR4CbJU92siNeVmkXmAp/mGD6FBE41IxKRnT/XJZPMV+FrnwwUGyhdkikOMzR4K/J09yV65wAC4RSHKmS2j/3rwOi/tY6GhX9CfiEFMZpbIS/rT+Q286l7LCQtU/ycGMcGO6nkUeH9lVlyEBSCP4g96WKGlP4UA7B8tXQoM/QKN6MO4WRGInYtjMEERgSwtnKC0fuivojLVFlDA+sWJtcCgijqYGGYmIyjQypNvLbWgYOQs5qBnus2qbJqwAI5fPGXJKiBQfZI8RBxKdGY0XyA47z79Zv1YQEDO5vGG+XwmPMYmQYiuXzzz2NISDjCfGv+vaEPZ7sxEb1uGMOU8/bpn3nQTDCj//2QXazBDxgxkMQvCtVg9+7pn3tZahQIjolOkoTLNDMxeNQsYoNOefdvJ+w7DAAf0CXopziCZz4A2BG4/zz32nOu6CQJAKs5QzrRNj4Lw/flz7p593/IhCEBDRoxBmE8vjDvteZf3gts7fiwEACbCoDGZkiSUgPxw78VL7rt1OwCo7sYX9oTp6E2PcAJw/NiLnt6L7pvrs+G1HeZmiy4ImO4+ArsbVm32s5DVck8f7QbaaMQWSpuK3iNDiAfGytCzfVYzimAz0N7kE5EFyTQ0o3NEqJdgfWhrNeMZe6E67ccVZExDZgj559e92S4bXt9rK8AQVSjt2poShH7o2crIZqx5twdE0k5yMo/FFDjXZh5wPUhjo84/vzPjwt4GHhJyvuLseXKPpCdUq2ui4Lqx2jZy5ty5vcunAb4RDHzlmfPknqQmTLim68xxBqezy4Xnd3nbHCKfyFOvPGue3CNpCYfXN1eWNdou7Xdub7HBeHhDMPCVp8+Te5OSQNuOzGP6edcl244YjgunS4+3UZvTZM8Lgi4vO4WT+ycdYaIdVZ/C9a10W3ujvUt7FzN4ueE0xMh1AuLlp+TkAUlFkNqBeZATrosnNd4b7F3K5mMDtk77Rg4TkFeckNMHz2kIO2Q2/mO4ni7HeAxr+NjN4Wlr2spC5CRB47ITOXNY0hRkw3W40c8njBhsgzE6bdl4GjMeNNwi8srz5gt2I/1gPLuK/nS4nq+otpIRo220NxyT02RMprGqk44jhuZ402UzyNSDZW0jyANuDFZUW7Uqz21pfG40xjV+rDpXHjcZ1VQN1KlvKm+99pcoUg9eRD8D4Yak1F2N2VVL+dikxqvydLs8TDb9eOWqOtIn/ViFeazak7Lp8iNy5tgApB6u5Wu7Pzt6jCVeUzcgrlWGjjlnNjM0h9X5SrQm5/TQj6cfdKq96iR7ep7Z6ZXhjtkaecxED8LsmSHs1zQyl1ed17y86Qd4xkrrbPpjqW54TFXqCYORnDMrOZmYczDIttARPUw0BEk4rIhCoq3CoQAIYaYewKruehtfxE2QNMQsSP5P/k/+T/5P/k/+T/5P/k/+T/5P/k/+T/5P/k/+T/5P/k/+T/5P/k/+T/5P/k/+T/5P/k/+T/5P/k/+T/5P/k/+T/5P/k/+T/5P/k/+T/5P/k/+T/5P/k/+T/5P/k/+T/5P/k/+T/5P/k/+T/5P/k/+T/5P/k/+T/5P/k/+T/5P/k/+T/5P/k/+T/5P/k/+T/5P/k/+T/5P/k/+T/5P/k/+T/5P/k/+T/5P/k/+T/5P/k/+T/5P/k/+T/5PrwcA;" vertex="1" parent="1">
          <mxGeometry x="540" y="1300" width="164.94" height="106.04" as="geometry" />
        </mxCell>
        <mxCell id="aBF4gKf8o6EeW--I7lqI-29" value="&lt;b&gt;&lt;font style=&quot;font-size: 14px;&quot;&gt;Airflow Data Pipeline&lt;/font&gt;&lt;/b&gt;" style="text;html=1;align=center;verticalAlign=middle;whiteSpace=wrap;rounded=0;" vertex="1" parent="1">
          <mxGeometry x="550" y="1770" width="240" height="30" as="geometry" />
        </mxCell>
        <mxCell id="aBF4gKf8o6EeW--I7lqI-32" value="download task" style="text;html=1;align=center;verticalAlign=middle;whiteSpace=wrap;rounded=0;" vertex="1" parent="1">
          <mxGeometry x="210" y="1599.5" width="94.5" height="30" as="geometry" />
        </mxCell>
        <mxCell id="aBF4gKf8o6EeW--I7lqI-36" value="process task" style="text;html=1;align=center;verticalAlign=middle;whiteSpace=wrap;rounded=0;" vertex="1" parent="1">
          <mxGeometry x="425" y="1599.5" width="91.12" height="30" as="geometry" />
        </mxCell>
        <mxCell id="aBF4gKf8o6EeW--I7lqI-37" value="&lt;b&gt;&lt;font style=&quot;font-size: 14px;&quot;&gt;Amazon S3 Bucket&lt;/font&gt;&lt;/b&gt;" style="text;html=1;align=center;verticalAlign=middle;whiteSpace=wrap;rounded=0;" vertex="1" parent="1">
          <mxGeometry x="880" y="1509.5" width="71" height="30" as="geometry" />
        </mxCell>
        <mxCell id="aBF4gKf8o6EeW--I7lqI-38" value="&lt;b&gt;Postgre SQL&lt;/b&gt;" style="text;html=1;align=center;verticalAlign=middle;whiteSpace=wrap;rounded=0;" vertex="1" parent="1">
          <mxGeometry x="890" y="1730" width="71" height="30" as="geometry" />
        </mxCell>
        <mxCell id="aBF4gKf8o6EeW--I7lqI-39" value="" style="shape=image;verticalLabelPosition=bottom;labelBackgroundColor=default;verticalAlign=top;aspect=fixed;imageAspect=0;image=data:image/webp,UklGRvYrAABXRUJQVlA4TOorAAAv/8F/EGpR3LaNY+0/dqqv/CNiAvRRah8+lr4KAlNqyMElcJBehKKBcsJij9Wen82BnbQFg1fioH1HbUFIQk/FNP+/sr1t/M7yKjSNn3NuyWJZZpSDzyso1/e5bkOZmZn5XXF9/65znet6zlXyCTNzNCfMvGJmWGUGFebEVsbxLpwVgyd4zVMMMz8ph3lV7oo5aBiaeBVO7NUTThR6AWXmViXHr6DckFImq9xwNJ4Jk0PbzDCTw5wVuh7vPCpzK5e59TLahcEqhmccxvKKmVtnyszMzMzMzC5zw2goBDyaymWu5ylDSCnXZSbtytwGykxSGeyO0pmUVWbuCgOnpF251a7MzMzMYJUZlCmvmCm0oiUAbhpLykFmOa6yHTtJJ/0/R+v79Ofybj9XpYdhmZmZmYGSAEiOGql+IENFVINYv6f5ZK+hI6rxIIeT94CkkfkfEmjbNu2mX7Ft27Zt265t2wxq27Zt20bwa4drAuxI265scrNblZYgmZmZm5mhppnpn3ZzDzMzM6NY//+cU+d89TkXhl6DI5eX8judHRjfNXSo0NSqLzKF3oCWMHI4jjlSZiaxNLwAM4QcOnLMkLuUTmRegCKznfUyBDtQeQvC1Ni5Q96DahYg6OolmO24q0NvYeIupxOb3aEZMi2gU0cOFZvtyCEz2x39m1A2KzAzRl4BQ+byFjpU5KpTNZA5+sqhF6LMNZljb4G9gEldA6FsSbJN2/qh83aubdu2bdu2bdu+27YPt217l2RJtk3b+ou1pta9z7aNlm3btm3b6l7btm3bttX/CVDV+r9a/x8u+hT3lWox1erF9uih/41jgi1GQvrKISbas9nSQ/YJBUcVL07pzBCdTaJiihcPIQc12yyJHY+RjGQk9MGeTrFibbpcin2pZbeZtQENdiV0GEWVRukyAg2g0HhKzyfQakLvptBpQt0i9CsKf6U0NhPoN4U+EuoRhS4T6AilthJ4KaFnEnoUhXuHoGJKJ4diFRoK2T4Va2VfJ1keaIzmdmlUn8cm9DoKH6XQPQo3UapLO/nHCfyUUmcptJFQ8wg0iFKF31o6KrtkuVTyUZLlUiYUZRODHE/ovgSuJfRBSj/8cS3aH18JhffPgiL3pDFHp6DNknVrka8xvhBrLxJV+tjTpfRLSnVosRPqP6UfU3gvpeeGqB7FOxfblULf4dgen9JjXoJArxO0ixL6H6GvEKqh1uQpO/bXJzi2UFACgcYSag+l32l3JtBPAp+pr9nSup1A8n1qcULPoPCNBO3ulJISehuNrkmRu3qyrgsxcCqFFhD6boL2hBRun+72U9xXysm3UJQmDS6ZLoVbtZek1PfRFy8m00I5m1x4Tfm191xNTKiqhyLJkl0ayN/ndyZoj7rw+jYuwXpxau+uveyPE7g+eegYyq1lx0C57UvQXpfAfyg8JRVrZXn1wp9Uo/bEBP5M4eHl9BNZOTUwSpXfofbMNVIoTkaFmGMJfF97agqvialWl03nPHrttRdOWGVJpdK6nYBAvX5ce/Cll46+ljw657vW3pxAb1uTRQRVJKGatXBDzCRnlyIpYp8y0oASKfOIVGnMQ6bOY9IMxzzXc6UbzsiXJh/zXM+VOk95yId8yBIlSnxDkVCsEYlefw/lEI0amV+LMHnskTKPSTOckL6ckaHMyVhXlD1eUe50S/nTAxXOT1S8W1PJ8kqm9Z227D9p6/4beyvbf1Dp8kYluw0V7l4of36kvOmecqYbyh4vKbOuyFDn5EuTp6RMQ5LHLs7SmlLr6dhTlD/p1rmEwKu0k0OsOc5C6cs5ucoZbyh/fqCi3Zpsbdl/ETi3QCXLGxXtXmh32eM1Y87798c5HGdoQt8lfTaSPenWUqEl7UzKTMo0Il+u8uY7Ws20fhCIdXUV7TZsoazxkrzrSBG78KYp/ObV5U6yXCo9sOa+mQGV/MHTOeG2rt8EAl9dq1vIk344J1Uek5MfTSkpgbxlzlgJdV5zXUbqk3Y4pax6SQXzI5nWn7R1/41bFq14t6Hm9GVGitSHE03hXxcvb5ZNoH2a2/jUeUKu06ls/UngvqXKnq55LhoND5rCrYRKkTYEXqz5jC+Up8LdMwUC117w16dOEzjQ639lSbNtzWORj253ZesHgdv3J2Ndkts2vUMSqmApQ2L2W799RcqsC7IUDTxhW9ZPvr6MOMAuTaEvry5hxkfpl9ruAZU339OjwDs2Wd50R4o0wCZN6FdtLpWufPk0be8ml7ihoTGLTvkb7NEUPjUw2ULhiARbHvmrBxoatEf15LRFE2iyZNk4gR5oGzf51SpdXA2N2vdUeYIthO5ci1y5cG3jH29t2HryqcH1jqflvC5uLavtam3qZmvubGpsKaq2PC4I3pt0/BF+sguCwjlt0IRuSR46hjJlfLPEvbnGsPGnyTdz+vs6VmfI2i6mpnrHUo/ex0tywc5TpgE26EUm69YiiUKQR2j4HW9tWH/sQT5Zz4vGlgdMW4fFe6LPZBylu4fcgh7ltUETur88GSulpLCVmn6u2ux2pC7u1vtuiR8a7zaRPVpaTjk9RG5BkMcGSv84Z2lCmLtr9MpNvwzrj9zNw/KoYLXGkIkdU+wP3J0oueAhmoDppcuSYqeAKmlYf5RuHg2/lZvwMx8uuaDp3DC9FklCmQM0OF05I7D+yF3d89+XmiwjT6VLLmg1N4zAz4ciR+YLqiUpitgLmSbT8fVB1xVRkgtazY3Sq5MiG/8bTHzFy4agmp92bti4ygAbc3Ck6zhDfCUXNB2P6t2TyZCeamzzQTX/RldLk8l6U9kF5U93oPQLyhAKTcWkiD0KRBGyL8lkvlp98NSzQmUX5EJ99QtLkKfB1BxU8417d7axM5v+rpRekDafAtKErpAfx5YD8g1Fo3BZHmVyeJbjD/eT3oKbAdVYTHoQuEhD8wRRbsqDGX02Q3rBq4L0h0mP+WIqXd+IZmCwk4s2slr5BXlBhNosPQh8CZImHxNEeZLxgSaXowv9K+SXlBuz/i5IjtiuFK4NUjgan01xfJgnmRAov6AwRlO6THIQ1rYa2lQ0MeczOfFYG6MBxvSyGEIflhxvC3nEINrU27mcBOxM1ADBlWIo3DpWuXG1kF1EVf9xASehB5K1QFv3XzQD0a8sNwi8AZIrqvtz4r8jQQsEZdULMH8pN2qCvHRUMecyOHFbGa0JFhwPofQ1uUGoF5CmovLeGMfJicYEaIJgopD8MdXqMqO0bidYPyQpqhOPDeBjZKb3G9rgOCA6Bk6VGb+nkfFB9AMCnVw0/19laMMFYyg9SWbQWDlBSgCyXxVzEX4kRSME64DMQ2Y8PiRVngA4/YJwHsaWB4410Ecr7BRC6FcyIwY5HpJ2OAFgdDY2cpD7tsTQiqcDyb9xifG2kHkjvDbEsvvT9zRDNogeicSYMyR9mYMwWolrmKXdyzO0Y27I8CQGhQdCyqwLICcaGzAi3cuod0fr0ft4aYhCEBKVLzEoqmGQXBDDZ3PctkxG5ftOMS3E0JB5Id2VGPcMaRljRJxIYzGuOuixNsbQkhnKHMiLSwwCj4OUNV4AMjbcFnatKxqaMheEUtMlBqUmQnaKMvy3J4zK9YEGBjpPNy/c0JZlj1dAZiExrhaSB2acdGJQe3U9YrXGUOHnsp8YGrPc8QYIpRdKjAnxZWwcsCOhV1urTe1UdU6LIwzNWe50C4RQi6SRYWzsujLqtme3or+vI/Np4d8MDSq7DMPY+PmHJ13PtjwquE3Gg/z4S1kfurChTSWY5q02aI9YQvBlpCGF8l5ppvUDf8MVQzGTK8nn03pQpfw+3Uym5Q2/T59+Ub9Pf73v9w2+n27a9ytnvML3+0k/gEBj3S2vH0DgKt9v875fbFcKKfzJ71M/7vuNr3d+nwpF+a/f71O3S+Fffp/aNIEv+X2q2O3u4N39vcOairXySERPqSG+h/hrrdZ/h98W6UuVTZOQE1+QwNP+r88tEerk03Sd0i+94iyl2cZjQseNoqp8BUJf+RDtkeVTI4//h1+7fu2lJdNItt3nxrTXlkkkdvR3R+mH2otLoye73T4TqE17c0lUP4Fn/4327FIoJv1v+oeU+qs9vARK3nctP60B7emlz3T+ML/2+JJn2V15d+35S0qdtyf0XR0HbF7i/GddOk74qvKmtevXccImCsiaZN1a9LcN6LhhmWVJIGlS0GYEuqjjiEVuRtLEBIcQqlnHEVs4ncDNYg9BaBlxTFjMhGuW+cESv3LLxPfMfGqZNyzhtGUeZMYWy1hgmQOshowqWnKMPBMkXoDQ/RvWccSOlDc9ELgZ2xhtGXctE4cysY0J95i4KmJWsYvCwd1iu1K4Qh1XXElTgYsd2v9BYJljmNhlHM3Mj5a5khlZkYebCq41FALt0HHD5LFH3grmJwKB82CJ443zmfHbEjZFFBP3/RhErvTb/6D5Hc7ppx1OyFAXdHgLWbI0Vcmy5YS9Z7bMgdg5iGwxPlEAxhhmvGXi6PBTScd9UrFWpvQ5zedwUucJZdYFWygVxOHZ1W4ZD40oLeO/Ja7bK8PKZX57cprHbyhZfYEgjs+ObUw3AmVG65tH3NRykxduSdv/WhnLko8KJCA7y1wrEmOY+T0iDo51ELtGfym8XdueZjihgvmBzIEUZMfEx2IxxjLvhE0/t/hLbXe+UoEsZGeZP0RjLLGTmbX7fvwh4wqzSrApX6lAHrJLFI4xzLxZxSnauECot/sOta2FPiqQiTIyTPwZFjKFtzJKvdd2PmLNgVyUkkl8ohmI7ckIfEnbmX6YMffABzDmApYrtMfWNnak3PGWQDrKyljmkT2+0ZYX2E3ltyFlGvJRgW9gLPFcVdcaysJKt5YKFHqm8fnGFPgIhplnuyqqFWp8mWVBICUlZphwfM8f/1tWTB+WgMsT+A2GGRtnIKJGCPRaw6808B9MxBwrIgKN1fAfDGRSdsVkV4XtGctSvyAZWUlNcXyII5wUbEcfrXYSaA4KhhtTxPN724LlCaRSHobTnJpJSUqki7w1wMqsp/KtsBcOoVdodD2BjFu7Jc8RTvSQazbm5vb88UMVwYwmP+q52rp+I+2IchsmMUKeKs3EWOJqwRD6uAbXkmn9IJB4RFvGh9lNqlmYTxRKiDlWgzvS90DuETnC2ugMAsWACdK9MvRE8g+ocqc7AulHVO4m0zjDhH0CuUUNTjucEPgBlFUxfgbAmRMTx9JBuStd3vEHaMuwFsQ11FVRUPxv3jCo5sAnIApvR5hhwmRRUKhOY9MMUwL/gPaAXQfborUYukCg36Cd+wk0AWUsY48YnlJjPzrwFbYMNAPKRJR8hUDpC5icJ+wv0Me91BrFxMMiWHIC5icDn4GqXcQaZCINAQIg9AQNzZnNd6D4IKEs4ZgAasSkLzMC/4GCrAgyESPIcTGoAjV2536E4x8gS9jlOAotwAwo8CNoOqhg+EQLp1H6MaZ6f4J89YAxzJjrsH5r6GsV9SkycuIkUJj1VOesbWMWEkjRH4T8oeAoxAEYYwm9nUXgnZgHlCMtQ9YuusyiOAkVxhLuO2rZHwKpJZCjNwu5WtFRaAtiTFjR00kh5CANbVmSZChzIPcsvMyicRYqDBPrnETgcZiKljWSJB9kzsKjUsyQF+kgAh2DFGlSkqRKIyAkOF18lpxg1Cc6J1m3Fm0Lki+QpB2BPIv4yFevMctyTqi3u4bWLEna0NDkoWPoAolRxmTfG++pOWZImGySJAtk/bFdKXSBvIZxl2uIYWa+Yyi8CfINgSTNWC+A1KhcgPbAMHGbY+4QMm9Zcp+QO3eFp2Is8VedDum2hv6gJCmQE9JrVyBfHUCMtaVkh8wK06okyaKhPXaHGD9hFugQCs2CxGeWJOnLHEzj7uCogjChJfYQhM5oH+Q+Aznao9wQQr9S7kD+JoSYyEX0cER/twWpR5KUPz+gof/qFnEBxljCcEecu4Y+hCSZKIZElVazyDNBYpAfL4isshwAYcYJR1C6DJNpeUeOnHALkIT6q1kpSJVXiCBoT8h17P1TSdEJhGqAvGwgR0tqKKVvq2p+W5CqrhFRRHsIYu7DCd8JySdHbi8eQ6CxUUTcsINUfSMhCkteMLkc0F8C/YaUM14jRxaisaWjsovCajEEsn1RkLtcQZ7TAdeooa1KkUqWV+IxhLqjomQt5kD89FoYoQ6EMLNjzx8/VOFvVpD4zFJkQBp74dEwcRwk0ILCOBRiwkIsf1cLqS+QoW+ssRRuTdlX2tFYwiZIWCsKY6nTfwU5I/5eF5KhzJAhC/4G0COqaJl4GxLlIWHQhyDMPMPfV0O+XoakHU7Q4FeKJjsz/kASIiyO8DaEWMLfRfKW7MGsmgCpcH5BghTWYEodUNE+nIGmZ1gciRGGmGPhrTUNrWz9QH40HY/qRFSsoQTjEEdWWTBMGMYbDS6BlAikZ6kUsYsGt09FfYWQJ5BAPZUaYhl7ebtayESlR7ZaNHot0f0MpEIkpRBLbOTt5SAZ6wrZkVSfRlPqrIq6ipYcDTTCiSKZDjGRU9OEs61AtiA5sqVMIzQ6xy1Gd6KYpBiLpBrDjCy+BvZdkAeUG5Uur9Si4VesomfCKYg9uyoioX9AmDiLr/ZoaJLUWNJraTilpKWjrxXdXrXCtCCkloQaYAbIKPiKYRUOSZH6tHX/jcyccrzG16qiH4yBhreiWKLcCDmr2rm6T8iAJMbq+qFtnHBp3U4Q3QyY+QJzU7GkJgViIhudueo1JEOZIy8e4rW0jQtfmYo+vMVgA3USqo+L5eN2iGWUc0Wg1ZDCsqKNAWk7cwxPAS1jA8bPCCTY+RBm1nLVPkj50wNyoo2FDEfb2msFZFu0Xjkmxkei+QHkI7lqHFLRskZG9Oe94rW9BD4zMMQCDfSAK4gm1k8QS/zKUzEKt0IWLB16dBaFtN3LrF8BN1UDxt8AJNr0jEBMSxxNRyObCOTiCdecrpzRhLadUtIbUEhmLDXY/YWTUzdfhEyao15ABiUNivan+sLpy4wSmscdbl4hw61hWwPmUQ7h0HzIEXP09pBC3uP2mn7pcsZrWs5Q5uTLN6DnctFCp1+iSLzmteGYqCQF7ZfBlpJ4g20AscTtHBHkHEg+L3Ez/1143seZU3vcHN+moGGnPANOS4uAFkMs4RFHXYHMxCtku9LbP07thRuIYS5Q0OqY+An0IRJwSoIhNcQ6iPm5WkjznmDnGeuKlHmM9sg7jEGOV9g3N+BDRbQUYo6fH0I1QGp2v4/KVUJ75nenzAEKG9lS+MpBT9hSROQqVZBwYwo/o4d8lssVuNKVaA89xU0r7ByY0WTAMV4kIU+EMGEYP4TaA6lwfsbVbi9Xbu2lh3hsCpv9SAz4Hw8R094Qy1jBzwIgO3exUnnjtZfOQaHx/VXgJzLoMhJztJcglnmBn6eB9Me1Mi1vlGxBe2pKSUPMsQrNWkxYOeric+tGUClxhljGZ35qhNyMSy04Q52TU3vrjZ6zQke2wtsSfxn0VknQmSWBmOq46R1kTK5UtHBu7a2nGIpVhoKzLVozocWgfXVAwnYRKcjWuZklJHDjKzpO7a0bnsWnKnjVVwptS3xm0Pb0jIirFhJ2SuLm3RHxLpRUUnvsfxiNwue8KgPfm8QdaAYIM/pwszZER9wny8tqb03ho8+ibNzLpxsGt2rg/8iuisA2g9wxN+tH5Habonla0J6a0Mc3r+z8v4YMPjHKJPAfQabETX73W0192kuvjdLLQr3dla1hRc95GHyQFUjku0NehJdiGvla7pIlt/bOORawvU9V9lpKuWdl8O4y5RDaNSHnxYtKcLsOt6C98vQJfXhI9SubI88ECTNrjY32lKSQ0B0QS2zPzksDiCIukvmZtTf+rt1fLYXiGlG2V+FDIyZcMnbW60QSvLNIIczP8TJ9RHLWuEfSgLTXzUGgRkJf2cGEaMh5pK8clq14/MR5GDtfuqXoPBQa0gwv20LEu8bNpMxjNL85KP1yo7Mg0NgNby9EZ79ycfccfEy0Z7M3EIrSVPxGzlF/SsZWd7lamocRvY8OIOGWIngZMYJG4xbZUuYRmlNKP94xicqfSCPK22bv0HqMrY9KzzIJP9ACEGbm87JwhG7r+o07ZKtF8/g3FN407W4r72uJkZZx1dh7wE1J/LeDnCgvXw1JcoUF16Ltz0+pQwQ558mUB44ohn6hsTvGRyTBXSDMmMrLViDZ3OBm/kfb3vg9Jw8dQ+WFV9IvY3slybAMYon1vEwO8lEukJQyj9F2X/+0061zifLA4at76pZY89rG/tvlYaSYEGIIM9fwcteQpsXX5Pq0zT+57WUr79vVcGOKJexiYpvhMNiOW8ohOUYQJuzmpc+Q6sWXoczR9r77Uw5Med6Hm4Yl7GfCP8Nl6ZYkx3JIv3gh9ApIu4X3g9peSq3/PeVpq7rWUGYXyWewd2yZBy2x0fB6O5JlRk4gL8LLLCDlTNeILkuIGVtqpHCE4nXouzlpS+htieOZOaM2N72MKTFz50feapOG60qS5lyIZT7h5a4gGesKwS3qtbSdox+r4rA3uznRy7iqfzDe10mg9id5OiBMfM/LX0MylBliK5oqT9A2ro1Shcr2GVhueD3RF/6D8cYuYp0cZ5JoTs1AroSX24XsQmxljRdoGwn1aNPK5thDEFothjBhcZPGM3sqwZJnkumWEGZ84aU1SKo0Rmit5rSBUrsaUfZWfj4wPiNLeGc8dIUjDyNXO2IRvPQb8loiK1BC4893YMrWYstaufHQJVFeItlWIRrlZSgQnVlgGcsSjSf0jNK6nUDZOAMmplrCZeOp7zGTpDsZUS8vitDfIJUsb4hr5y3AcnRX2bmEzzee2n677Joh+bpIFMLMgBdC34VkEVZb12/q0/CuKBurOCdzJh4y3vrS5STjq0Cy83L0kHLHW4RVs4b3WuGX2+KojKeevMsckvJkxMoVrzuG5BJVZesHrwUbv8IfCxPuGW8dZMG5JOk6RKPcxNCDIeMR1c1q9A76C+vNugsaTz24cpK2Ql4XN7OCpEpjBJWtI6hPHatCt8bE68ZT7/0ziZFmlXduQyBMkHJzi5AQawRVUoMJ9PMGFHrSlvjVeGk/A6xHMv845Ly4mQ5EZxNSpesbOUEJv6jAsQ7it0w03nly6UyS+4YQS3jNjaKUFJJFSBnqAg3+dAXu6hCNd/5QjI8cJPv6eYE8Oz+EOg/ZiYhW1wRoKy8MWu+pGq/sodQRTjyMNGB6RiDMvMgPoVdAyqwLRJRHY3N0QmHn8NrGE5f8K9pD/yNtuB6kVn4IPRSSZpgioMzfAKLQEoV9uHc13vcq/4pw0pcfQprx2RBL2MQPoVIguQX0WRpLoMaYanXMpn7GeNkDdp5YGunGm84lbRkbIAgTF/FzAxCdaXlDPLsAFVbQvTy1NC/Y8Fk3/2kTKi9eJtG4ECVG6Nnrlb9pKWnSXSCWOI2fZa8f8t/CaUNjCXWntG4ngHT1+Q2H7jIVYsf4EL+piHTE20GYMIwftS5IHuGUPV4B6plCPhUzDxjb5y9+E+mNFZCIUMoRgVZDJiqc/8Fspb8Qy1xpbHYRqVAHzCYd8jEQtjGaow1DSoimkuUVje2ZQk7D2PuoCRuSLukm05DNcPRhEL1gwRTGbKUYYuuN2nITlVkVQ/pkXsPUQXrFUShKE1O9YFLnCRhK9VPAvX8qKe7M2Dm4eyO9slohR6V47h0kY10hlrnnhFC4tXT0tRBnaGz8l8fMKi9T4gyxxOdcTRgyILGUPz2goUtXQCYWGhv38bmCQ/qjTVaJWQP5Mq56DWmiqFB+EvPKgPU+nMHeRaRnhrchhBlLuSIhJ0J0xbsNQvkfCKE/9BdgGUsU3EmoEiJE+maACSDPytVQMTWLJKkFCIVWquiXWBA2eT3SOT0VGvKJXCkKv4GkH2aIZMUaSkPOiy775xu0i1jPJp0zuyoKGnZy4uscIWWkISIpDMkx1OgiRk+DvspfSO8shyR2la/dQfTqBLJoyNOoqOu0xEZUSWqSSfesgTDxveI7hlU4psL5CYH8D4TQM6LrkAHbH0H6ZymkVs5+u2FIywJJzhrI20YVeSZIGkItJh30Q5DP4UxR+CbkucSxYA2NYXaOiilVGrC/EUgHfUgJZNa87RiSWxwVLWsg+YcSzb4fg+jmQC9eqoeUK+jx8/a2EN2UMNoN+VUVbWRDtsHaF5EeGuUmyFKy89Y4prAwvh7yElFZxknQW0gXrYB8kOL+qyFphxOE0TJkx9EMOxGzZKk+sgRiifX8PSKkhcyimAnkaqNhxlSDjQ0w6aKHKSgz8/nrIURnEUX6MgOyu2jeFeOl1lvqIzWYTfF3A5iMdYko0g/nQEJUjygiW+FtsAlhJn20AvIzyoFfDSkjDRBF2uEMyHdG8TmYdjUmR+quDWKZW53wjRBdyW6LIPoBIVRKFJZ5B3Mgn7fIKkfXaaARxX5O2CRmp4JYH2QP1WzoiZB/uT5Jsn/vN8FYbng54cNyQFKmIW5xbgZ6Wlkl6XlDplK7E9SNQnTfXcISlmFWL0lGbqBTUo58bMyYXWJnkHZllaRrxzCz2hmbxySPPTK7QnWJkP15t4UseV8MczJzRrFLgejy5wdcIbzFYAM9yO+OkCTPOn/IzSmHUmgO5rlcoUOQ+R/qP78gSeowUGY2OIUG+WL0uNzgYiGDyypJ9+2VAszFOKXYMjEZyhw3sMwjkNYlybPeBGQRvXGKOjtMfDYXuDlIDyXJNA2UGVuUY28Ro3O5wD9AVi9JtoWJNBY4R60LkztJeNUZ6DHIkf//eAgT23rloHvH6FzCaw1SW1Y5unYDtYRjysHjo/QPzHCyiS6s6Am5eEkyOIxl9nCSmi9G71p0u4F4qbQ+klkUOyT7zzlqGCDdlODCLUVAfHSgj0Q4SUH/XTmbQpdBqdKYomK7D8hL9ZF7YH7YYb8I0oXFdjGQABPoIosUdFR7ZSg5rFjXQR1pw5f4AYYZG5XTach5IF0osw/x8cmYSTsuWbcWUegJSOfyIcoUdCr7fvwh4zhFokpRuvzpEf+hFsOExcr5bbpcineJKtKG35CaYoW1WgwRgPpFlC5xMz5DkA0wW4s9BKEIVEsonSqNSPIVrlCFscyZSoibbhiln6tHfkKlwo5QDGqFMJ06TUjyDz6+BPOFSpAx1eqUksL0cWZa3vEN/qywllkkCkXpMpwuMRGfYL97YJj4ravCUOeI0x2Zsj8QH2KFbUKJ88MI1IjTOl+SD1D3lWASX1sgilApdugSw5B/azfYI1FC3a4dWg+okt0WyXd9TwQ6cbGMbyu2aBrNe1W8bJF6NRmsJT7LLhbVuVnaorV+yC0UlXbHUxvIMvoq0b49gdps0jpF6pOhzPnvAnJu319vYrBM/FbVtYaycNS926a17sguClcwP3HC0m2dBsyMCUrAhGrg4LANsaa+iebNUBfkKlyzjRuTSw1uH7SeKp9sa4iotG4noPQyThwqcfbnnSYGfIFKyAP7Px9inZcJWkrVVwptMamBvZPvcAxPZMB3rES9bALt8BmGuU8vFBiwJX5dqbDUwAg9w1/YzzebGDQT+yuRz7kBH6Emg77bRQpN0ZijCf3NNzigT1oY+CcqwZO+cqD0Q59g1Ab+hUr4Q/nLHD7AnAMV/DpGKD6lCKpISr8TTgxyvHS539UU3hJHKVfsAoXXJAimWdny3tcq/FVFngkSd1Dqu3cvlIShypWMrOypGNYbuYgeyj1v9/oFcl5KppQHmsGuWJ6RctMXfsEahbE7efLU871Asf2yfT8GkasoVSwUHDXdBCH0jo49RSmypSXP771drWK9iTko9930+AnV7LwcXVbudnC/tDnQL46oadTedpef/WHvYBvs6S7XJYrDeiOKocqVB/atOyb0B2cl/JJyswZrungTh2TCMOXaxTZ/z0dPKaljdhjDXKDcrK4zN3HJx1Uuf421rnDChHr0Xdzt8HwbV27W3qmauOSkane7w77+Tsyq1m1TePiL/+V8P43HT9/wHhpR0UvlEH5tU5uJS265NyqOKJV/M3HJF1mtki9vauKSna1OSZikuIRl7tgb/yanZExV1xNxCGbMnYGSMQ2aOCMT2yKK/VSc0kUO4fc2cYatHYuSNHcaV7CEzfepfL0mw0KminPKlXqZWRs5HagqP6+gJWw6fhUXlSc1MGH91lXcVJZsjQmThq7iqlJkHgtcQuwhCFXcVXpchyWeOyMmBNau4rQyg5kfmXieGUsjRs+jqVPFeV1uIm/pRT+nxRaZ2D/cYkUfdhNxw647Ko7scpbxUvmA1frv8PuwhNfrFX3tvof4C57X3Gcc6yD29Q7rBUcaYvw+U/BZ/T5jLKG378fEtnX4fWYUvp/Zuu93xL7fDfh+TLjkByyVm2Xc9QOoyvfz1YHvdz7fL6dm7tHvowP6tIXvl3Wzvl9jrft9WbMu/8z9vqzXt/jzO++qbySqvJoQvb/hil9arf/8pwJGNWNFK3a342RbjrdiZ2MW5zP8THTNWduTX8NJX50Bcx3H0z2YiK68aMQ8XSpiRkH8jKAZ8rBsx5nhZJjWHzIQ/+as5+JgfzoCYpk3JEbY9IPsqRWas3oYKSawH04Nmc7B/0IeR2KEnZwg3mrQBnlYdObBavSZ0LE0tGYvu5lDtiwxWoO4SbUmyGd4X+xM9Gr0d+IWsy5D/l1i5ITYizTArP64mQw784jVYiCXITF6UxChLDnRAL34b7JcncF2nGWUBPkciaEagiRGSH5tOWGyHU9HU5azOW9Ih2RGZyFnlV5Dpo2lmZE5jNR8hrForDZIWMiUGcxYCnmM9PpgZTLvxG0W9RhoFYabzLCMoRAngcquGMk1ZsEkdmOovTeDmULq7Y7M6ANETZfcC00OO3KNwftCdqZk5m0lQt4ht28fwcMQYnD///GQuUsNdcGQL95Paq3YZfI4ryEzYF9ioC3KDUtYBlERTpRaD75yYbbjLKwVzBLlhmUWYVzEOrsqMhtMGB+9+INavYFeV+1yo/LzgTETuyCqUmajqeRjEIGo98WMUUlOZlzBTF4qry0m8fF+0OoNdniy40Qx6nbyKmCsyecoikH/hik4dNkxh5VjVEqcpVXAGE5GUoDpocH2S0nPfoGe8HFZbXE3Pq4D+f9/Af2W/GBGGUjtLSsaTTkfA/CC7OsrTQz2OtYrP3rDzI8gVSarQYTw0YPviOs14AUqCRoxRqDq/i+p7rznow2HAbMjZ4JiDa4ypFfrAaklloLIqSVbuJhUyATbnvoPA7bMI0qKWuJslLrHXCnNGk0FDwPxI5uL76HQETNKjsx+EShz8ZfiRtSdDzy05ahNS+cr9PMrScqEYTCz1zfJEt2oAVPG085uBHmzbCmuVejEdcuSRTLzKczsevUuROdg14ZDZON5dlZwZmxU0vRicGb+XXahAkaPpJDVQHzJxtQkX0XBR1X5+cBYnqgx4oxpvTHXoU+sRg+bMdS90obz1Sm8JY5XEvW2LLHRBnPeh/BbG9ehDlyax+Jmm5PV2VUJsqBi+JyLlCnqxBNtMLXV4Tr02Xm48XS1Zh9ZvchdrhXDRkeo5Coza+0wZt9fLTjkP9u4DXXg6mr0osbSeCmy1hHWgopph5Rk3Rv/JmeZd2wxta29bpehzUdRhhlK/PPI2t1frJiex6H9HwSyRU1mHrYYc94H+1Mbl6H3TRtPt21HvHUWWZmRFX8DKLaW+HylSr5+wKjsMeb079RdiBoysyc/Hm/dJbvwtIBxZGVxaAueQaAU26mctpKxj1bQJvPx+/VWk5G7C9G3W7GzB9/OO4Ya0zQPGUXpIAK68qo5a8ja+202WTGugTmFldaFbnI2Ig62y5j578drTf7WXda5kAm/IxufOqFEMbfEGiVrmTHVNmO220Y97mProp2+qNgzY4iSty3aZ4xpZZrDdK+Pl9UqDhMtc4CSuUwYxoMxu279JV1py5SklF5F8ZjIhF5K7jKxfyIPxph9eK6g7Aqyqa71czd8FmRmtZK9kcaCRvkw6oCJ0T4qlsfMyvmG11HNWsnfDzgvTpRSdl8d/KhaAnPWO9BdphS/DYW36K5k8NA/n5u132PvxAhlV0Vk1WU7TVY8n+oclByu0zI28KSUKpn497QUF4moevpH/qE4Z8bSRSppfG7r4Wrtk/fphYL9e7/FQX3fpkGB1P2lD3HrFyvurysilCqZPOLH4W3t8z/vy5rmS9btvFs+8K+O2N93W4y3yqsJ48TORk5NEyWX9/0YRJ3Kzt9hW9u/dX+a9TTokOura6tduIUXNg5tdHiH9n8QKOkc3qL7zzrjsL3Mvb2V2NdXCirPtqh4S27qvuWD+r7NAX/W4io2drrbNQ7+2dNWMjr2EIR/YRmfHXM4Vt3993+trHl2aoqrlxZBGjyelyy+1TdqPWm8Zz5/43TLaGZi99qVpF4pE5YXdJbVVS/crlZa+cu//MsrO/1t/eVfTqKVVs78X+ZvhFnDNWxBSewvsMRzohD5u01GSe73eRFv8/nhliKUBO+EJd7yLqc6aSXHs8/4OT1J4hjXrST6bqa0cq9R8N/Dip5KskcaLJlZuxQv8TPMnDFiJeHvc3hX5RFqsMTt75NdyfoqWnJ8y3m4nyU+a7HKC+oqqd8bZmT9+3W42f3c8bpnoOR/V60tJVviukW40/2sejczUH5hnREz7Qot8avbdP2IR6h8xtpLtrhlJra5xTyYuG0aLSl/8j4jG7J73pDwGt0yE4bNbgbK1xx69cxY+uyJorLEX1t+lU50R/miQ58xMxtuPbtomPliWH/2cLGHIFS+aqyDuJlzW/Wxr1wMm/j3V5l01VcKbeXTrpZdJJ/fsoR5lnBsEw6ayngH/16RLYX/nPJ/7zO8xWBmlN3UVTPhEjOauBry55/a5/zFEmavfOa9fyopNrOEsFH8vY8wsFHcakMTAU3EMt4w4d4oBsaE+ZYx9BnYxuiwk1Mp5X/3qqXXLllyCZ3oRLgxpfqwU1InOnFtJUs2U/n5wHgLqlr/V+v/w3UP;" vertex="1" parent="1">
          <mxGeometry x="660" y="1539.5" width="50.5" height="50.5" as="geometry" />
        </mxCell>
        <mxCell id="aBF4gKf8o6EeW--I7lqI-41" value="upload task" style="text;html=1;align=center;verticalAlign=middle;whiteSpace=wrap;rounded=0;" vertex="1" parent="1">
          <mxGeometry x="682.75" y="1599.5" width="80" height="30" as="geometry" />
        </mxCell>
        <mxCell id="aBF4gKf8o6EeW--I7lqI-43" value="Upload the extracted text to Postgre SQL" style="text;html=1;align=center;verticalAlign=middle;whiteSpace=wrap;rounded=0;" vertex="1" parent="1">
          <mxGeometry x="682.75" y="1674.44" width="180" height="30" as="geometry" />
        </mxCell>
        <mxCell id="aBF4gKf8o6EeW--I7lqI-46" style="edgeStyle=orthogonalEdgeStyle;rounded=0;orthogonalLoop=1;jettySize=auto;html=1;exitX=0.5;exitY=1;exitDx=0;exitDy=0;" edge="1" parent="1" source="aBF4gKf8o6EeW--I7lqI-39">
          <mxGeometry relative="1" as="geometry">
            <mxPoint x="870" y="1670" as="targetPoint" />
            <Array as="points">
              <mxPoint x="685" y="1670" />
            </Array>
          </mxGeometry>
        </mxCell>
        <mxCell id="aBF4gKf8o6EeW--I7lqI-48" value="Extract the pdf files using Pypdf and AWS Textract" style="text;html=1;align=center;verticalAlign=middle;whiteSpace=wrap;rounded=0;" vertex="1" parent="1">
          <mxGeometry x="490" y="1539.5" width="159.75" height="10" as="geometry" />
        </mxCell>
        <mxCell id="aBF4gKf8o6EeW--I7lqI-88" value="" style="sketch=0;outlineConnect=0;fontColor=#232F3E;gradientColor=none;fillColor=#C925D1;strokeColor=none;dashed=0;verticalLabelPosition=bottom;verticalAlign=top;align=center;html=1;fontSize=12;fontStyle=0;aspect=fixed;pointerEvents=1;shape=mxgraph.aws4.rds_postgresql_instance;" vertex="1" parent="1">
          <mxGeometry x="870" y="1640" width="78" height="78" as="geometry" />
        </mxCell>
      </root>
    </mxGraphModel>
  </diagram>
</mxfile>
